<svg width="300" height="300" viewBox="-150 -150 300 300" fill="none" stroke="black" xmlns="http://www.w3.org/2000/svg" xmlns:xlink="http://www.w3.org/1999/xlink">
<g transform="scale(1 -1)">
  <g transform="scale(1 -1)">
    <circle cx="0" cy="0" r="94.48818897637796" stroke="red" fill="none" />
    <g>
      <g transform="rotate(0.0) translate(0 -94.48818897637796)">
        <line x1="0" y1="0" x2="0" y2="15.118110236220472" stroke="black" />
        <circle cx="0" cy="18.89763779527559" r="3.779527559055118" stroke="black" fill="none" />
      </g>
      <g transform="rotate(40.0) translate(0 -94.48818897637796)">
        <line x1="0" y1="0" x2="0" y2="15.118110236220472" stroke="black" />
        <circle cx="0" cy="18.89763779527559" r="3.779527559055118" stroke="black" fill="none" />
      </g>
      <g transform="rotate(80.0) translate(0 -94.48818897637796)">
        <line x1="0" y1="0" x2="0" y2="15.118110236220472" stroke="black" />
        <circle cx="0" cy="18.89763779527559" r="3.779527559055118" stroke="black" fill="none" />
      </g>
      <g transform="rotate(120.0) translate(0 -94.48818897637796)">
        <line x1="0" y1="0" x2="0" y2="15.118110236220472" stroke="black" />
        <circle cx="0" cy="18.89763779527559" r="3.779527559055118" stroke="black" fill="none" />
      </g>
      <g transform="rotate(160.0) translate(0 -94.48818897637796)">
        <line x1="0" y1="0" x2="0" y2="15.118110236220472" stroke="black" />
        <circle cx="0" cy="18.89763779527559" r="3.779527559055118" stroke="black" fill="none" />
      </g>
      <g transform="rotate(200.0) translate(0 -94.48818897637796)">
        <line x1="0" y1="0" x2="0" y2="15.118110236220472" stroke="black" />
        <circle cx="0" cy="18.89763779527559" r="3.779527559055118" stroke="black" fill="none" />
      </g>
      <g transform="rotate(240.0) translate(0 -94.48818897637796)">
        <line x1="0" y1="0" x2="0" y2="15.118110236220472" stroke="black" />
        <circle cx="0" cy="18.89763779527559" r="3.779527559055118" stroke="black" fill="none" />
      </g>
      <g transform="rotate(280.0) translate(0 -94.48818897637796)">
        <line x1="0" y1="0" x2="0" y2="15.118110236220472" stroke="black" />
        <circle cx="0" cy="18.89763779527559" r="3.779527559055118" stroke="black" fill="none" />
      </g>
      <g transform="rotate(320.0) translate(0 -94.48818897637796)">
        <line x1="0" y1="0" x2="0" y2="15.118110236220472" stroke="black" />
        <circle cx="0" cy="18.89763779527559" r="3.779527559055118" stroke="black" fill="none" />
      </g>
    </g>
  </g>
</g>
</svg>
