<svg width="300" height="300" viewBox="-150 -150 300 300" fill="none" stroke="black" xmlns="http://www.w3.org/2000/svg" xmlns:xlink="http://www.w3.org/1999/xlink">
<g transform="scale(1 -1)">
  <g transform="scale(1 -1)">
    <circle cx="0" cy="0" r="103.93700787401575" stroke="red" fill="none" />
    <g>
      <circle cx="85.03937007874016" cy="0" r="3.779527559055118" stroke="black" fill="none" transform="rotate(0.0)" />
      <circle cx="85.03937007874016" cy="0" r="3.779527559055118" stroke="black" fill="none" transform="rotate(30.0)" />
      <circle cx="85.03937007874016" cy="0" r="3.779527559055118" stroke="black" fill="none" transform="rotate(60.0)" />
      <circle cx="85.03937007874016" cy="0" r="3.779527559055118" stroke="black" fill="none" transform="rotate(90.0)" />
      <circle cx="85.03937007874016" cy="0" r="3.779527559055118" stroke="black" fill="none" transform="rotate(120.0)" />
      <circle cx="85.03937007874016" cy="0" r="3.779527559055118" stroke="black" fill="none" transform="rotate(150.0)" />
      <circle cx="85.03937007874016" cy="0" r="3.779527559055118" stroke="black" fill="none" transform="rotate(180.0)" />
      <circle cx="85.03937007874016" cy="0" r="3.779527559055118" stroke="black" fill="none" transform="rotate(210.0)" />
      <circle cx="85.03937007874016" cy="0" r="3.779527559055118" stroke="black" fill="none" transform="rotate(240.0)" />
      <circle cx="85.03937007874016" cy="0" r="3.779527559055118" stroke="black" fill="none" transform="rotate(270.0)" />
      <circle cx="85.03937007874016" cy="0" r="3.779527559055118" stroke="black" fill="none" transform="rotate(300.0)" />
      <circle cx="85.03937007874016" cy="0" r="3.779527559055118" stroke="black" fill="none" transform="rotate(330.0)" />
    </g>
    <g>
      <line x1="103.93700787401575" y1="0" x2="88.81889763779527" y2="0" stroke="black" transform="rotate(0.0)" />
      <line x1="103.93700787401575" y1="0" x2="88.81889763779527" y2="0" stroke="black" transform="rotate(30.0)" />
      <line x1="103.93700787401575" y1="0" x2="88.81889763779527" y2="0" stroke="black" transform="rotate(60.0)" />
      <line x1="103.93700787401575" y1="0" x2="88.81889763779527" y2="0" stroke="black" transform="rotate(90.0)" />
      <line x1="103.93700787401575" y1="0" x2="88.81889763779527" y2="0" stroke="black" transform="rotate(120.0)" />
      <line x1="103.93700787401575" y1="0" x2="88.81889763779527" y2="0" stroke="black" transform="rotate(150.0)" />
      <line x1="103.93700787401575" y1="0" x2="88.81889763779527" y2="0" stroke="black" transform="rotate(180.0)" />
      <line x1="103.93700787401575" y1="0" x2="88.81889763779527" y2="0" stroke="black" transform="rotate(210.0)" />
      <line x1="103.93700787401575" y1="0" x2="88.81889763779527" y2="0" stroke="black" transform="rotate(240.0)" />
      <line x1="103.93700787401575" y1="0" x2="88.81889763779527" y2="0" stroke="black" transform="rotate(270.0)" />
      <line x1="103.93700787401575" y1="0" x2="88.81889763779527" y2="0" stroke="black" transform="rotate(300.0)" />
      <line x1="103.93700787401575" y1="0" x2="88.81889763779527" y2="0" stroke="black" transform="rotate(330.0)" />
    </g>
  </g>
</g>
</svg>
