<svg width="300" height="300" viewBox="-150 -150 300 300" fill="none" stroke="black" xmlns="http://www.w3.org/2000/svg" xmlns:xlink="http://www.w3.org/1999/xlink">
<g transform="scale(1 -1)">
  <g transform="scale(1 -1)">
    <circle cx="0" cy="0" r="103.93700787401575" stroke="red" fill="none" />
    <g>
      <g transform="rotate(0.0) translate(0 -103.93700787401575)">
        <line x1="0" y1="0" x2="0" y2="15.118110236220472" stroke="black" />
        <circle cx="0" cy="18.89763779527559" r="3.779527559055118" stroke="black" fill="none" />
      </g>
      <g transform="rotate(30.0) translate(0 -103.93700787401575)">
        <line x1="0" y1="0" x2="0" y2="15.118110236220472" stroke="black" />
        <circle cx="0" cy="18.89763779527559" r="3.779527559055118" stroke="black" fill="none" />
      </g>
      <g transform="rotate(60.0) translate(0 -103.93700787401575)">
        <line x1="0" y1="0" x2="0" y2="15.118110236220472" stroke="black" />
        <circle cx="0" cy="18.89763779527559" r="3.779527559055118" stroke="black" fill="none" />
      </g>
      <g transform="rotate(90.0) translate(0 -103.93700787401575)">
        <line x1="0" y1="0" x2="0" y2="15.118110236220472" stroke="black" />
        <circle cx="0" cy="18.89763779527559" r="3.779527559055118" stroke="black" fill="none" />
      </g>
      <g transform="rotate(120.0) translate(0 -103.93700787401575)">
        <line x1="0" y1="0" x2="0" y2="15.118110236220472" stroke="black" />
        <circle cx="0" cy="18.89763779527559" r="3.779527559055118" stroke="black" fill="none" />
      </g>
      <g transform="rotate(150.0) translate(0 -103.93700787401575)">
        <line x1="0" y1="0" x2="0" y2="15.118110236220472" stroke="black" />
        <circle cx="0" cy="18.89763779527559" r="3.779527559055118" stroke="black" fill="none" />
      </g>
      <g transform="rotate(180.0) translate(0 -103.93700787401575)">
        <line x1="0" y1="0" x2="0" y2="15.118110236220472" stroke="black" />
        <circle cx="0" cy="18.89763779527559" r="3.779527559055118" stroke="black" fill="none" />
      </g>
      <g transform="rotate(210.0) translate(0 -103.93700787401575)">
        <line x1="0" y1="0" x2="0" y2="15.118110236220472" stroke="black" />
        <circle cx="0" cy="18.89763779527559" r="3.779527559055118" stroke="black" fill="none" />
      </g>
      <g transform="rotate(240.0) translate(0 -103.93700787401575)">
        <line x1="0" y1="0" x2="0" y2="15.118110236220472" stroke="black" />
        <circle cx="0" cy="18.89763779527559" r="3.779527559055118" stroke="black" fill="none" />
      </g>
      <g transform="rotate(270.0) translate(0 -103.93700787401575)">
        <line x1="0" y1="0" x2="0" y2="15.118110236220472" stroke="black" />
        <circle cx="0" cy="18.89763779527559" r="3.779527559055118" stroke="black" fill="none" />
      </g>
      <g transform="rotate(300.0) translate(0 -103.93700787401575)">
        <line x1="0" y1="0" x2="0" y2="15.118110236220472" stroke="black" />
        <circle cx="0" cy="18.89763779527559" r="3.779527559055118" stroke="black" fill="none" />
      </g>
      <g transform="rotate(330.0) translate(0 -103.93700787401575)">
        <line x1="0" y1="0" x2="0" y2="15.118110236220472" stroke="black" />
        <circle cx="0" cy="18.89763779527559" r="3.779527559055118" stroke="black" fill="none" />
      </g>
    </g>
  </g>
</g>
</svg>
