<svg width="300" height="300" viewBox="-150 -150 300 300" fill="none" stroke="black" xmlns="http://www.w3.org/2000/svg" xmlns:xlink="http://www.w3.org/1999/xlink">
<g transform="scale(1 -1)">
  <g transform="scale(1 -1)">
    <circle cx="0" cy="0" r="132.28346456692913" stroke="red" fill="none" />
    <g>
      <circle cx="0" cy="94.48818897637796" r="3.779527559055118" stroke="black" fill="none" transform="rotate(0.0)" />
      <circle cx="0" cy="94.48818897637796" r="3.779527559055118" stroke="black" fill="none" transform="rotate(15.0)" />
      <circle cx="0" cy="94.48818897637796" r="3.779527559055118" stroke="black" fill="none" transform="rotate(30.0)" />
      <circle cx="0" cy="94.48818897637796" r="3.779527559055118" stroke="black" fill="none" transform="rotate(45.0)" />
      <circle cx="0" cy="94.48818897637796" r="3.779527559055118" stroke="black" fill="none" transform="rotate(60.0)" />
      <circle cx="0" cy="94.48818897637796" r="3.779527559055118" stroke="black" fill="none" transform="rotate(75.0)" />
      <circle cx="0" cy="94.48818897637796" r="3.779527559055118" stroke="black" fill="none" transform="rotate(90.0)" />
      <circle cx="0" cy="94.48818897637796" r="3.779527559055118" stroke="black" fill="none" transform="rotate(105.0)" />
      <circle cx="0" cy="94.48818897637796" r="3.779527559055118" stroke="black" fill="none" transform="rotate(120.0)" />
      <circle cx="0" cy="94.48818897637796" r="3.779527559055118" stroke="black" fill="none" transform="rotate(135.0)" />
      <circle cx="0" cy="94.48818897637796" r="3.779527559055118" stroke="black" fill="none" transform="rotate(150.0)" />
      <circle cx="0" cy="94.48818897637796" r="3.779527559055118" stroke="black" fill="none" transform="rotate(165.0)" />
      <circle cx="0" cy="94.48818897637796" r="3.779527559055118" stroke="black" fill="none" transform="rotate(180.0)" />
      <circle cx="0" cy="94.48818897637796" r="3.779527559055118" stroke="black" fill="none" transform="rotate(195.0)" />
      <circle cx="0" cy="94.48818897637796" r="3.779527559055118" stroke="black" fill="none" transform="rotate(210.0)" />
      <circle cx="0" cy="94.48818897637796" r="3.779527559055118" stroke="black" fill="none" transform="rotate(225.0)" />
      <circle cx="0" cy="94.48818897637796" r="3.779527559055118" stroke="black" fill="none" transform="rotate(240.0)" />
      <circle cx="0" cy="94.48818897637796" r="3.779527559055118" stroke="black" fill="none" transform="rotate(255.0)" />
      <circle cx="0" cy="94.48818897637796" r="3.779527559055118" stroke="black" fill="none" transform="rotate(270.0)" />
      <circle cx="0" cy="94.48818897637796" r="3.779527559055118" stroke="black" fill="none" transform="rotate(285.0)" />
      <circle cx="0" cy="94.48818897637796" r="3.779527559055118" stroke="black" fill="none" transform="rotate(300.0)" />
      <circle cx="0" cy="94.48818897637796" r="3.779527559055118" stroke="black" fill="none" transform="rotate(315.0)" />
      <circle cx="0" cy="94.48818897637796" r="3.779527559055118" stroke="black" fill="none" transform="rotate(330.0)" />
      <circle cx="0" cy="94.48818897637796" r="3.779527559055118" stroke="black" fill="none" transform="rotate(345.0)" />
    </g>
    <g>
      <line x1="0" y1="132.28346456692913" x2="0" y2="117.16535433070865" stroke="black" transform="rotate(0.0)" />
      <line x1="0" y1="132.28346456692913" x2="0" y2="117.16535433070865" stroke="black" transform="rotate(15.0)" />
      <line x1="0" y1="132.28346456692913" x2="0" y2="117.16535433070865" stroke="black" transform="rotate(30.0)" />
      <line x1="0" y1="132.28346456692913" x2="0" y2="117.16535433070865" stroke="black" transform="rotate(45.0)" />
      <line x1="0" y1="132.28346456692913" x2="0" y2="117.16535433070865" stroke="black" transform="rotate(60.0)" />
      <line x1="0" y1="132.28346456692913" x2="0" y2="117.16535433070865" stroke="black" transform="rotate(75.0)" />
      <line x1="0" y1="132.28346456692913" x2="0" y2="117.16535433070865" stroke="black" transform="rotate(90.0)" />
      <line x1="0" y1="132.28346456692913" x2="0" y2="117.16535433070865" stroke="black" transform="rotate(105.0)" />
      <line x1="0" y1="132.28346456692913" x2="0" y2="117.16535433070865" stroke="black" transform="rotate(120.0)" />
      <line x1="0" y1="132.28346456692913" x2="0" y2="117.16535433070865" stroke="black" transform="rotate(135.0)" />
      <line x1="0" y1="132.28346456692913" x2="0" y2="117.16535433070865" stroke="black" transform="rotate(150.0)" />
      <line x1="0" y1="132.28346456692913" x2="0" y2="117.16535433070865" stroke="black" transform="rotate(165.0)" />
      <line x1="0" y1="132.28346456692913" x2="0" y2="117.16535433070865" stroke="black" transform="rotate(180.0)" />
      <line x1="0" y1="132.28346456692913" x2="0" y2="117.16535433070865" stroke="black" transform="rotate(195.0)" />
      <line x1="0" y1="132.28346456692913" x2="0" y2="117.16535433070865" stroke="black" transform="rotate(210.0)" />
      <line x1="0" y1="132.28346456692913" x2="0" y2="117.16535433070865" stroke="black" transform="rotate(225.0)" />
      <line x1="0" y1="132.28346456692913" x2="0" y2="117.16535433070865" stroke="black" transform="rotate(240.0)" />
      <line x1="0" y1="132.28346456692913" x2="0" y2="117.16535433070865" stroke="black" transform="rotate(255.0)" />
      <line x1="0" y1="132.28346456692913" x2="0" y2="117.16535433070865" stroke="black" transform="rotate(270.0)" />
      <line x1="0" y1="132.28346456692913" x2="0" y2="117.16535433070865" stroke="black" transform="rotate(285.0)" />
      <line x1="0" y1="132.28346456692913" x2="0" y2="117.16535433070865" stroke="black" transform="rotate(300.0)" />
      <line x1="0" y1="132.28346456692913" x2="0" y2="117.16535433070865" stroke="black" transform="rotate(315.0)" />
      <line x1="0" y1="132.28346456692913" x2="0" y2="117.16535433070865" stroke="black" transform="rotate(330.0)" />
      <line x1="0" y1="132.28346456692913" x2="0" y2="117.16535433070865" stroke="black" transform="rotate(345.0)" />
    </g>
  </g>
</g>
</svg>
