<svg width="300" height="300" viewBox="-150 -150 300 300" fill="none" stroke="black" xmlns="http://www.w3.org/2000/svg" xmlns:xlink="http://www.w3.org/1999/xlink">
<g transform="scale(1 -1)">
  <g transform="scale(1 -1)">
    <circle cx="0" cy="0" r="170.07874015748033" stroke="red" fill="none" />
    <g>
      <circle cx="151.18110236220474" cy="0" r="3.779527559055118" stroke="black" fill="none" transform="rotate(0.0)" />
      <circle cx="151.18110236220474" cy="0" r="3.779527559055118" stroke="black" fill="none" transform="rotate(9.0)" />
      <circle cx="151.18110236220474" cy="0" r="3.779527559055118" stroke="black" fill="none" transform="rotate(18.0)" />
      <circle cx="151.18110236220474" cy="0" r="3.779527559055118" stroke="black" fill="none" transform="rotate(27.0)" />
      <circle cx="151.18110236220474" cy="0" r="3.779527559055118" stroke="black" fill="none" transform="rotate(36.0)" />
      <circle cx="151.18110236220474" cy="0" r="3.779527559055118" stroke="black" fill="none" transform="rotate(45.0)" />
      <circle cx="151.18110236220474" cy="0" r="3.779527559055118" stroke="black" fill="none" transform="rotate(54.0)" />
      <circle cx="151.18110236220474" cy="0" r="3.779527559055118" stroke="black" fill="none" transform="rotate(63.0)" />
      <circle cx="151.18110236220474" cy="0" r="3.779527559055118" stroke="black" fill="none" transform="rotate(72.0)" />
      <circle cx="151.18110236220474" cy="0" r="3.779527559055118" stroke="black" fill="none" transform="rotate(81.0)" />
      <circle cx="151.18110236220474" cy="0" r="3.779527559055118" stroke="black" fill="none" transform="rotate(90.0)" />
      <circle cx="151.18110236220474" cy="0" r="3.779527559055118" stroke="black" fill="none" transform="rotate(99.0)" />
      <circle cx="151.18110236220474" cy="0" r="3.779527559055118" stroke="black" fill="none" transform="rotate(108.0)" />
      <circle cx="151.18110236220474" cy="0" r="3.779527559055118" stroke="black" fill="none" transform="rotate(117.0)" />
      <circle cx="151.18110236220474" cy="0" r="3.779527559055118" stroke="black" fill="none" transform="rotate(126.0)" />
      <circle cx="151.18110236220474" cy="0" r="3.779527559055118" stroke="black" fill="none" transform="rotate(135.0)" />
      <circle cx="151.18110236220474" cy="0" r="3.779527559055118" stroke="black" fill="none" transform="rotate(144.0)" />
      <circle cx="151.18110236220474" cy="0" r="3.779527559055118" stroke="black" fill="none" transform="rotate(153.0)" />
      <circle cx="151.18110236220474" cy="0" r="3.779527559055118" stroke="black" fill="none" transform="rotate(162.0)" />
      <circle cx="151.18110236220474" cy="0" r="3.779527559055118" stroke="black" fill="none" transform="rotate(171.0)" />
      <circle cx="151.18110236220474" cy="0" r="3.779527559055118" stroke="black" fill="none" transform="rotate(180.0)" />
      <circle cx="151.18110236220474" cy="0" r="3.779527559055118" stroke="black" fill="none" transform="rotate(189.0)" />
      <circle cx="151.18110236220474" cy="0" r="3.779527559055118" stroke="black" fill="none" transform="rotate(198.0)" />
      <circle cx="151.18110236220474" cy="0" r="3.779527559055118" stroke="black" fill="none" transform="rotate(207.0)" />
      <circle cx="151.18110236220474" cy="0" r="3.779527559055118" stroke="black" fill="none" transform="rotate(216.0)" />
      <circle cx="151.18110236220474" cy="0" r="3.779527559055118" stroke="black" fill="none" transform="rotate(225.0)" />
      <circle cx="151.18110236220474" cy="0" r="3.779527559055118" stroke="black" fill="none" transform="rotate(234.0)" />
      <circle cx="151.18110236220474" cy="0" r="3.779527559055118" stroke="black" fill="none" transform="rotate(243.0)" />
      <circle cx="151.18110236220474" cy="0" r="3.779527559055118" stroke="black" fill="none" transform="rotate(252.0)" />
      <circle cx="151.18110236220474" cy="0" r="3.779527559055118" stroke="black" fill="none" transform="rotate(261.0)" />
      <circle cx="151.18110236220474" cy="0" r="3.779527559055118" stroke="black" fill="none" transform="rotate(270.0)" />
      <circle cx="151.18110236220474" cy="0" r="3.779527559055118" stroke="black" fill="none" transform="rotate(279.0)" />
      <circle cx="151.18110236220474" cy="0" r="3.779527559055118" stroke="black" fill="none" transform="rotate(288.0)" />
      <circle cx="151.18110236220474" cy="0" r="3.779527559055118" stroke="black" fill="none" transform="rotate(297.0)" />
      <circle cx="151.18110236220474" cy="0" r="3.779527559055118" stroke="black" fill="none" transform="rotate(306.0)" />
      <circle cx="151.18110236220474" cy="0" r="3.779527559055118" stroke="black" fill="none" transform="rotate(315.0)" />
      <circle cx="151.18110236220474" cy="0" r="3.779527559055118" stroke="black" fill="none" transform="rotate(324.0)" />
      <circle cx="151.18110236220474" cy="0" r="3.779527559055118" stroke="black" fill="none" transform="rotate(333.0)" />
      <circle cx="151.18110236220474" cy="0" r="3.779527559055118" stroke="black" fill="none" transform="rotate(342.0)" />
      <circle cx="151.18110236220474" cy="0" r="3.779527559055118" stroke="black" fill="none" transform="rotate(351.0)" />
    </g>
    <g>
      <line x1="170.07874015748033" y1="0" x2="154.96062992125985" y2="0" stroke="black" transform="rotate(0.0)" />
      <line x1="170.07874015748033" y1="0" x2="154.96062992125985" y2="0" stroke="black" transform="rotate(9.0)" />
      <line x1="170.07874015748033" y1="0" x2="154.96062992125985" y2="0" stroke="black" transform="rotate(18.0)" />
      <line x1="170.07874015748033" y1="0" x2="154.96062992125985" y2="0" stroke="black" transform="rotate(27.0)" />
      <line x1="170.07874015748033" y1="0" x2="154.96062992125985" y2="0" stroke="black" transform="rotate(36.0)" />
      <line x1="170.07874015748033" y1="0" x2="154.96062992125985" y2="0" stroke="black" transform="rotate(45.0)" />
      <line x1="170.07874015748033" y1="0" x2="154.96062992125985" y2="0" stroke="black" transform="rotate(54.0)" />
      <line x1="170.07874015748033" y1="0" x2="154.96062992125985" y2="0" stroke="black" transform="rotate(63.0)" />
      <line x1="170.07874015748033" y1="0" x2="154.96062992125985" y2="0" stroke="black" transform="rotate(72.0)" />
      <line x1="170.07874015748033" y1="0" x2="154.96062992125985" y2="0" stroke="black" transform="rotate(81.0)" />
      <line x1="170.07874015748033" y1="0" x2="154.96062992125985" y2="0" stroke="black" transform="rotate(90.0)" />
      <line x1="170.07874015748033" y1="0" x2="154.96062992125985" y2="0" stroke="black" transform="rotate(99.0)" />
      <line x1="170.07874015748033" y1="0" x2="154.96062992125985" y2="0" stroke="black" transform="rotate(108.0)" />
      <line x1="170.07874015748033" y1="0" x2="154.96062992125985" y2="0" stroke="black" transform="rotate(117.0)" />
      <line x1="170.07874015748033" y1="0" x2="154.96062992125985" y2="0" stroke="black" transform="rotate(126.0)" />
      <line x1="170.07874015748033" y1="0" x2="154.96062992125985" y2="0" stroke="black" transform="rotate(135.0)" />
      <line x1="170.07874015748033" y1="0" x2="154.96062992125985" y2="0" stroke="black" transform="rotate(144.0)" />
      <line x1="170.07874015748033" y1="0" x2="154.96062992125985" y2="0" stroke="black" transform="rotate(153.0)" />
      <line x1="170.07874015748033" y1="0" x2="154.96062992125985" y2="0" stroke="black" transform="rotate(162.0)" />
      <line x1="170.07874015748033" y1="0" x2="154.96062992125985" y2="0" stroke="black" transform="rotate(171.0)" />
      <line x1="170.07874015748033" y1="0" x2="154.96062992125985" y2="0" stroke="black" transform="rotate(180.0)" />
      <line x1="170.07874015748033" y1="0" x2="154.96062992125985" y2="0" stroke="black" transform="rotate(189.0)" />
      <line x1="170.07874015748033" y1="0" x2="154.96062992125985" y2="0" stroke="black" transform="rotate(198.0)" />
      <line x1="170.07874015748033" y1="0" x2="154.96062992125985" y2="0" stroke="black" transform="rotate(207.0)" />
      <line x1="170.07874015748033" y1="0" x2="154.96062992125985" y2="0" stroke="black" transform="rotate(216.0)" />
      <line x1="170.07874015748033" y1="0" x2="154.96062992125985" y2="0" stroke="black" transform="rotate(225.0)" />
      <line x1="170.07874015748033" y1="0" x2="154.96062992125985" y2="0" stroke="black" transform="rotate(234.0)" />
      <line x1="170.07874015748033" y1="0" x2="154.96062992125985" y2="0" stroke="black" transform="rotate(243.0)" />
      <line x1="170.07874015748033" y1="0" x2="154.96062992125985" y2="0" stroke="black" transform="rotate(252.0)" />
      <line x1="170.07874015748033" y1="0" x2="154.96062992125985" y2="0" stroke="black" transform="rotate(261.0)" />
      <line x1="170.07874015748033" y1="0" x2="154.96062992125985" y2="0" stroke="black" transform="rotate(270.0)" />
      <line x1="170.07874015748033" y1="0" x2="154.96062992125985" y2="0" stroke="black" transform="rotate(279.0)" />
      <line x1="170.07874015748033" y1="0" x2="154.96062992125985" y2="0" stroke="black" transform="rotate(288.0)" />
      <line x1="170.07874015748033" y1="0" x2="154.96062992125985" y2="0" stroke="black" transform="rotate(297.0)" />
      <line x1="170.07874015748033" y1="0" x2="154.96062992125985" y2="0" stroke="black" transform="rotate(306.0)" />
      <line x1="170.07874015748033" y1="0" x2="154.96062992125985" y2="0" stroke="black" transform="rotate(315.0)" />
      <line x1="170.07874015748033" y1="0" x2="154.96062992125985" y2="0" stroke="black" transform="rotate(324.0)" />
      <line x1="170.07874015748033" y1="0" x2="154.96062992125985" y2="0" stroke="black" transform="rotate(333.0)" />
      <line x1="170.07874015748033" y1="0" x2="154.96062992125985" y2="0" stroke="black" transform="rotate(342.0)" />
      <line x1="170.07874015748033" y1="0" x2="154.96062992125985" y2="0" stroke="black" transform="rotate(351.0)" />
    </g>
  </g>
</g>
</svg>
