<svg width="300" height="300" viewBox="-150 -150 300 300" fill="none" stroke="black" xmlns="http://www.w3.org/2000/svg" xmlns:xlink="http://www.w3.org/1999/xlink">
<g transform="scale(1 -1)">
  <g transform="scale(1 -1)">
    <circle cx="0" cy="0" r="188.9763779527559" stroke="red" fill="none" />
    <g>
      <g transform="rotate(0.0) translate(0 -188.9763779527559)">
        <line x1="0" y1="0" x2="0" y2="15.118110236220472" stroke="black" />
        <circle cx="0" cy="18.89763779527559" r="3.779527559055118" stroke="black" fill="none" />
      </g>
      <g transform="rotate(7.2) translate(0 -188.9763779527559)">
        <line x1="0" y1="0" x2="0" y2="15.118110236220472" stroke="black" />
        <circle cx="0" cy="18.89763779527559" r="3.779527559055118" stroke="black" fill="none" />
      </g>
      <g transform="rotate(14.4) translate(0 -188.9763779527559)">
        <line x1="0" y1="0" x2="0" y2="15.118110236220472" stroke="black" />
        <circle cx="0" cy="18.89763779527559" r="3.779527559055118" stroke="black" fill="none" />
      </g>
      <g transform="rotate(21.6) translate(0 -188.9763779527559)">
        <line x1="0" y1="0" x2="0" y2="15.118110236220472" stroke="black" />
        <circle cx="0" cy="18.89763779527559" r="3.779527559055118" stroke="black" fill="none" />
      </g>
      <g transform="rotate(28.8) translate(0 -188.9763779527559)">
        <line x1="0" y1="0" x2="0" y2="15.118110236220472" stroke="black" />
        <circle cx="0" cy="18.89763779527559" r="3.779527559055118" stroke="black" fill="none" />
      </g>
      <g transform="rotate(36.0) translate(0 -188.9763779527559)">
        <line x1="0" y1="0" x2="0" y2="15.118110236220472" stroke="black" />
        <circle cx="0" cy="18.89763779527559" r="3.779527559055118" stroke="black" fill="none" />
      </g>
      <g transform="rotate(43.2) translate(0 -188.9763779527559)">
        <line x1="0" y1="0" x2="0" y2="15.118110236220472" stroke="black" />
        <circle cx="0" cy="18.89763779527559" r="3.779527559055118" stroke="black" fill="none" />
      </g>
      <g transform="rotate(50.4) translate(0 -188.9763779527559)">
        <line x1="0" y1="0" x2="0" y2="15.118110236220472" stroke="black" />
        <circle cx="0" cy="18.89763779527559" r="3.779527559055118" stroke="black" fill="none" />
      </g>
      <g transform="rotate(57.6) translate(0 -188.9763779527559)">
        <line x1="0" y1="0" x2="0" y2="15.118110236220472" stroke="black" />
        <circle cx="0" cy="18.89763779527559" r="3.779527559055118" stroke="black" fill="none" />
      </g>
      <g transform="rotate(64.8) translate(0 -188.9763779527559)">
        <line x1="0" y1="0" x2="0" y2="15.118110236220472" stroke="black" />
        <circle cx="0" cy="18.89763779527559" r="3.779527559055118" stroke="black" fill="none" />
      </g>
      <g transform="rotate(72.0) translate(0 -188.9763779527559)">
        <line x1="0" y1="0" x2="0" y2="15.118110236220472" stroke="black" />
        <circle cx="0" cy="18.89763779527559" r="3.779527559055118" stroke="black" fill="none" />
      </g>
      <g transform="rotate(79.2) translate(0 -188.9763779527559)">
        <line x1="0" y1="0" x2="0" y2="15.118110236220472" stroke="black" />
        <circle cx="0" cy="18.89763779527559" r="3.779527559055118" stroke="black" fill="none" />
      </g>
      <g transform="rotate(86.4) translate(0 -188.9763779527559)">
        <line x1="0" y1="0" x2="0" y2="15.118110236220472" stroke="black" />
        <circle cx="0" cy="18.89763779527559" r="3.779527559055118" stroke="black" fill="none" />
      </g>
      <g transform="rotate(93.60000000000001) translate(0 -188.9763779527559)">
        <line x1="0" y1="0" x2="0" y2="15.118110236220472" stroke="black" />
        <circle cx="0" cy="18.89763779527559" r="3.779527559055118" stroke="black" fill="none" />
      </g>
      <g transform="rotate(100.8) translate(0 -188.9763779527559)">
        <line x1="0" y1="0" x2="0" y2="15.118110236220472" stroke="black" />
        <circle cx="0" cy="18.89763779527559" r="3.779527559055118" stroke="black" fill="none" />
      </g>
      <g transform="rotate(108.0) translate(0 -188.9763779527559)">
        <line x1="0" y1="0" x2="0" y2="15.118110236220472" stroke="black" />
        <circle cx="0" cy="18.89763779527559" r="3.779527559055118" stroke="black" fill="none" />
      </g>
      <g transform="rotate(115.2) translate(0 -188.9763779527559)">
        <line x1="0" y1="0" x2="0" y2="15.118110236220472" stroke="black" />
        <circle cx="0" cy="18.89763779527559" r="3.779527559055118" stroke="black" fill="none" />
      </g>
      <g transform="rotate(122.4) translate(0 -188.9763779527559)">
        <line x1="0" y1="0" x2="0" y2="15.118110236220472" stroke="black" />
        <circle cx="0" cy="18.89763779527559" r="3.779527559055118" stroke="black" fill="none" />
      </g>
      <g transform="rotate(129.6) translate(0 -188.9763779527559)">
        <line x1="0" y1="0" x2="0" y2="15.118110236220472" stroke="black" />
        <circle cx="0" cy="18.89763779527559" r="3.779527559055118" stroke="black" fill="none" />
      </g>
      <g transform="rotate(136.8) translate(0 -188.9763779527559)">
        <line x1="0" y1="0" x2="0" y2="15.118110236220472" stroke="black" />
        <circle cx="0" cy="18.89763779527559" r="3.779527559055118" stroke="black" fill="none" />
      </g>
      <g transform="rotate(144.0) translate(0 -188.9763779527559)">
        <line x1="0" y1="0" x2="0" y2="15.118110236220472" stroke="black" />
        <circle cx="0" cy="18.89763779527559" r="3.779527559055118" stroke="black" fill="none" />
      </g>
      <g transform="rotate(151.20000000000002) translate(0 -188.9763779527559)">
        <line x1="0" y1="0" x2="0" y2="15.118110236220472" stroke="black" />
        <circle cx="0" cy="18.89763779527559" r="3.779527559055118" stroke="black" fill="none" />
      </g>
      <g transform="rotate(158.4) translate(0 -188.9763779527559)">
        <line x1="0" y1="0" x2="0" y2="15.118110236220472" stroke="black" />
        <circle cx="0" cy="18.89763779527559" r="3.779527559055118" stroke="black" fill="none" />
      </g>
      <g transform="rotate(165.6) translate(0 -188.9763779527559)">
        <line x1="0" y1="0" x2="0" y2="15.118110236220472" stroke="black" />
        <circle cx="0" cy="18.89763779527559" r="3.779527559055118" stroke="black" fill="none" />
      </g>
      <g transform="rotate(172.8) translate(0 -188.9763779527559)">
        <line x1="0" y1="0" x2="0" y2="15.118110236220472" stroke="black" />
        <circle cx="0" cy="18.89763779527559" r="3.779527559055118" stroke="black" fill="none" />
      </g>
      <g transform="rotate(180.0) translate(0 -188.9763779527559)">
        <line x1="0" y1="0" x2="0" y2="15.118110236220472" stroke="black" />
        <circle cx="0" cy="18.89763779527559" r="3.779527559055118" stroke="black" fill="none" />
      </g>
      <g transform="rotate(187.20000000000002) translate(0 -188.9763779527559)">
        <line x1="0" y1="0" x2="0" y2="15.118110236220472" stroke="black" />
        <circle cx="0" cy="18.89763779527559" r="3.779527559055118" stroke="black" fill="none" />
      </g>
      <g transform="rotate(194.4) translate(0 -188.9763779527559)">
        <line x1="0" y1="0" x2="0" y2="15.118110236220472" stroke="black" />
        <circle cx="0" cy="18.89763779527559" r="3.779527559055118" stroke="black" fill="none" />
      </g>
      <g transform="rotate(201.6) translate(0 -188.9763779527559)">
        <line x1="0" y1="0" x2="0" y2="15.118110236220472" stroke="black" />
        <circle cx="0" cy="18.89763779527559" r="3.779527559055118" stroke="black" fill="none" />
      </g>
      <g transform="rotate(208.8) translate(0 -188.9763779527559)">
        <line x1="0" y1="0" x2="0" y2="15.118110236220472" stroke="black" />
        <circle cx="0" cy="18.89763779527559" r="3.779527559055118" stroke="black" fill="none" />
      </g>
      <g transform="rotate(216.0) translate(0 -188.9763779527559)">
        <line x1="0" y1="0" x2="0" y2="15.118110236220472" stroke="black" />
        <circle cx="0" cy="18.89763779527559" r="3.779527559055118" stroke="black" fill="none" />
      </g>
      <g transform="rotate(223.20000000000002) translate(0 -188.9763779527559)">
        <line x1="0" y1="0" x2="0" y2="15.118110236220472" stroke="black" />
        <circle cx="0" cy="18.89763779527559" r="3.779527559055118" stroke="black" fill="none" />
      </g>
      <g transform="rotate(230.4) translate(0 -188.9763779527559)">
        <line x1="0" y1="0" x2="0" y2="15.118110236220472" stroke="black" />
        <circle cx="0" cy="18.89763779527559" r="3.779527559055118" stroke="black" fill="none" />
      </g>
      <g transform="rotate(237.6) translate(0 -188.9763779527559)">
        <line x1="0" y1="0" x2="0" y2="15.118110236220472" stroke="black" />
        <circle cx="0" cy="18.89763779527559" r="3.779527559055118" stroke="black" fill="none" />
      </g>
      <g transform="rotate(244.8) translate(0 -188.9763779527559)">
        <line x1="0" y1="0" x2="0" y2="15.118110236220472" stroke="black" />
        <circle cx="0" cy="18.89763779527559" r="3.779527559055118" stroke="black" fill="none" />
      </g>
      <g transform="rotate(252.0) translate(0 -188.9763779527559)">
        <line x1="0" y1="0" x2="0" y2="15.118110236220472" stroke="black" />
        <circle cx="0" cy="18.89763779527559" r="3.779527559055118" stroke="black" fill="none" />
      </g>
      <g transform="rotate(259.2) translate(0 -188.9763779527559)">
        <line x1="0" y1="0" x2="0" y2="15.118110236220472" stroke="black" />
        <circle cx="0" cy="18.89763779527559" r="3.779527559055118" stroke="black" fill="none" />
      </g>
      <g transform="rotate(266.40000000000003) translate(0 -188.9763779527559)">
        <line x1="0" y1="0" x2="0" y2="15.118110236220472" stroke="black" />
        <circle cx="0" cy="18.89763779527559" r="3.779527559055118" stroke="black" fill="none" />
      </g>
      <g transform="rotate(273.6) translate(0 -188.9763779527559)">
        <line x1="0" y1="0" x2="0" y2="15.118110236220472" stroke="black" />
        <circle cx="0" cy="18.89763779527559" r="3.779527559055118" stroke="black" fill="none" />
      </g>
      <g transform="rotate(280.8) translate(0 -188.9763779527559)">
        <line x1="0" y1="0" x2="0" y2="15.118110236220472" stroke="black" />
        <circle cx="0" cy="18.89763779527559" r="3.779527559055118" stroke="black" fill="none" />
      </g>
      <g transform="rotate(288.0) translate(0 -188.9763779527559)">
        <line x1="0" y1="0" x2="0" y2="15.118110236220472" stroke="black" />
        <circle cx="0" cy="18.89763779527559" r="3.779527559055118" stroke="black" fill="none" />
      </g>
      <g transform="rotate(295.2) translate(0 -188.9763779527559)">
        <line x1="0" y1="0" x2="0" y2="15.118110236220472" stroke="black" />
        <circle cx="0" cy="18.89763779527559" r="3.779527559055118" stroke="black" fill="none" />
      </g>
      <g transform="rotate(302.40000000000003) translate(0 -188.9763779527559)">
        <line x1="0" y1="0" x2="0" y2="15.118110236220472" stroke="black" />
        <circle cx="0" cy="18.89763779527559" r="3.779527559055118" stroke="black" fill="none" />
      </g>
      <g transform="rotate(309.6) translate(0 -188.9763779527559)">
        <line x1="0" y1="0" x2="0" y2="15.118110236220472" stroke="black" />
        <circle cx="0" cy="18.89763779527559" r="3.779527559055118" stroke="black" fill="none" />
      </g>
      <g transform="rotate(316.8) translate(0 -188.9763779527559)">
        <line x1="0" y1="0" x2="0" y2="15.118110236220472" stroke="black" />
        <circle cx="0" cy="18.89763779527559" r="3.779527559055118" stroke="black" fill="none" />
      </g>
      <g transform="rotate(324.0) translate(0 -188.9763779527559)">
        <line x1="0" y1="0" x2="0" y2="15.118110236220472" stroke="black" />
        <circle cx="0" cy="18.89763779527559" r="3.779527559055118" stroke="black" fill="none" />
      </g>
      <g transform="rotate(331.2) translate(0 -188.9763779527559)">
        <line x1="0" y1="0" x2="0" y2="15.118110236220472" stroke="black" />
        <circle cx="0" cy="18.89763779527559" r="3.779527559055118" stroke="black" fill="none" />
      </g>
      <g transform="rotate(338.40000000000003) translate(0 -188.9763779527559)">
        <line x1="0" y1="0" x2="0" y2="15.118110236220472" stroke="black" />
        <circle cx="0" cy="18.89763779527559" r="3.779527559055118" stroke="black" fill="none" />
      </g>
      <g transform="rotate(345.6) translate(0 -188.9763779527559)">
        <line x1="0" y1="0" x2="0" y2="15.118110236220472" stroke="black" />
        <circle cx="0" cy="18.89763779527559" r="3.779527559055118" stroke="black" fill="none" />
      </g>
      <g transform="rotate(352.8) translate(0 -188.9763779527559)">
        <line x1="0" y1="0" x2="0" y2="15.118110236220472" stroke="black" />
        <circle cx="0" cy="18.89763779527559" r="3.779527559055118" stroke="black" fill="none" />
      </g>
    </g>
  </g>
</g>
</svg>
