<svg width="300" height="300" viewBox="-150 -150 300 300" fill="none" stroke="black" xmlns="http://www.w3.org/2000/svg" xmlns:xlink="http://www.w3.org/1999/xlink">
<g transform="scale(1 -1)">
  <g transform="scale(1 -1)">
    <circle cx="0" cy="0" r="188.9763779527559" stroke="red" fill="none" />
    <g>
      <circle cx="0" cy="151.18110236220474" r="3.779527559055118" stroke="black" fill="none" transform="rotate(0.0)" />
      <circle cx="0" cy="151.18110236220474" r="3.779527559055118" stroke="black" fill="none" transform="rotate(7.2)" />
      <circle cx="0" cy="151.18110236220474" r="3.779527559055118" stroke="black" fill="none" transform="rotate(14.4)" />
      <circle cx="0" cy="151.18110236220474" r="3.779527559055118" stroke="black" fill="none" transform="rotate(21.6)" />
      <circle cx="0" cy="151.18110236220474" r="3.779527559055118" stroke="black" fill="none" transform="rotate(28.8)" />
      <circle cx="0" cy="151.18110236220474" r="3.779527559055118" stroke="black" fill="none" transform="rotate(36.0)" />
      <circle cx="0" cy="151.18110236220474" r="3.779527559055118" stroke="black" fill="none" transform="rotate(43.2)" />
      <circle cx="0" cy="151.18110236220474" r="3.779527559055118" stroke="black" fill="none" transform="rotate(50.4)" />
      <circle cx="0" cy="151.18110236220474" r="3.779527559055118" stroke="black" fill="none" transform="rotate(57.6)" />
      <circle cx="0" cy="151.18110236220474" r="3.779527559055118" stroke="black" fill="none" transform="rotate(64.8)" />
      <circle cx="0" cy="151.18110236220474" r="3.779527559055118" stroke="black" fill="none" transform="rotate(72.0)" />
      <circle cx="0" cy="151.18110236220474" r="3.779527559055118" stroke="black" fill="none" transform="rotate(79.2)" />
      <circle cx="0" cy="151.18110236220474" r="3.779527559055118" stroke="black" fill="none" transform="rotate(86.4)" />
      <circle cx="0" cy="151.18110236220474" r="3.779527559055118" stroke="black" fill="none" transform="rotate(93.60000000000001)" />
      <circle cx="0" cy="151.18110236220474" r="3.779527559055118" stroke="black" fill="none" transform="rotate(100.8)" />
      <circle cx="0" cy="151.18110236220474" r="3.779527559055118" stroke="black" fill="none" transform="rotate(108.0)" />
      <circle cx="0" cy="151.18110236220474" r="3.779527559055118" stroke="black" fill="none" transform="rotate(115.2)" />
      <circle cx="0" cy="151.18110236220474" r="3.779527559055118" stroke="black" fill="none" transform="rotate(122.4)" />
      <circle cx="0" cy="151.18110236220474" r="3.779527559055118" stroke="black" fill="none" transform="rotate(129.6)" />
      <circle cx="0" cy="151.18110236220474" r="3.779527559055118" stroke="black" fill="none" transform="rotate(136.8)" />
      <circle cx="0" cy="151.18110236220474" r="3.779527559055118" stroke="black" fill="none" transform="rotate(144.0)" />
      <circle cx="0" cy="151.18110236220474" r="3.779527559055118" stroke="black" fill="none" transform="rotate(151.20000000000002)" />
      <circle cx="0" cy="151.18110236220474" r="3.779527559055118" stroke="black" fill="none" transform="rotate(158.4)" />
      <circle cx="0" cy="151.18110236220474" r="3.779527559055118" stroke="black" fill="none" transform="rotate(165.6)" />
      <circle cx="0" cy="151.18110236220474" r="3.779527559055118" stroke="black" fill="none" transform="rotate(172.8)" />
      <circle cx="0" cy="151.18110236220474" r="3.779527559055118" stroke="black" fill="none" transform="rotate(180.0)" />
      <circle cx="0" cy="151.18110236220474" r="3.779527559055118" stroke="black" fill="none" transform="rotate(187.20000000000002)" />
      <circle cx="0" cy="151.18110236220474" r="3.779527559055118" stroke="black" fill="none" transform="rotate(194.4)" />
      <circle cx="0" cy="151.18110236220474" r="3.779527559055118" stroke="black" fill="none" transform="rotate(201.6)" />
      <circle cx="0" cy="151.18110236220474" r="3.779527559055118" stroke="black" fill="none" transform="rotate(208.8)" />
      <circle cx="0" cy="151.18110236220474" r="3.779527559055118" stroke="black" fill="none" transform="rotate(216.0)" />
      <circle cx="0" cy="151.18110236220474" r="3.779527559055118" stroke="black" fill="none" transform="rotate(223.20000000000002)" />
      <circle cx="0" cy="151.18110236220474" r="3.779527559055118" stroke="black" fill="none" transform="rotate(230.4)" />
      <circle cx="0" cy="151.18110236220474" r="3.779527559055118" stroke="black" fill="none" transform="rotate(237.6)" />
      <circle cx="0" cy="151.18110236220474" r="3.779527559055118" stroke="black" fill="none" transform="rotate(244.8)" />
      <circle cx="0" cy="151.18110236220474" r="3.779527559055118" stroke="black" fill="none" transform="rotate(252.0)" />
      <circle cx="0" cy="151.18110236220474" r="3.779527559055118" stroke="black" fill="none" transform="rotate(259.2)" />
      <circle cx="0" cy="151.18110236220474" r="3.779527559055118" stroke="black" fill="none" transform="rotate(266.40000000000003)" />
      <circle cx="0" cy="151.18110236220474" r="3.779527559055118" stroke="black" fill="none" transform="rotate(273.6)" />
      <circle cx="0" cy="151.18110236220474" r="3.779527559055118" stroke="black" fill="none" transform="rotate(280.8)" />
      <circle cx="0" cy="151.18110236220474" r="3.779527559055118" stroke="black" fill="none" transform="rotate(288.0)" />
      <circle cx="0" cy="151.18110236220474" r="3.779527559055118" stroke="black" fill="none" transform="rotate(295.2)" />
      <circle cx="0" cy="151.18110236220474" r="3.779527559055118" stroke="black" fill="none" transform="rotate(302.40000000000003)" />
      <circle cx="0" cy="151.18110236220474" r="3.779527559055118" stroke="black" fill="none" transform="rotate(309.6)" />
      <circle cx="0" cy="151.18110236220474" r="3.779527559055118" stroke="black" fill="none" transform="rotate(316.8)" />
      <circle cx="0" cy="151.18110236220474" r="3.779527559055118" stroke="black" fill="none" transform="rotate(324.0)" />
      <circle cx="0" cy="151.18110236220474" r="3.779527559055118" stroke="black" fill="none" transform="rotate(331.2)" />
      <circle cx="0" cy="151.18110236220474" r="3.779527559055118" stroke="black" fill="none" transform="rotate(338.40000000000003)" />
      <circle cx="0" cy="151.18110236220474" r="3.779527559055118" stroke="black" fill="none" transform="rotate(345.6)" />
      <circle cx="0" cy="151.18110236220474" r="3.779527559055118" stroke="black" fill="none" transform="rotate(352.8)" />
    </g>
    <g>
      <line x1="0" y1="188.9763779527559" x2="0" y2="173.85826771653544" stroke="black" transform="rotate(0.0)" />
      <line x1="0" y1="188.9763779527559" x2="0" y2="173.85826771653544" stroke="black" transform="rotate(7.2)" />
      <line x1="0" y1="188.9763779527559" x2="0" y2="173.85826771653544" stroke="black" transform="rotate(14.4)" />
      <line x1="0" y1="188.9763779527559" x2="0" y2="173.85826771653544" stroke="black" transform="rotate(21.6)" />
      <line x1="0" y1="188.9763779527559" x2="0" y2="173.85826771653544" stroke="black" transform="rotate(28.8)" />
      <line x1="0" y1="188.9763779527559" x2="0" y2="173.85826771653544" stroke="black" transform="rotate(36.0)" />
      <line x1="0" y1="188.9763779527559" x2="0" y2="173.85826771653544" stroke="black" transform="rotate(43.2)" />
      <line x1="0" y1="188.9763779527559" x2="0" y2="173.85826771653544" stroke="black" transform="rotate(50.4)" />
      <line x1="0" y1="188.9763779527559" x2="0" y2="173.85826771653544" stroke="black" transform="rotate(57.6)" />
      <line x1="0" y1="188.9763779527559" x2="0" y2="173.85826771653544" stroke="black" transform="rotate(64.8)" />
      <line x1="0" y1="188.9763779527559" x2="0" y2="173.85826771653544" stroke="black" transform="rotate(72.0)" />
      <line x1="0" y1="188.9763779527559" x2="0" y2="173.85826771653544" stroke="black" transform="rotate(79.2)" />
      <line x1="0" y1="188.9763779527559" x2="0" y2="173.85826771653544" stroke="black" transform="rotate(86.4)" />
      <line x1="0" y1="188.9763779527559" x2="0" y2="173.85826771653544" stroke="black" transform="rotate(93.60000000000001)" />
      <line x1="0" y1="188.9763779527559" x2="0" y2="173.85826771653544" stroke="black" transform="rotate(100.8)" />
      <line x1="0" y1="188.9763779527559" x2="0" y2="173.85826771653544" stroke="black" transform="rotate(108.0)" />
      <line x1="0" y1="188.9763779527559" x2="0" y2="173.85826771653544" stroke="black" transform="rotate(115.2)" />
      <line x1="0" y1="188.9763779527559" x2="0" y2="173.85826771653544" stroke="black" transform="rotate(122.4)" />
      <line x1="0" y1="188.9763779527559" x2="0" y2="173.85826771653544" stroke="black" transform="rotate(129.6)" />
      <line x1="0" y1="188.9763779527559" x2="0" y2="173.85826771653544" stroke="black" transform="rotate(136.8)" />
      <line x1="0" y1="188.9763779527559" x2="0" y2="173.85826771653544" stroke="black" transform="rotate(144.0)" />
      <line x1="0" y1="188.9763779527559" x2="0" y2="173.85826771653544" stroke="black" transform="rotate(151.20000000000002)" />
      <line x1="0" y1="188.9763779527559" x2="0" y2="173.85826771653544" stroke="black" transform="rotate(158.4)" />
      <line x1="0" y1="188.9763779527559" x2="0" y2="173.85826771653544" stroke="black" transform="rotate(165.6)" />
      <line x1="0" y1="188.9763779527559" x2="0" y2="173.85826771653544" stroke="black" transform="rotate(172.8)" />
      <line x1="0" y1="188.9763779527559" x2="0" y2="173.85826771653544" stroke="black" transform="rotate(180.0)" />
      <line x1="0" y1="188.9763779527559" x2="0" y2="173.85826771653544" stroke="black" transform="rotate(187.20000000000002)" />
      <line x1="0" y1="188.9763779527559" x2="0" y2="173.85826771653544" stroke="black" transform="rotate(194.4)" />
      <line x1="0" y1="188.9763779527559" x2="0" y2="173.85826771653544" stroke="black" transform="rotate(201.6)" />
      <line x1="0" y1="188.9763779527559" x2="0" y2="173.85826771653544" stroke="black" transform="rotate(208.8)" />
      <line x1="0" y1="188.9763779527559" x2="0" y2="173.85826771653544" stroke="black" transform="rotate(216.0)" />
      <line x1="0" y1="188.9763779527559" x2="0" y2="173.85826771653544" stroke="black" transform="rotate(223.20000000000002)" />
      <line x1="0" y1="188.9763779527559" x2="0" y2="173.85826771653544" stroke="black" transform="rotate(230.4)" />
      <line x1="0" y1="188.9763779527559" x2="0" y2="173.85826771653544" stroke="black" transform="rotate(237.6)" />
      <line x1="0" y1="188.9763779527559" x2="0" y2="173.85826771653544" stroke="black" transform="rotate(244.8)" />
      <line x1="0" y1="188.9763779527559" x2="0" y2="173.85826771653544" stroke="black" transform="rotate(252.0)" />
      <line x1="0" y1="188.9763779527559" x2="0" y2="173.85826771653544" stroke="black" transform="rotate(259.2)" />
      <line x1="0" y1="188.9763779527559" x2="0" y2="173.85826771653544" stroke="black" transform="rotate(266.40000000000003)" />
      <line x1="0" y1="188.9763779527559" x2="0" y2="173.85826771653544" stroke="black" transform="rotate(273.6)" />
      <line x1="0" y1="188.9763779527559" x2="0" y2="173.85826771653544" stroke="black" transform="rotate(280.8)" />
      <line x1="0" y1="188.9763779527559" x2="0" y2="173.85826771653544" stroke="black" transform="rotate(288.0)" />
      <line x1="0" y1="188.9763779527559" x2="0" y2="173.85826771653544" stroke="black" transform="rotate(295.2)" />
      <line x1="0" y1="188.9763779527559" x2="0" y2="173.85826771653544" stroke="black" transform="rotate(302.40000000000003)" />
      <line x1="0" y1="188.9763779527559" x2="0" y2="173.85826771653544" stroke="black" transform="rotate(309.6)" />
      <line x1="0" y1="188.9763779527559" x2="0" y2="173.85826771653544" stroke="black" transform="rotate(316.8)" />
      <line x1="0" y1="188.9763779527559" x2="0" y2="173.85826771653544" stroke="black" transform="rotate(324.0)" />
      <line x1="0" y1="188.9763779527559" x2="0" y2="173.85826771653544" stroke="black" transform="rotate(331.2)" />
      <line x1="0" y1="188.9763779527559" x2="0" y2="173.85826771653544" stroke="black" transform="rotate(338.40000000000003)" />
      <line x1="0" y1="188.9763779527559" x2="0" y2="173.85826771653544" stroke="black" transform="rotate(345.6)" />
      <line x1="0" y1="188.9763779527559" x2="0" y2="173.85826771653544" stroke="black" transform="rotate(352.8)" />
    </g>
  </g>
</g>
</svg>
