<svg width="300" height="300" viewBox="-150 -150 300 300" fill="none" stroke="black" xmlns="http://www.w3.org/2000/svg" xmlns:xlink="http://www.w3.org/1999/xlink">
<g transform="scale(1 -1)">
  <g transform="scale(1 -1)">
    <circle cx="0" cy="0" r="226.77165354330708" stroke="red" fill="none" />
    <g>
      <g transform="rotate(0.0) translate(0 -226.77165354330708)">
        <line x1="0" y1="0" x2="0" y2="15.118110236220472" stroke="black" />
        <circle cx="0" cy="18.89763779527559" r="3.779527559055118" stroke="black" fill="none" />
      </g>
      <g transform="rotate(6.0) translate(0 -226.77165354330708)">
        <line x1="0" y1="0" x2="0" y2="15.118110236220472" stroke="black" />
        <circle cx="0" cy="18.89763779527559" r="3.779527559055118" stroke="black" fill="none" />
      </g>
      <g transform="rotate(12.0) translate(0 -226.77165354330708)">
        <line x1="0" y1="0" x2="0" y2="15.118110236220472" stroke="black" />
        <circle cx="0" cy="18.89763779527559" r="3.779527559055118" stroke="black" fill="none" />
      </g>
      <g transform="rotate(18.0) translate(0 -226.77165354330708)">
        <line x1="0" y1="0" x2="0" y2="15.118110236220472" stroke="black" />
        <circle cx="0" cy="18.89763779527559" r="3.779527559055118" stroke="black" fill="none" />
      </g>
      <g transform="rotate(24.0) translate(0 -226.77165354330708)">
        <line x1="0" y1="0" x2="0" y2="15.118110236220472" stroke="black" />
        <circle cx="0" cy="18.89763779527559" r="3.779527559055118" stroke="black" fill="none" />
      </g>
      <g transform="rotate(30.0) translate(0 -226.77165354330708)">
        <line x1="0" y1="0" x2="0" y2="15.118110236220472" stroke="black" />
        <circle cx="0" cy="18.89763779527559" r="3.779527559055118" stroke="black" fill="none" />
      </g>
      <g transform="rotate(36.0) translate(0 -226.77165354330708)">
        <line x1="0" y1="0" x2="0" y2="15.118110236220472" stroke="black" />
        <circle cx="0" cy="18.89763779527559" r="3.779527559055118" stroke="black" fill="none" />
      </g>
      <g transform="rotate(42.0) translate(0 -226.77165354330708)">
        <line x1="0" y1="0" x2="0" y2="15.118110236220472" stroke="black" />
        <circle cx="0" cy="18.89763779527559" r="3.779527559055118" stroke="black" fill="none" />
      </g>
      <g transform="rotate(48.0) translate(0 -226.77165354330708)">
        <line x1="0" y1="0" x2="0" y2="15.118110236220472" stroke="black" />
        <circle cx="0" cy="18.89763779527559" r="3.779527559055118" stroke="black" fill="none" />
      </g>
      <g transform="rotate(54.0) translate(0 -226.77165354330708)">
        <line x1="0" y1="0" x2="0" y2="15.118110236220472" stroke="black" />
        <circle cx="0" cy="18.89763779527559" r="3.779527559055118" stroke="black" fill="none" />
      </g>
      <g transform="rotate(60.0) translate(0 -226.77165354330708)">
        <line x1="0" y1="0" x2="0" y2="15.118110236220472" stroke="black" />
        <circle cx="0" cy="18.89763779527559" r="3.779527559055118" stroke="black" fill="none" />
      </g>
      <g transform="rotate(66.0) translate(0 -226.77165354330708)">
        <line x1="0" y1="0" x2="0" y2="15.118110236220472" stroke="black" />
        <circle cx="0" cy="18.89763779527559" r="3.779527559055118" stroke="black" fill="none" />
      </g>
      <g transform="rotate(72.0) translate(0 -226.77165354330708)">
        <line x1="0" y1="0" x2="0" y2="15.118110236220472" stroke="black" />
        <circle cx="0" cy="18.89763779527559" r="3.779527559055118" stroke="black" fill="none" />
      </g>
      <g transform="rotate(78.0) translate(0 -226.77165354330708)">
        <line x1="0" y1="0" x2="0" y2="15.118110236220472" stroke="black" />
        <circle cx="0" cy="18.89763779527559" r="3.779527559055118" stroke="black" fill="none" />
      </g>
      <g transform="rotate(84.0) translate(0 -226.77165354330708)">
        <line x1="0" y1="0" x2="0" y2="15.118110236220472" stroke="black" />
        <circle cx="0" cy="18.89763779527559" r="3.779527559055118" stroke="black" fill="none" />
      </g>
      <g transform="rotate(90.0) translate(0 -226.77165354330708)">
        <line x1="0" y1="0" x2="0" y2="15.118110236220472" stroke="black" />
        <circle cx="0" cy="18.89763779527559" r="3.779527559055118" stroke="black" fill="none" />
      </g>
      <g transform="rotate(96.0) translate(0 -226.77165354330708)">
        <line x1="0" y1="0" x2="0" y2="15.118110236220472" stroke="black" />
        <circle cx="0" cy="18.89763779527559" r="3.779527559055118" stroke="black" fill="none" />
      </g>
      <g transform="rotate(102.0) translate(0 -226.77165354330708)">
        <line x1="0" y1="0" x2="0" y2="15.118110236220472" stroke="black" />
        <circle cx="0" cy="18.89763779527559" r="3.779527559055118" stroke="black" fill="none" />
      </g>
      <g transform="rotate(108.0) translate(0 -226.77165354330708)">
        <line x1="0" y1="0" x2="0" y2="15.118110236220472" stroke="black" />
        <circle cx="0" cy="18.89763779527559" r="3.779527559055118" stroke="black" fill="none" />
      </g>
      <g transform="rotate(114.0) translate(0 -226.77165354330708)">
        <line x1="0" y1="0" x2="0" y2="15.118110236220472" stroke="black" />
        <circle cx="0" cy="18.89763779527559" r="3.779527559055118" stroke="black" fill="none" />
      </g>
      <g transform="rotate(120.0) translate(0 -226.77165354330708)">
        <line x1="0" y1="0" x2="0" y2="15.118110236220472" stroke="black" />
        <circle cx="0" cy="18.89763779527559" r="3.779527559055118" stroke="black" fill="none" />
      </g>
      <g transform="rotate(126.0) translate(0 -226.77165354330708)">
        <line x1="0" y1="0" x2="0" y2="15.118110236220472" stroke="black" />
        <circle cx="0" cy="18.89763779527559" r="3.779527559055118" stroke="black" fill="none" />
      </g>
      <g transform="rotate(132.0) translate(0 -226.77165354330708)">
        <line x1="0" y1="0" x2="0" y2="15.118110236220472" stroke="black" />
        <circle cx="0" cy="18.89763779527559" r="3.779527559055118" stroke="black" fill="none" />
      </g>
      <g transform="rotate(138.0) translate(0 -226.77165354330708)">
        <line x1="0" y1="0" x2="0" y2="15.118110236220472" stroke="black" />
        <circle cx="0" cy="18.89763779527559" r="3.779527559055118" stroke="black" fill="none" />
      </g>
      <g transform="rotate(144.0) translate(0 -226.77165354330708)">
        <line x1="0" y1="0" x2="0" y2="15.118110236220472" stroke="black" />
        <circle cx="0" cy="18.89763779527559" r="3.779527559055118" stroke="black" fill="none" />
      </g>
      <g transform="rotate(150.0) translate(0 -226.77165354330708)">
        <line x1="0" y1="0" x2="0" y2="15.118110236220472" stroke="black" />
        <circle cx="0" cy="18.89763779527559" r="3.779527559055118" stroke="black" fill="none" />
      </g>
      <g transform="rotate(156.0) translate(0 -226.77165354330708)">
        <line x1="0" y1="0" x2="0" y2="15.118110236220472" stroke="black" />
        <circle cx="0" cy="18.89763779527559" r="3.779527559055118" stroke="black" fill="none" />
      </g>
      <g transform="rotate(162.0) translate(0 -226.77165354330708)">
        <line x1="0" y1="0" x2="0" y2="15.118110236220472" stroke="black" />
        <circle cx="0" cy="18.89763779527559" r="3.779527559055118" stroke="black" fill="none" />
      </g>
      <g transform="rotate(168.0) translate(0 -226.77165354330708)">
        <line x1="0" y1="0" x2="0" y2="15.118110236220472" stroke="black" />
        <circle cx="0" cy="18.89763779527559" r="3.779527559055118" stroke="black" fill="none" />
      </g>
      <g transform="rotate(174.0) translate(0 -226.77165354330708)">
        <line x1="0" y1="0" x2="0" y2="15.118110236220472" stroke="black" />
        <circle cx="0" cy="18.89763779527559" r="3.779527559055118" stroke="black" fill="none" />
      </g>
      <g transform="rotate(180.0) translate(0 -226.77165354330708)">
        <line x1="0" y1="0" x2="0" y2="15.118110236220472" stroke="black" />
        <circle cx="0" cy="18.89763779527559" r="3.779527559055118" stroke="black" fill="none" />
      </g>
      <g transform="rotate(186.0) translate(0 -226.77165354330708)">
        <line x1="0" y1="0" x2="0" y2="15.118110236220472" stroke="black" />
        <circle cx="0" cy="18.89763779527559" r="3.779527559055118" stroke="black" fill="none" />
      </g>
      <g transform="rotate(192.0) translate(0 -226.77165354330708)">
        <line x1="0" y1="0" x2="0" y2="15.118110236220472" stroke="black" />
        <circle cx="0" cy="18.89763779527559" r="3.779527559055118" stroke="black" fill="none" />
      </g>
      <g transform="rotate(198.0) translate(0 -226.77165354330708)">
        <line x1="0" y1="0" x2="0" y2="15.118110236220472" stroke="black" />
        <circle cx="0" cy="18.89763779527559" r="3.779527559055118" stroke="black" fill="none" />
      </g>
      <g transform="rotate(204.0) translate(0 -226.77165354330708)">
        <line x1="0" y1="0" x2="0" y2="15.118110236220472" stroke="black" />
        <circle cx="0" cy="18.89763779527559" r="3.779527559055118" stroke="black" fill="none" />
      </g>
      <g transform="rotate(210.0) translate(0 -226.77165354330708)">
        <line x1="0" y1="0" x2="0" y2="15.118110236220472" stroke="black" />
        <circle cx="0" cy="18.89763779527559" r="3.779527559055118" stroke="black" fill="none" />
      </g>
      <g transform="rotate(216.0) translate(0 -226.77165354330708)">
        <line x1="0" y1="0" x2="0" y2="15.118110236220472" stroke="black" />
        <circle cx="0" cy="18.89763779527559" r="3.779527559055118" stroke="black" fill="none" />
      </g>
      <g transform="rotate(222.0) translate(0 -226.77165354330708)">
        <line x1="0" y1="0" x2="0" y2="15.118110236220472" stroke="black" />
        <circle cx="0" cy="18.89763779527559" r="3.779527559055118" stroke="black" fill="none" />
      </g>
      <g transform="rotate(228.0) translate(0 -226.77165354330708)">
        <line x1="0" y1="0" x2="0" y2="15.118110236220472" stroke="black" />
        <circle cx="0" cy="18.89763779527559" r="3.779527559055118" stroke="black" fill="none" />
      </g>
      <g transform="rotate(234.0) translate(0 -226.77165354330708)">
        <line x1="0" y1="0" x2="0" y2="15.118110236220472" stroke="black" />
        <circle cx="0" cy="18.89763779527559" r="3.779527559055118" stroke="black" fill="none" />
      </g>
      <g transform="rotate(240.0) translate(0 -226.77165354330708)">
        <line x1="0" y1="0" x2="0" y2="15.118110236220472" stroke="black" />
        <circle cx="0" cy="18.89763779527559" r="3.779527559055118" stroke="black" fill="none" />
      </g>
      <g transform="rotate(246.0) translate(0 -226.77165354330708)">
        <line x1="0" y1="0" x2="0" y2="15.118110236220472" stroke="black" />
        <circle cx="0" cy="18.89763779527559" r="3.779527559055118" stroke="black" fill="none" />
      </g>
      <g transform="rotate(252.0) translate(0 -226.77165354330708)">
        <line x1="0" y1="0" x2="0" y2="15.118110236220472" stroke="black" />
        <circle cx="0" cy="18.89763779527559" r="3.779527559055118" stroke="black" fill="none" />
      </g>
      <g transform="rotate(258.0) translate(0 -226.77165354330708)">
        <line x1="0" y1="0" x2="0" y2="15.118110236220472" stroke="black" />
        <circle cx="0" cy="18.89763779527559" r="3.779527559055118" stroke="black" fill="none" />
      </g>
      <g transform="rotate(264.0) translate(0 -226.77165354330708)">
        <line x1="0" y1="0" x2="0" y2="15.118110236220472" stroke="black" />
        <circle cx="0" cy="18.89763779527559" r="3.779527559055118" stroke="black" fill="none" />
      </g>
      <g transform="rotate(270.0) translate(0 -226.77165354330708)">
        <line x1="0" y1="0" x2="0" y2="15.118110236220472" stroke="black" />
        <circle cx="0" cy="18.89763779527559" r="3.779527559055118" stroke="black" fill="none" />
      </g>
      <g transform="rotate(276.0) translate(0 -226.77165354330708)">
        <line x1="0" y1="0" x2="0" y2="15.118110236220472" stroke="black" />
        <circle cx="0" cy="18.89763779527559" r="3.779527559055118" stroke="black" fill="none" />
      </g>
      <g transform="rotate(282.0) translate(0 -226.77165354330708)">
        <line x1="0" y1="0" x2="0" y2="15.118110236220472" stroke="black" />
        <circle cx="0" cy="18.89763779527559" r="3.779527559055118" stroke="black" fill="none" />
      </g>
      <g transform="rotate(288.0) translate(0 -226.77165354330708)">
        <line x1="0" y1="0" x2="0" y2="15.118110236220472" stroke="black" />
        <circle cx="0" cy="18.89763779527559" r="3.779527559055118" stroke="black" fill="none" />
      </g>
      <g transform="rotate(294.0) translate(0 -226.77165354330708)">
        <line x1="0" y1="0" x2="0" y2="15.118110236220472" stroke="black" />
        <circle cx="0" cy="18.89763779527559" r="3.779527559055118" stroke="black" fill="none" />
      </g>
      <g transform="rotate(300.0) translate(0 -226.77165354330708)">
        <line x1="0" y1="0" x2="0" y2="15.118110236220472" stroke="black" />
        <circle cx="0" cy="18.89763779527559" r="3.779527559055118" stroke="black" fill="none" />
      </g>
      <g transform="rotate(306.0) translate(0 -226.77165354330708)">
        <line x1="0" y1="0" x2="0" y2="15.118110236220472" stroke="black" />
        <circle cx="0" cy="18.89763779527559" r="3.779527559055118" stroke="black" fill="none" />
      </g>
      <g transform="rotate(312.0) translate(0 -226.77165354330708)">
        <line x1="0" y1="0" x2="0" y2="15.118110236220472" stroke="black" />
        <circle cx="0" cy="18.89763779527559" r="3.779527559055118" stroke="black" fill="none" />
      </g>
      <g transform="rotate(318.0) translate(0 -226.77165354330708)">
        <line x1="0" y1="0" x2="0" y2="15.118110236220472" stroke="black" />
        <circle cx="0" cy="18.89763779527559" r="3.779527559055118" stroke="black" fill="none" />
      </g>
      <g transform="rotate(324.0) translate(0 -226.77165354330708)">
        <line x1="0" y1="0" x2="0" y2="15.118110236220472" stroke="black" />
        <circle cx="0" cy="18.89763779527559" r="3.779527559055118" stroke="black" fill="none" />
      </g>
      <g transform="rotate(330.0) translate(0 -226.77165354330708)">
        <line x1="0" y1="0" x2="0" y2="15.118110236220472" stroke="black" />
        <circle cx="0" cy="18.89763779527559" r="3.779527559055118" stroke="black" fill="none" />
      </g>
      <g transform="rotate(336.0) translate(0 -226.77165354330708)">
        <line x1="0" y1="0" x2="0" y2="15.118110236220472" stroke="black" />
        <circle cx="0" cy="18.89763779527559" r="3.779527559055118" stroke="black" fill="none" />
      </g>
      <g transform="rotate(342.0) translate(0 -226.77165354330708)">
        <line x1="0" y1="0" x2="0" y2="15.118110236220472" stroke="black" />
        <circle cx="0" cy="18.89763779527559" r="3.779527559055118" stroke="black" fill="none" />
      </g>
      <g transform="rotate(348.0) translate(0 -226.77165354330708)">
        <line x1="0" y1="0" x2="0" y2="15.118110236220472" stroke="black" />
        <circle cx="0" cy="18.89763779527559" r="3.779527559055118" stroke="black" fill="none" />
      </g>
      <g transform="rotate(354.0) translate(0 -226.77165354330708)">
        <line x1="0" y1="0" x2="0" y2="15.118110236220472" stroke="black" />
        <circle cx="0" cy="18.89763779527559" r="3.779527559055118" stroke="black" fill="none" />
      </g>
    </g>
  </g>
</g>
</svg>
