<svg width="300" height="300" viewBox="-150 -150 300 300" fill="none" stroke="black" xmlns="http://www.w3.org/2000/svg" xmlns:xlink="http://www.w3.org/1999/xlink">
<g transform="scale(1 -1)">
  <g transform="scale(1 -1)">
    <circle cx="0" cy="0" r="226.77165354330708" stroke="red" fill="none" />
    <g>
      <circle cx="207.8740157480315" cy="0" r="3.779527559055118" stroke="black" fill="none" transform="rotate(0.0)" />
      <circle cx="207.8740157480315" cy="0" r="3.779527559055118" stroke="black" fill="none" transform="rotate(6.0)" />
      <circle cx="207.8740157480315" cy="0" r="3.779527559055118" stroke="black" fill="none" transform="rotate(12.0)" />
      <circle cx="207.8740157480315" cy="0" r="3.779527559055118" stroke="black" fill="none" transform="rotate(18.0)" />
      <circle cx="207.8740157480315" cy="0" r="3.779527559055118" stroke="black" fill="none" transform="rotate(24.0)" />
      <circle cx="207.8740157480315" cy="0" r="3.779527559055118" stroke="black" fill="none" transform="rotate(30.0)" />
      <circle cx="207.8740157480315" cy="0" r="3.779527559055118" stroke="black" fill="none" transform="rotate(36.0)" />
      <circle cx="207.8740157480315" cy="0" r="3.779527559055118" stroke="black" fill="none" transform="rotate(42.0)" />
      <circle cx="207.8740157480315" cy="0" r="3.779527559055118" stroke="black" fill="none" transform="rotate(48.0)" />
      <circle cx="207.8740157480315" cy="0" r="3.779527559055118" stroke="black" fill="none" transform="rotate(54.0)" />
      <circle cx="207.8740157480315" cy="0" r="3.779527559055118" stroke="black" fill="none" transform="rotate(60.0)" />
      <circle cx="207.8740157480315" cy="0" r="3.779527559055118" stroke="black" fill="none" transform="rotate(66.0)" />
      <circle cx="207.8740157480315" cy="0" r="3.779527559055118" stroke="black" fill="none" transform="rotate(72.0)" />
      <circle cx="207.8740157480315" cy="0" r="3.779527559055118" stroke="black" fill="none" transform="rotate(78.0)" />
      <circle cx="207.8740157480315" cy="0" r="3.779527559055118" stroke="black" fill="none" transform="rotate(84.0)" />
      <circle cx="207.8740157480315" cy="0" r="3.779527559055118" stroke="black" fill="none" transform="rotate(90.0)" />
      <circle cx="207.8740157480315" cy="0" r="3.779527559055118" stroke="black" fill="none" transform="rotate(96.0)" />
      <circle cx="207.8740157480315" cy="0" r="3.779527559055118" stroke="black" fill="none" transform="rotate(102.0)" />
      <circle cx="207.8740157480315" cy="0" r="3.779527559055118" stroke="black" fill="none" transform="rotate(108.0)" />
      <circle cx="207.8740157480315" cy="0" r="3.779527559055118" stroke="black" fill="none" transform="rotate(114.0)" />
      <circle cx="207.8740157480315" cy="0" r="3.779527559055118" stroke="black" fill="none" transform="rotate(120.0)" />
      <circle cx="207.8740157480315" cy="0" r="3.779527559055118" stroke="black" fill="none" transform="rotate(126.0)" />
      <circle cx="207.8740157480315" cy="0" r="3.779527559055118" stroke="black" fill="none" transform="rotate(132.0)" />
      <circle cx="207.8740157480315" cy="0" r="3.779527559055118" stroke="black" fill="none" transform="rotate(138.0)" />
      <circle cx="207.8740157480315" cy="0" r="3.779527559055118" stroke="black" fill="none" transform="rotate(144.0)" />
      <circle cx="207.8740157480315" cy="0" r="3.779527559055118" stroke="black" fill="none" transform="rotate(150.0)" />
      <circle cx="207.8740157480315" cy="0" r="3.779527559055118" stroke="black" fill="none" transform="rotate(156.0)" />
      <circle cx="207.8740157480315" cy="0" r="3.779527559055118" stroke="black" fill="none" transform="rotate(162.0)" />
      <circle cx="207.8740157480315" cy="0" r="3.779527559055118" stroke="black" fill="none" transform="rotate(168.0)" />
      <circle cx="207.8740157480315" cy="0" r="3.779527559055118" stroke="black" fill="none" transform="rotate(174.0)" />
      <circle cx="207.8740157480315" cy="0" r="3.779527559055118" stroke="black" fill="none" transform="rotate(180.0)" />
      <circle cx="207.8740157480315" cy="0" r="3.779527559055118" stroke="black" fill="none" transform="rotate(186.0)" />
      <circle cx="207.8740157480315" cy="0" r="3.779527559055118" stroke="black" fill="none" transform="rotate(192.0)" />
      <circle cx="207.8740157480315" cy="0" r="3.779527559055118" stroke="black" fill="none" transform="rotate(198.0)" />
      <circle cx="207.8740157480315" cy="0" r="3.779527559055118" stroke="black" fill="none" transform="rotate(204.0)" />
      <circle cx="207.8740157480315" cy="0" r="3.779527559055118" stroke="black" fill="none" transform="rotate(210.0)" />
      <circle cx="207.8740157480315" cy="0" r="3.779527559055118" stroke="black" fill="none" transform="rotate(216.0)" />
      <circle cx="207.8740157480315" cy="0" r="3.779527559055118" stroke="black" fill="none" transform="rotate(222.0)" />
      <circle cx="207.8740157480315" cy="0" r="3.779527559055118" stroke="black" fill="none" transform="rotate(228.0)" />
      <circle cx="207.8740157480315" cy="0" r="3.779527559055118" stroke="black" fill="none" transform="rotate(234.0)" />
      <circle cx="207.8740157480315" cy="0" r="3.779527559055118" stroke="black" fill="none" transform="rotate(240.0)" />
      <circle cx="207.8740157480315" cy="0" r="3.779527559055118" stroke="black" fill="none" transform="rotate(246.0)" />
      <circle cx="207.8740157480315" cy="0" r="3.779527559055118" stroke="black" fill="none" transform="rotate(252.0)" />
      <circle cx="207.8740157480315" cy="0" r="3.779527559055118" stroke="black" fill="none" transform="rotate(258.0)" />
      <circle cx="207.8740157480315" cy="0" r="3.779527559055118" stroke="black" fill="none" transform="rotate(264.0)" />
      <circle cx="207.8740157480315" cy="0" r="3.779527559055118" stroke="black" fill="none" transform="rotate(270.0)" />
      <circle cx="207.8740157480315" cy="0" r="3.779527559055118" stroke="black" fill="none" transform="rotate(276.0)" />
      <circle cx="207.8740157480315" cy="0" r="3.779527559055118" stroke="black" fill="none" transform="rotate(282.0)" />
      <circle cx="207.8740157480315" cy="0" r="3.779527559055118" stroke="black" fill="none" transform="rotate(288.0)" />
      <circle cx="207.8740157480315" cy="0" r="3.779527559055118" stroke="black" fill="none" transform="rotate(294.0)" />
      <circle cx="207.8740157480315" cy="0" r="3.779527559055118" stroke="black" fill="none" transform="rotate(300.0)" />
      <circle cx="207.8740157480315" cy="0" r="3.779527559055118" stroke="black" fill="none" transform="rotate(306.0)" />
      <circle cx="207.8740157480315" cy="0" r="3.779527559055118" stroke="black" fill="none" transform="rotate(312.0)" />
      <circle cx="207.8740157480315" cy="0" r="3.779527559055118" stroke="black" fill="none" transform="rotate(318.0)" />
      <circle cx="207.8740157480315" cy="0" r="3.779527559055118" stroke="black" fill="none" transform="rotate(324.0)" />
      <circle cx="207.8740157480315" cy="0" r="3.779527559055118" stroke="black" fill="none" transform="rotate(330.0)" />
      <circle cx="207.8740157480315" cy="0" r="3.779527559055118" stroke="black" fill="none" transform="rotate(336.0)" />
      <circle cx="207.8740157480315" cy="0" r="3.779527559055118" stroke="black" fill="none" transform="rotate(342.0)" />
      <circle cx="207.8740157480315" cy="0" r="3.779527559055118" stroke="black" fill="none" transform="rotate(348.0)" />
      <circle cx="207.8740157480315" cy="0" r="3.779527559055118" stroke="black" fill="none" transform="rotate(354.0)" />
    </g>
    <g>
      <line x1="226.77165354330708" y1="0" x2="211.6535433070866" y2="0" stroke="black" transform="rotate(0.0)" />
      <line x1="226.77165354330708" y1="0" x2="211.6535433070866" y2="0" stroke="black" transform="rotate(6.0)" />
      <line x1="226.77165354330708" y1="0" x2="211.6535433070866" y2="0" stroke="black" transform="rotate(12.0)" />
      <line x1="226.77165354330708" y1="0" x2="211.6535433070866" y2="0" stroke="black" transform="rotate(18.0)" />
      <line x1="226.77165354330708" y1="0" x2="211.6535433070866" y2="0" stroke="black" transform="rotate(24.0)" />
      <line x1="226.77165354330708" y1="0" x2="211.6535433070866" y2="0" stroke="black" transform="rotate(30.0)" />
      <line x1="226.77165354330708" y1="0" x2="211.6535433070866" y2="0" stroke="black" transform="rotate(36.0)" />
      <line x1="226.77165354330708" y1="0" x2="211.6535433070866" y2="0" stroke="black" transform="rotate(42.0)" />
      <line x1="226.77165354330708" y1="0" x2="211.6535433070866" y2="0" stroke="black" transform="rotate(48.0)" />
      <line x1="226.77165354330708" y1="0" x2="211.6535433070866" y2="0" stroke="black" transform="rotate(54.0)" />
      <line x1="226.77165354330708" y1="0" x2="211.6535433070866" y2="0" stroke="black" transform="rotate(60.0)" />
      <line x1="226.77165354330708" y1="0" x2="211.6535433070866" y2="0" stroke="black" transform="rotate(66.0)" />
      <line x1="226.77165354330708" y1="0" x2="211.6535433070866" y2="0" stroke="black" transform="rotate(72.0)" />
      <line x1="226.77165354330708" y1="0" x2="211.6535433070866" y2="0" stroke="black" transform="rotate(78.0)" />
      <line x1="226.77165354330708" y1="0" x2="211.6535433070866" y2="0" stroke="black" transform="rotate(84.0)" />
      <line x1="226.77165354330708" y1="0" x2="211.6535433070866" y2="0" stroke="black" transform="rotate(90.0)" />
      <line x1="226.77165354330708" y1="0" x2="211.6535433070866" y2="0" stroke="black" transform="rotate(96.0)" />
      <line x1="226.77165354330708" y1="0" x2="211.6535433070866" y2="0" stroke="black" transform="rotate(102.0)" />
      <line x1="226.77165354330708" y1="0" x2="211.6535433070866" y2="0" stroke="black" transform="rotate(108.0)" />
      <line x1="226.77165354330708" y1="0" x2="211.6535433070866" y2="0" stroke="black" transform="rotate(114.0)" />
      <line x1="226.77165354330708" y1="0" x2="211.6535433070866" y2="0" stroke="black" transform="rotate(120.0)" />
      <line x1="226.77165354330708" y1="0" x2="211.6535433070866" y2="0" stroke="black" transform="rotate(126.0)" />
      <line x1="226.77165354330708" y1="0" x2="211.6535433070866" y2="0" stroke="black" transform="rotate(132.0)" />
      <line x1="226.77165354330708" y1="0" x2="211.6535433070866" y2="0" stroke="black" transform="rotate(138.0)" />
      <line x1="226.77165354330708" y1="0" x2="211.6535433070866" y2="0" stroke="black" transform="rotate(144.0)" />
      <line x1="226.77165354330708" y1="0" x2="211.6535433070866" y2="0" stroke="black" transform="rotate(150.0)" />
      <line x1="226.77165354330708" y1="0" x2="211.6535433070866" y2="0" stroke="black" transform="rotate(156.0)" />
      <line x1="226.77165354330708" y1="0" x2="211.6535433070866" y2="0" stroke="black" transform="rotate(162.0)" />
      <line x1="226.77165354330708" y1="0" x2="211.6535433070866" y2="0" stroke="black" transform="rotate(168.0)" />
      <line x1="226.77165354330708" y1="0" x2="211.6535433070866" y2="0" stroke="black" transform="rotate(174.0)" />
      <line x1="226.77165354330708" y1="0" x2="211.6535433070866" y2="0" stroke="black" transform="rotate(180.0)" />
      <line x1="226.77165354330708" y1="0" x2="211.6535433070866" y2="0" stroke="black" transform="rotate(186.0)" />
      <line x1="226.77165354330708" y1="0" x2="211.6535433070866" y2="0" stroke="black" transform="rotate(192.0)" />
      <line x1="226.77165354330708" y1="0" x2="211.6535433070866" y2="0" stroke="black" transform="rotate(198.0)" />
      <line x1="226.77165354330708" y1="0" x2="211.6535433070866" y2="0" stroke="black" transform="rotate(204.0)" />
      <line x1="226.77165354330708" y1="0" x2="211.6535433070866" y2="0" stroke="black" transform="rotate(210.0)" />
      <line x1="226.77165354330708" y1="0" x2="211.6535433070866" y2="0" stroke="black" transform="rotate(216.0)" />
      <line x1="226.77165354330708" y1="0" x2="211.6535433070866" y2="0" stroke="black" transform="rotate(222.0)" />
      <line x1="226.77165354330708" y1="0" x2="211.6535433070866" y2="0" stroke="black" transform="rotate(228.0)" />
      <line x1="226.77165354330708" y1="0" x2="211.6535433070866" y2="0" stroke="black" transform="rotate(234.0)" />
      <line x1="226.77165354330708" y1="0" x2="211.6535433070866" y2="0" stroke="black" transform="rotate(240.0)" />
      <line x1="226.77165354330708" y1="0" x2="211.6535433070866" y2="0" stroke="black" transform="rotate(246.0)" />
      <line x1="226.77165354330708" y1="0" x2="211.6535433070866" y2="0" stroke="black" transform="rotate(252.0)" />
      <line x1="226.77165354330708" y1="0" x2="211.6535433070866" y2="0" stroke="black" transform="rotate(258.0)" />
      <line x1="226.77165354330708" y1="0" x2="211.6535433070866" y2="0" stroke="black" transform="rotate(264.0)" />
      <line x1="226.77165354330708" y1="0" x2="211.6535433070866" y2="0" stroke="black" transform="rotate(270.0)" />
      <line x1="226.77165354330708" y1="0" x2="211.6535433070866" y2="0" stroke="black" transform="rotate(276.0)" />
      <line x1="226.77165354330708" y1="0" x2="211.6535433070866" y2="0" stroke="black" transform="rotate(282.0)" />
      <line x1="226.77165354330708" y1="0" x2="211.6535433070866" y2="0" stroke="black" transform="rotate(288.0)" />
      <line x1="226.77165354330708" y1="0" x2="211.6535433070866" y2="0" stroke="black" transform="rotate(294.0)" />
      <line x1="226.77165354330708" y1="0" x2="211.6535433070866" y2="0" stroke="black" transform="rotate(300.0)" />
      <line x1="226.77165354330708" y1="0" x2="211.6535433070866" y2="0" stroke="black" transform="rotate(306.0)" />
      <line x1="226.77165354330708" y1="0" x2="211.6535433070866" y2="0" stroke="black" transform="rotate(312.0)" />
      <line x1="226.77165354330708" y1="0" x2="211.6535433070866" y2="0" stroke="black" transform="rotate(318.0)" />
      <line x1="226.77165354330708" y1="0" x2="211.6535433070866" y2="0" stroke="black" transform="rotate(324.0)" />
      <line x1="226.77165354330708" y1="0" x2="211.6535433070866" y2="0" stroke="black" transform="rotate(330.0)" />
      <line x1="226.77165354330708" y1="0" x2="211.6535433070866" y2="0" stroke="black" transform="rotate(336.0)" />
      <line x1="226.77165354330708" y1="0" x2="211.6535433070866" y2="0" stroke="black" transform="rotate(342.0)" />
      <line x1="226.77165354330708" y1="0" x2="211.6535433070866" y2="0" stroke="black" transform="rotate(348.0)" />
      <line x1="226.77165354330708" y1="0" x2="211.6535433070866" y2="0" stroke="black" transform="rotate(354.0)" />
    </g>
  </g>
</g>
</svg>
