<svg width="300" height="300" viewBox="-150 -150 300 300" fill="none" stroke="black" xmlns="http://www.w3.org/2000/svg" xmlns:xlink="http://www.w3.org/1999/xlink">
<g transform="scale(1 -1)">
  <g transform="scale(1 -1)">
    <circle cx="0" cy="0" r="302.3622047244094" stroke="red" fill="none" />
    <g>
      <circle cx="283.46456692913387" cy="0" r="3.779527559055118" stroke="black" fill="none" transform="rotate(0.0)" />
      <circle cx="283.46456692913387" cy="0" r="3.779527559055118" stroke="black" fill="none" transform="rotate(4.5)" />
      <circle cx="283.46456692913387" cy="0" r="3.779527559055118" stroke="black" fill="none" transform="rotate(9.0)" />
      <circle cx="283.46456692913387" cy="0" r="3.779527559055118" stroke="black" fill="none" transform="rotate(13.5)" />
      <circle cx="283.46456692913387" cy="0" r="3.779527559055118" stroke="black" fill="none" transform="rotate(18.0)" />
      <circle cx="283.46456692913387" cy="0" r="3.779527559055118" stroke="black" fill="none" transform="rotate(22.5)" />
      <circle cx="283.46456692913387" cy="0" r="3.779527559055118" stroke="black" fill="none" transform="rotate(27.0)" />
      <circle cx="283.46456692913387" cy="0" r="3.779527559055118" stroke="black" fill="none" transform="rotate(31.5)" />
      <circle cx="283.46456692913387" cy="0" r="3.779527559055118" stroke="black" fill="none" transform="rotate(36.0)" />
      <circle cx="283.46456692913387" cy="0" r="3.779527559055118" stroke="black" fill="none" transform="rotate(40.5)" />
      <circle cx="283.46456692913387" cy="0" r="3.779527559055118" stroke="black" fill="none" transform="rotate(45.0)" />
      <circle cx="283.46456692913387" cy="0" r="3.779527559055118" stroke="black" fill="none" transform="rotate(49.5)" />
      <circle cx="283.46456692913387" cy="0" r="3.779527559055118" stroke="black" fill="none" transform="rotate(54.0)" />
      <circle cx="283.46456692913387" cy="0" r="3.779527559055118" stroke="black" fill="none" transform="rotate(58.5)" />
      <circle cx="283.46456692913387" cy="0" r="3.779527559055118" stroke="black" fill="none" transform="rotate(63.0)" />
      <circle cx="283.46456692913387" cy="0" r="3.779527559055118" stroke="black" fill="none" transform="rotate(67.5)" />
      <circle cx="283.46456692913387" cy="0" r="3.779527559055118" stroke="black" fill="none" transform="rotate(72.0)" />
      <circle cx="283.46456692913387" cy="0" r="3.779527559055118" stroke="black" fill="none" transform="rotate(76.5)" />
      <circle cx="283.46456692913387" cy="0" r="3.779527559055118" stroke="black" fill="none" transform="rotate(81.0)" />
      <circle cx="283.46456692913387" cy="0" r="3.779527559055118" stroke="black" fill="none" transform="rotate(85.5)" />
      <circle cx="283.46456692913387" cy="0" r="3.779527559055118" stroke="black" fill="none" transform="rotate(90.0)" />
      <circle cx="283.46456692913387" cy="0" r="3.779527559055118" stroke="black" fill="none" transform="rotate(94.5)" />
      <circle cx="283.46456692913387" cy="0" r="3.779527559055118" stroke="black" fill="none" transform="rotate(99.0)" />
      <circle cx="283.46456692913387" cy="0" r="3.779527559055118" stroke="black" fill="none" transform="rotate(103.5)" />
      <circle cx="283.46456692913387" cy="0" r="3.779527559055118" stroke="black" fill="none" transform="rotate(108.0)" />
      <circle cx="283.46456692913387" cy="0" r="3.779527559055118" stroke="black" fill="none" transform="rotate(112.5)" />
      <circle cx="283.46456692913387" cy="0" r="3.779527559055118" stroke="black" fill="none" transform="rotate(117.0)" />
      <circle cx="283.46456692913387" cy="0" r="3.779527559055118" stroke="black" fill="none" transform="rotate(121.5)" />
      <circle cx="283.46456692913387" cy="0" r="3.779527559055118" stroke="black" fill="none" transform="rotate(126.0)" />
      <circle cx="283.46456692913387" cy="0" r="3.779527559055118" stroke="black" fill="none" transform="rotate(130.5)" />
      <circle cx="283.46456692913387" cy="0" r="3.779527559055118" stroke="black" fill="none" transform="rotate(135.0)" />
      <circle cx="283.46456692913387" cy="0" r="3.779527559055118" stroke="black" fill="none" transform="rotate(139.5)" />
      <circle cx="283.46456692913387" cy="0" r="3.779527559055118" stroke="black" fill="none" transform="rotate(144.0)" />
      <circle cx="283.46456692913387" cy="0" r="3.779527559055118" stroke="black" fill="none" transform="rotate(148.5)" />
      <circle cx="283.46456692913387" cy="0" r="3.779527559055118" stroke="black" fill="none" transform="rotate(153.0)" />
      <circle cx="283.46456692913387" cy="0" r="3.779527559055118" stroke="black" fill="none" transform="rotate(157.5)" />
      <circle cx="283.46456692913387" cy="0" r="3.779527559055118" stroke="black" fill="none" transform="rotate(162.0)" />
      <circle cx="283.46456692913387" cy="0" r="3.779527559055118" stroke="black" fill="none" transform="rotate(166.5)" />
      <circle cx="283.46456692913387" cy="0" r="3.779527559055118" stroke="black" fill="none" transform="rotate(171.0)" />
      <circle cx="283.46456692913387" cy="0" r="3.779527559055118" stroke="black" fill="none" transform="rotate(175.5)" />
      <circle cx="283.46456692913387" cy="0" r="3.779527559055118" stroke="black" fill="none" transform="rotate(180.0)" />
      <circle cx="283.46456692913387" cy="0" r="3.779527559055118" stroke="black" fill="none" transform="rotate(184.5)" />
      <circle cx="283.46456692913387" cy="0" r="3.779527559055118" stroke="black" fill="none" transform="rotate(189.0)" />
      <circle cx="283.46456692913387" cy="0" r="3.779527559055118" stroke="black" fill="none" transform="rotate(193.5)" />
      <circle cx="283.46456692913387" cy="0" r="3.779527559055118" stroke="black" fill="none" transform="rotate(198.0)" />
      <circle cx="283.46456692913387" cy="0" r="3.779527559055118" stroke="black" fill="none" transform="rotate(202.5)" />
      <circle cx="283.46456692913387" cy="0" r="3.779527559055118" stroke="black" fill="none" transform="rotate(207.0)" />
      <circle cx="283.46456692913387" cy="0" r="3.779527559055118" stroke="black" fill="none" transform="rotate(211.5)" />
      <circle cx="283.46456692913387" cy="0" r="3.779527559055118" stroke="black" fill="none" transform="rotate(216.0)" />
      <circle cx="283.46456692913387" cy="0" r="3.779527559055118" stroke="black" fill="none" transform="rotate(220.5)" />
      <circle cx="283.46456692913387" cy="0" r="3.779527559055118" stroke="black" fill="none" transform="rotate(225.0)" />
      <circle cx="283.46456692913387" cy="0" r="3.779527559055118" stroke="black" fill="none" transform="rotate(229.5)" />
      <circle cx="283.46456692913387" cy="0" r="3.779527559055118" stroke="black" fill="none" transform="rotate(234.0)" />
      <circle cx="283.46456692913387" cy="0" r="3.779527559055118" stroke="black" fill="none" transform="rotate(238.5)" />
      <circle cx="283.46456692913387" cy="0" r="3.779527559055118" stroke="black" fill="none" transform="rotate(243.0)" />
      <circle cx="283.46456692913387" cy="0" r="3.779527559055118" stroke="black" fill="none" transform="rotate(247.5)" />
      <circle cx="283.46456692913387" cy="0" r="3.779527559055118" stroke="black" fill="none" transform="rotate(252.0)" />
      <circle cx="283.46456692913387" cy="0" r="3.779527559055118" stroke="black" fill="none" transform="rotate(256.5)" />
      <circle cx="283.46456692913387" cy="0" r="3.779527559055118" stroke="black" fill="none" transform="rotate(261.0)" />
      <circle cx="283.46456692913387" cy="0" r="3.779527559055118" stroke="black" fill="none" transform="rotate(265.5)" />
      <circle cx="283.46456692913387" cy="0" r="3.779527559055118" stroke="black" fill="none" transform="rotate(270.0)" />
      <circle cx="283.46456692913387" cy="0" r="3.779527559055118" stroke="black" fill="none" transform="rotate(274.5)" />
      <circle cx="283.46456692913387" cy="0" r="3.779527559055118" stroke="black" fill="none" transform="rotate(279.0)" />
      <circle cx="283.46456692913387" cy="0" r="3.779527559055118" stroke="black" fill="none" transform="rotate(283.5)" />
      <circle cx="283.46456692913387" cy="0" r="3.779527559055118" stroke="black" fill="none" transform="rotate(288.0)" />
      <circle cx="283.46456692913387" cy="0" r="3.779527559055118" stroke="black" fill="none" transform="rotate(292.5)" />
      <circle cx="283.46456692913387" cy="0" r="3.779527559055118" stroke="black" fill="none" transform="rotate(297.0)" />
      <circle cx="283.46456692913387" cy="0" r="3.779527559055118" stroke="black" fill="none" transform="rotate(301.5)" />
      <circle cx="283.46456692913387" cy="0" r="3.779527559055118" stroke="black" fill="none" transform="rotate(306.0)" />
      <circle cx="283.46456692913387" cy="0" r="3.779527559055118" stroke="black" fill="none" transform="rotate(310.5)" />
      <circle cx="283.46456692913387" cy="0" r="3.779527559055118" stroke="black" fill="none" transform="rotate(315.0)" />
      <circle cx="283.46456692913387" cy="0" r="3.779527559055118" stroke="black" fill="none" transform="rotate(319.5)" />
      <circle cx="283.46456692913387" cy="0" r="3.779527559055118" stroke="black" fill="none" transform="rotate(324.0)" />
      <circle cx="283.46456692913387" cy="0" r="3.779527559055118" stroke="black" fill="none" transform="rotate(328.5)" />
      <circle cx="283.46456692913387" cy="0" r="3.779527559055118" stroke="black" fill="none" transform="rotate(333.0)" />
      <circle cx="283.46456692913387" cy="0" r="3.779527559055118" stroke="black" fill="none" transform="rotate(337.5)" />
      <circle cx="283.46456692913387" cy="0" r="3.779527559055118" stroke="black" fill="none" transform="rotate(342.0)" />
      <circle cx="283.46456692913387" cy="0" r="3.779527559055118" stroke="black" fill="none" transform="rotate(346.5)" />
      <circle cx="283.46456692913387" cy="0" r="3.779527559055118" stroke="black" fill="none" transform="rotate(351.0)" />
      <circle cx="283.46456692913387" cy="0" r="3.779527559055118" stroke="black" fill="none" transform="rotate(355.5)" />
    </g>
    <g>
      <line x1="302.3622047244094" y1="0" x2="287.244094488189" y2="0" stroke="black" transform="rotate(0.0)" />
      <line x1="302.3622047244094" y1="0" x2="287.244094488189" y2="0" stroke="black" transform="rotate(4.5)" />
      <line x1="302.3622047244094" y1="0" x2="287.244094488189" y2="0" stroke="black" transform="rotate(9.0)" />
      <line x1="302.3622047244094" y1="0" x2="287.244094488189" y2="0" stroke="black" transform="rotate(13.5)" />
      <line x1="302.3622047244094" y1="0" x2="287.244094488189" y2="0" stroke="black" transform="rotate(18.0)" />
      <line x1="302.3622047244094" y1="0" x2="287.244094488189" y2="0" stroke="black" transform="rotate(22.5)" />
      <line x1="302.3622047244094" y1="0" x2="287.244094488189" y2="0" stroke="black" transform="rotate(27.0)" />
      <line x1="302.3622047244094" y1="0" x2="287.244094488189" y2="0" stroke="black" transform="rotate(31.5)" />
      <line x1="302.3622047244094" y1="0" x2="287.244094488189" y2="0" stroke="black" transform="rotate(36.0)" />
      <line x1="302.3622047244094" y1="0" x2="287.244094488189" y2="0" stroke="black" transform="rotate(40.5)" />
      <line x1="302.3622047244094" y1="0" x2="287.244094488189" y2="0" stroke="black" transform="rotate(45.0)" />
      <line x1="302.3622047244094" y1="0" x2="287.244094488189" y2="0" stroke="black" transform="rotate(49.5)" />
      <line x1="302.3622047244094" y1="0" x2="287.244094488189" y2="0" stroke="black" transform="rotate(54.0)" />
      <line x1="302.3622047244094" y1="0" x2="287.244094488189" y2="0" stroke="black" transform="rotate(58.5)" />
      <line x1="302.3622047244094" y1="0" x2="287.244094488189" y2="0" stroke="black" transform="rotate(63.0)" />
      <line x1="302.3622047244094" y1="0" x2="287.244094488189" y2="0" stroke="black" transform="rotate(67.5)" />
      <line x1="302.3622047244094" y1="0" x2="287.244094488189" y2="0" stroke="black" transform="rotate(72.0)" />
      <line x1="302.3622047244094" y1="0" x2="287.244094488189" y2="0" stroke="black" transform="rotate(76.5)" />
      <line x1="302.3622047244094" y1="0" x2="287.244094488189" y2="0" stroke="black" transform="rotate(81.0)" />
      <line x1="302.3622047244094" y1="0" x2="287.244094488189" y2="0" stroke="black" transform="rotate(85.5)" />
      <line x1="302.3622047244094" y1="0" x2="287.244094488189" y2="0" stroke="black" transform="rotate(90.0)" />
      <line x1="302.3622047244094" y1="0" x2="287.244094488189" y2="0" stroke="black" transform="rotate(94.5)" />
      <line x1="302.3622047244094" y1="0" x2="287.244094488189" y2="0" stroke="black" transform="rotate(99.0)" />
      <line x1="302.3622047244094" y1="0" x2="287.244094488189" y2="0" stroke="black" transform="rotate(103.5)" />
      <line x1="302.3622047244094" y1="0" x2="287.244094488189" y2="0" stroke="black" transform="rotate(108.0)" />
      <line x1="302.3622047244094" y1="0" x2="287.244094488189" y2="0" stroke="black" transform="rotate(112.5)" />
      <line x1="302.3622047244094" y1="0" x2="287.244094488189" y2="0" stroke="black" transform="rotate(117.0)" />
      <line x1="302.3622047244094" y1="0" x2="287.244094488189" y2="0" stroke="black" transform="rotate(121.5)" />
      <line x1="302.3622047244094" y1="0" x2="287.244094488189" y2="0" stroke="black" transform="rotate(126.0)" />
      <line x1="302.3622047244094" y1="0" x2="287.244094488189" y2="0" stroke="black" transform="rotate(130.5)" />
      <line x1="302.3622047244094" y1="0" x2="287.244094488189" y2="0" stroke="black" transform="rotate(135.0)" />
      <line x1="302.3622047244094" y1="0" x2="287.244094488189" y2="0" stroke="black" transform="rotate(139.5)" />
      <line x1="302.3622047244094" y1="0" x2="287.244094488189" y2="0" stroke="black" transform="rotate(144.0)" />
      <line x1="302.3622047244094" y1="0" x2="287.244094488189" y2="0" stroke="black" transform="rotate(148.5)" />
      <line x1="302.3622047244094" y1="0" x2="287.244094488189" y2="0" stroke="black" transform="rotate(153.0)" />
      <line x1="302.3622047244094" y1="0" x2="287.244094488189" y2="0" stroke="black" transform="rotate(157.5)" />
      <line x1="302.3622047244094" y1="0" x2="287.244094488189" y2="0" stroke="black" transform="rotate(162.0)" />
      <line x1="302.3622047244094" y1="0" x2="287.244094488189" y2="0" stroke="black" transform="rotate(166.5)" />
      <line x1="302.3622047244094" y1="0" x2="287.244094488189" y2="0" stroke="black" transform="rotate(171.0)" />
      <line x1="302.3622047244094" y1="0" x2="287.244094488189" y2="0" stroke="black" transform="rotate(175.5)" />
      <line x1="302.3622047244094" y1="0" x2="287.244094488189" y2="0" stroke="black" transform="rotate(180.0)" />
      <line x1="302.3622047244094" y1="0" x2="287.244094488189" y2="0" stroke="black" transform="rotate(184.5)" />
      <line x1="302.3622047244094" y1="0" x2="287.244094488189" y2="0" stroke="black" transform="rotate(189.0)" />
      <line x1="302.3622047244094" y1="0" x2="287.244094488189" y2="0" stroke="black" transform="rotate(193.5)" />
      <line x1="302.3622047244094" y1="0" x2="287.244094488189" y2="0" stroke="black" transform="rotate(198.0)" />
      <line x1="302.3622047244094" y1="0" x2="287.244094488189" y2="0" stroke="black" transform="rotate(202.5)" />
      <line x1="302.3622047244094" y1="0" x2="287.244094488189" y2="0" stroke="black" transform="rotate(207.0)" />
      <line x1="302.3622047244094" y1="0" x2="287.244094488189" y2="0" stroke="black" transform="rotate(211.5)" />
      <line x1="302.3622047244094" y1="0" x2="287.244094488189" y2="0" stroke="black" transform="rotate(216.0)" />
      <line x1="302.3622047244094" y1="0" x2="287.244094488189" y2="0" stroke="black" transform="rotate(220.5)" />
      <line x1="302.3622047244094" y1="0" x2="287.244094488189" y2="0" stroke="black" transform="rotate(225.0)" />
      <line x1="302.3622047244094" y1="0" x2="287.244094488189" y2="0" stroke="black" transform="rotate(229.5)" />
      <line x1="302.3622047244094" y1="0" x2="287.244094488189" y2="0" stroke="black" transform="rotate(234.0)" />
      <line x1="302.3622047244094" y1="0" x2="287.244094488189" y2="0" stroke="black" transform="rotate(238.5)" />
      <line x1="302.3622047244094" y1="0" x2="287.244094488189" y2="0" stroke="black" transform="rotate(243.0)" />
      <line x1="302.3622047244094" y1="0" x2="287.244094488189" y2="0" stroke="black" transform="rotate(247.5)" />
      <line x1="302.3622047244094" y1="0" x2="287.244094488189" y2="0" stroke="black" transform="rotate(252.0)" />
      <line x1="302.3622047244094" y1="0" x2="287.244094488189" y2="0" stroke="black" transform="rotate(256.5)" />
      <line x1="302.3622047244094" y1="0" x2="287.244094488189" y2="0" stroke="black" transform="rotate(261.0)" />
      <line x1="302.3622047244094" y1="0" x2="287.244094488189" y2="0" stroke="black" transform="rotate(265.5)" />
      <line x1="302.3622047244094" y1="0" x2="287.244094488189" y2="0" stroke="black" transform="rotate(270.0)" />
      <line x1="302.3622047244094" y1="0" x2="287.244094488189" y2="0" stroke="black" transform="rotate(274.5)" />
      <line x1="302.3622047244094" y1="0" x2="287.244094488189" y2="0" stroke="black" transform="rotate(279.0)" />
      <line x1="302.3622047244094" y1="0" x2="287.244094488189" y2="0" stroke="black" transform="rotate(283.5)" />
      <line x1="302.3622047244094" y1="0" x2="287.244094488189" y2="0" stroke="black" transform="rotate(288.0)" />
      <line x1="302.3622047244094" y1="0" x2="287.244094488189" y2="0" stroke="black" transform="rotate(292.5)" />
      <line x1="302.3622047244094" y1="0" x2="287.244094488189" y2="0" stroke="black" transform="rotate(297.0)" />
      <line x1="302.3622047244094" y1="0" x2="287.244094488189" y2="0" stroke="black" transform="rotate(301.5)" />
      <line x1="302.3622047244094" y1="0" x2="287.244094488189" y2="0" stroke="black" transform="rotate(306.0)" />
      <line x1="302.3622047244094" y1="0" x2="287.244094488189" y2="0" stroke="black" transform="rotate(310.5)" />
      <line x1="302.3622047244094" y1="0" x2="287.244094488189" y2="0" stroke="black" transform="rotate(315.0)" />
      <line x1="302.3622047244094" y1="0" x2="287.244094488189" y2="0" stroke="black" transform="rotate(319.5)" />
      <line x1="302.3622047244094" y1="0" x2="287.244094488189" y2="0" stroke="black" transform="rotate(324.0)" />
      <line x1="302.3622047244094" y1="0" x2="287.244094488189" y2="0" stroke="black" transform="rotate(328.5)" />
      <line x1="302.3622047244094" y1="0" x2="287.244094488189" y2="0" stroke="black" transform="rotate(333.0)" />
      <line x1="302.3622047244094" y1="0" x2="287.244094488189" y2="0" stroke="black" transform="rotate(337.5)" />
      <line x1="302.3622047244094" y1="0" x2="287.244094488189" y2="0" stroke="black" transform="rotate(342.0)" />
      <line x1="302.3622047244094" y1="0" x2="287.244094488189" y2="0" stroke="black" transform="rotate(346.5)" />
      <line x1="302.3622047244094" y1="0" x2="287.244094488189" y2="0" stroke="black" transform="rotate(351.0)" />
      <line x1="302.3622047244094" y1="0" x2="287.244094488189" y2="0" stroke="black" transform="rotate(355.5)" />
    </g>
  </g>
</g>
</svg>
