<svg width="300" height="300" viewBox="-150 -150 300 300" fill="none" stroke="black" xmlns="http://www.w3.org/2000/svg" xmlns:xlink="http://www.w3.org/1999/xlink">
<g transform="scale(1 -1)">
  <g transform="scale(1 -1)">
    <circle cx="0" cy="0" r="302.3622047244094" stroke="red" fill="none" />
    <g>
      <g transform="rotate(0.0) translate(0 -302.3622047244094)">
        <line x1="0" y1="0" x2="0" y2="15.118110236220472" stroke="black" />
        <circle cx="0" cy="18.89763779527559" r="3.779527559055118" stroke="black" fill="none" />
      </g>
      <g transform="rotate(4.5) translate(0 -302.3622047244094)">
        <line x1="0" y1="0" x2="0" y2="15.118110236220472" stroke="black" />
        <circle cx="0" cy="18.89763779527559" r="3.779527559055118" stroke="black" fill="none" />
      </g>
      <g transform="rotate(9.0) translate(0 -302.3622047244094)">
        <line x1="0" y1="0" x2="0" y2="15.118110236220472" stroke="black" />
        <circle cx="0" cy="18.89763779527559" r="3.779527559055118" stroke="black" fill="none" />
      </g>
      <g transform="rotate(13.5) translate(0 -302.3622047244094)">
        <line x1="0" y1="0" x2="0" y2="15.118110236220472" stroke="black" />
        <circle cx="0" cy="18.89763779527559" r="3.779527559055118" stroke="black" fill="none" />
      </g>
      <g transform="rotate(18.0) translate(0 -302.3622047244094)">
        <line x1="0" y1="0" x2="0" y2="15.118110236220472" stroke="black" />
        <circle cx="0" cy="18.89763779527559" r="3.779527559055118" stroke="black" fill="none" />
      </g>
      <g transform="rotate(22.5) translate(0 -302.3622047244094)">
        <line x1="0" y1="0" x2="0" y2="15.118110236220472" stroke="black" />
        <circle cx="0" cy="18.89763779527559" r="3.779527559055118" stroke="black" fill="none" />
      </g>
      <g transform="rotate(27.0) translate(0 -302.3622047244094)">
        <line x1="0" y1="0" x2="0" y2="15.118110236220472" stroke="black" />
        <circle cx="0" cy="18.89763779527559" r="3.779527559055118" stroke="black" fill="none" />
      </g>
      <g transform="rotate(31.5) translate(0 -302.3622047244094)">
        <line x1="0" y1="0" x2="0" y2="15.118110236220472" stroke="black" />
        <circle cx="0" cy="18.89763779527559" r="3.779527559055118" stroke="black" fill="none" />
      </g>
      <g transform="rotate(36.0) translate(0 -302.3622047244094)">
        <line x1="0" y1="0" x2="0" y2="15.118110236220472" stroke="black" />
        <circle cx="0" cy="18.89763779527559" r="3.779527559055118" stroke="black" fill="none" />
      </g>
      <g transform="rotate(40.5) translate(0 -302.3622047244094)">
        <line x1="0" y1="0" x2="0" y2="15.118110236220472" stroke="black" />
        <circle cx="0" cy="18.89763779527559" r="3.779527559055118" stroke="black" fill="none" />
      </g>
      <g transform="rotate(45.0) translate(0 -302.3622047244094)">
        <line x1="0" y1="0" x2="0" y2="15.118110236220472" stroke="black" />
        <circle cx="0" cy="18.89763779527559" r="3.779527559055118" stroke="black" fill="none" />
      </g>
      <g transform="rotate(49.5) translate(0 -302.3622047244094)">
        <line x1="0" y1="0" x2="0" y2="15.118110236220472" stroke="black" />
        <circle cx="0" cy="18.89763779527559" r="3.779527559055118" stroke="black" fill="none" />
      </g>
      <g transform="rotate(54.0) translate(0 -302.3622047244094)">
        <line x1="0" y1="0" x2="0" y2="15.118110236220472" stroke="black" />
        <circle cx="0" cy="18.89763779527559" r="3.779527559055118" stroke="black" fill="none" />
      </g>
      <g transform="rotate(58.5) translate(0 -302.3622047244094)">
        <line x1="0" y1="0" x2="0" y2="15.118110236220472" stroke="black" />
        <circle cx="0" cy="18.89763779527559" r="3.779527559055118" stroke="black" fill="none" />
      </g>
      <g transform="rotate(63.0) translate(0 -302.3622047244094)">
        <line x1="0" y1="0" x2="0" y2="15.118110236220472" stroke="black" />
        <circle cx="0" cy="18.89763779527559" r="3.779527559055118" stroke="black" fill="none" />
      </g>
      <g transform="rotate(67.5) translate(0 -302.3622047244094)">
        <line x1="0" y1="0" x2="0" y2="15.118110236220472" stroke="black" />
        <circle cx="0" cy="18.89763779527559" r="3.779527559055118" stroke="black" fill="none" />
      </g>
      <g transform="rotate(72.0) translate(0 -302.3622047244094)">
        <line x1="0" y1="0" x2="0" y2="15.118110236220472" stroke="black" />
        <circle cx="0" cy="18.89763779527559" r="3.779527559055118" stroke="black" fill="none" />
      </g>
      <g transform="rotate(76.5) translate(0 -302.3622047244094)">
        <line x1="0" y1="0" x2="0" y2="15.118110236220472" stroke="black" />
        <circle cx="0" cy="18.89763779527559" r="3.779527559055118" stroke="black" fill="none" />
      </g>
      <g transform="rotate(81.0) translate(0 -302.3622047244094)">
        <line x1="0" y1="0" x2="0" y2="15.118110236220472" stroke="black" />
        <circle cx="0" cy="18.89763779527559" r="3.779527559055118" stroke="black" fill="none" />
      </g>
      <g transform="rotate(85.5) translate(0 -302.3622047244094)">
        <line x1="0" y1="0" x2="0" y2="15.118110236220472" stroke="black" />
        <circle cx="0" cy="18.89763779527559" r="3.779527559055118" stroke="black" fill="none" />
      </g>
      <g transform="rotate(90.0) translate(0 -302.3622047244094)">
        <line x1="0" y1="0" x2="0" y2="15.118110236220472" stroke="black" />
        <circle cx="0" cy="18.89763779527559" r="3.779527559055118" stroke="black" fill="none" />
      </g>
      <g transform="rotate(94.5) translate(0 -302.3622047244094)">
        <line x1="0" y1="0" x2="0" y2="15.118110236220472" stroke="black" />
        <circle cx="0" cy="18.89763779527559" r="3.779527559055118" stroke="black" fill="none" />
      </g>
      <g transform="rotate(99.0) translate(0 -302.3622047244094)">
        <line x1="0" y1="0" x2="0" y2="15.118110236220472" stroke="black" />
        <circle cx="0" cy="18.89763779527559" r="3.779527559055118" stroke="black" fill="none" />
      </g>
      <g transform="rotate(103.5) translate(0 -302.3622047244094)">
        <line x1="0" y1="0" x2="0" y2="15.118110236220472" stroke="black" />
        <circle cx="0" cy="18.89763779527559" r="3.779527559055118" stroke="black" fill="none" />
      </g>
      <g transform="rotate(108.0) translate(0 -302.3622047244094)">
        <line x1="0" y1="0" x2="0" y2="15.118110236220472" stroke="black" />
        <circle cx="0" cy="18.89763779527559" r="3.779527559055118" stroke="black" fill="none" />
      </g>
      <g transform="rotate(112.5) translate(0 -302.3622047244094)">
        <line x1="0" y1="0" x2="0" y2="15.118110236220472" stroke="black" />
        <circle cx="0" cy="18.89763779527559" r="3.779527559055118" stroke="black" fill="none" />
      </g>
      <g transform="rotate(117.0) translate(0 -302.3622047244094)">
        <line x1="0" y1="0" x2="0" y2="15.118110236220472" stroke="black" />
        <circle cx="0" cy="18.89763779527559" r="3.779527559055118" stroke="black" fill="none" />
      </g>
      <g transform="rotate(121.5) translate(0 -302.3622047244094)">
        <line x1="0" y1="0" x2="0" y2="15.118110236220472" stroke="black" />
        <circle cx="0" cy="18.89763779527559" r="3.779527559055118" stroke="black" fill="none" />
      </g>
      <g transform="rotate(126.0) translate(0 -302.3622047244094)">
        <line x1="0" y1="0" x2="0" y2="15.118110236220472" stroke="black" />
        <circle cx="0" cy="18.89763779527559" r="3.779527559055118" stroke="black" fill="none" />
      </g>
      <g transform="rotate(130.5) translate(0 -302.3622047244094)">
        <line x1="0" y1="0" x2="0" y2="15.118110236220472" stroke="black" />
        <circle cx="0" cy="18.89763779527559" r="3.779527559055118" stroke="black" fill="none" />
      </g>
      <g transform="rotate(135.0) translate(0 -302.3622047244094)">
        <line x1="0" y1="0" x2="0" y2="15.118110236220472" stroke="black" />
        <circle cx="0" cy="18.89763779527559" r="3.779527559055118" stroke="black" fill="none" />
      </g>
      <g transform="rotate(139.5) translate(0 -302.3622047244094)">
        <line x1="0" y1="0" x2="0" y2="15.118110236220472" stroke="black" />
        <circle cx="0" cy="18.89763779527559" r="3.779527559055118" stroke="black" fill="none" />
      </g>
      <g transform="rotate(144.0) translate(0 -302.3622047244094)">
        <line x1="0" y1="0" x2="0" y2="15.118110236220472" stroke="black" />
        <circle cx="0" cy="18.89763779527559" r="3.779527559055118" stroke="black" fill="none" />
      </g>
      <g transform="rotate(148.5) translate(0 -302.3622047244094)">
        <line x1="0" y1="0" x2="0" y2="15.118110236220472" stroke="black" />
        <circle cx="0" cy="18.89763779527559" r="3.779527559055118" stroke="black" fill="none" />
      </g>
      <g transform="rotate(153.0) translate(0 -302.3622047244094)">
        <line x1="0" y1="0" x2="0" y2="15.118110236220472" stroke="black" />
        <circle cx="0" cy="18.89763779527559" r="3.779527559055118" stroke="black" fill="none" />
      </g>
      <g transform="rotate(157.5) translate(0 -302.3622047244094)">
        <line x1="0" y1="0" x2="0" y2="15.118110236220472" stroke="black" />
        <circle cx="0" cy="18.89763779527559" r="3.779527559055118" stroke="black" fill="none" />
      </g>
      <g transform="rotate(162.0) translate(0 -302.3622047244094)">
        <line x1="0" y1="0" x2="0" y2="15.118110236220472" stroke="black" />
        <circle cx="0" cy="18.89763779527559" r="3.779527559055118" stroke="black" fill="none" />
      </g>
      <g transform="rotate(166.5) translate(0 -302.3622047244094)">
        <line x1="0" y1="0" x2="0" y2="15.118110236220472" stroke="black" />
        <circle cx="0" cy="18.89763779527559" r="3.779527559055118" stroke="black" fill="none" />
      </g>
      <g transform="rotate(171.0) translate(0 -302.3622047244094)">
        <line x1="0" y1="0" x2="0" y2="15.118110236220472" stroke="black" />
        <circle cx="0" cy="18.89763779527559" r="3.779527559055118" stroke="black" fill="none" />
      </g>
      <g transform="rotate(175.5) translate(0 -302.3622047244094)">
        <line x1="0" y1="0" x2="0" y2="15.118110236220472" stroke="black" />
        <circle cx="0" cy="18.89763779527559" r="3.779527559055118" stroke="black" fill="none" />
      </g>
      <g transform="rotate(180.0) translate(0 -302.3622047244094)">
        <line x1="0" y1="0" x2="0" y2="15.118110236220472" stroke="black" />
        <circle cx="0" cy="18.89763779527559" r="3.779527559055118" stroke="black" fill="none" />
      </g>
      <g transform="rotate(184.5) translate(0 -302.3622047244094)">
        <line x1="0" y1="0" x2="0" y2="15.118110236220472" stroke="black" />
        <circle cx="0" cy="18.89763779527559" r="3.779527559055118" stroke="black" fill="none" />
      </g>
      <g transform="rotate(189.0) translate(0 -302.3622047244094)">
        <line x1="0" y1="0" x2="0" y2="15.118110236220472" stroke="black" />
        <circle cx="0" cy="18.89763779527559" r="3.779527559055118" stroke="black" fill="none" />
      </g>
      <g transform="rotate(193.5) translate(0 -302.3622047244094)">
        <line x1="0" y1="0" x2="0" y2="15.118110236220472" stroke="black" />
        <circle cx="0" cy="18.89763779527559" r="3.779527559055118" stroke="black" fill="none" />
      </g>
      <g transform="rotate(198.0) translate(0 -302.3622047244094)">
        <line x1="0" y1="0" x2="0" y2="15.118110236220472" stroke="black" />
        <circle cx="0" cy="18.89763779527559" r="3.779527559055118" stroke="black" fill="none" />
      </g>
      <g transform="rotate(202.5) translate(0 -302.3622047244094)">
        <line x1="0" y1="0" x2="0" y2="15.118110236220472" stroke="black" />
        <circle cx="0" cy="18.89763779527559" r="3.779527559055118" stroke="black" fill="none" />
      </g>
      <g transform="rotate(207.0) translate(0 -302.3622047244094)">
        <line x1="0" y1="0" x2="0" y2="15.118110236220472" stroke="black" />
        <circle cx="0" cy="18.89763779527559" r="3.779527559055118" stroke="black" fill="none" />
      </g>
      <g transform="rotate(211.5) translate(0 -302.3622047244094)">
        <line x1="0" y1="0" x2="0" y2="15.118110236220472" stroke="black" />
        <circle cx="0" cy="18.89763779527559" r="3.779527559055118" stroke="black" fill="none" />
      </g>
      <g transform="rotate(216.0) translate(0 -302.3622047244094)">
        <line x1="0" y1="0" x2="0" y2="15.118110236220472" stroke="black" />
        <circle cx="0" cy="18.89763779527559" r="3.779527559055118" stroke="black" fill="none" />
      </g>
      <g transform="rotate(220.5) translate(0 -302.3622047244094)">
        <line x1="0" y1="0" x2="0" y2="15.118110236220472" stroke="black" />
        <circle cx="0" cy="18.89763779527559" r="3.779527559055118" stroke="black" fill="none" />
      </g>
      <g transform="rotate(225.0) translate(0 -302.3622047244094)">
        <line x1="0" y1="0" x2="0" y2="15.118110236220472" stroke="black" />
        <circle cx="0" cy="18.89763779527559" r="3.779527559055118" stroke="black" fill="none" />
      </g>
      <g transform="rotate(229.5) translate(0 -302.3622047244094)">
        <line x1="0" y1="0" x2="0" y2="15.118110236220472" stroke="black" />
        <circle cx="0" cy="18.89763779527559" r="3.779527559055118" stroke="black" fill="none" />
      </g>
      <g transform="rotate(234.0) translate(0 -302.3622047244094)">
        <line x1="0" y1="0" x2="0" y2="15.118110236220472" stroke="black" />
        <circle cx="0" cy="18.89763779527559" r="3.779527559055118" stroke="black" fill="none" />
      </g>
      <g transform="rotate(238.5) translate(0 -302.3622047244094)">
        <line x1="0" y1="0" x2="0" y2="15.118110236220472" stroke="black" />
        <circle cx="0" cy="18.89763779527559" r="3.779527559055118" stroke="black" fill="none" />
      </g>
      <g transform="rotate(243.0) translate(0 -302.3622047244094)">
        <line x1="0" y1="0" x2="0" y2="15.118110236220472" stroke="black" />
        <circle cx="0" cy="18.89763779527559" r="3.779527559055118" stroke="black" fill="none" />
      </g>
      <g transform="rotate(247.5) translate(0 -302.3622047244094)">
        <line x1="0" y1="0" x2="0" y2="15.118110236220472" stroke="black" />
        <circle cx="0" cy="18.89763779527559" r="3.779527559055118" stroke="black" fill="none" />
      </g>
      <g transform="rotate(252.0) translate(0 -302.3622047244094)">
        <line x1="0" y1="0" x2="0" y2="15.118110236220472" stroke="black" />
        <circle cx="0" cy="18.89763779527559" r="3.779527559055118" stroke="black" fill="none" />
      </g>
      <g transform="rotate(256.5) translate(0 -302.3622047244094)">
        <line x1="0" y1="0" x2="0" y2="15.118110236220472" stroke="black" />
        <circle cx="0" cy="18.89763779527559" r="3.779527559055118" stroke="black" fill="none" />
      </g>
      <g transform="rotate(261.0) translate(0 -302.3622047244094)">
        <line x1="0" y1="0" x2="0" y2="15.118110236220472" stroke="black" />
        <circle cx="0" cy="18.89763779527559" r="3.779527559055118" stroke="black" fill="none" />
      </g>
      <g transform="rotate(265.5) translate(0 -302.3622047244094)">
        <line x1="0" y1="0" x2="0" y2="15.118110236220472" stroke="black" />
        <circle cx="0" cy="18.89763779527559" r="3.779527559055118" stroke="black" fill="none" />
      </g>
      <g transform="rotate(270.0) translate(0 -302.3622047244094)">
        <line x1="0" y1="0" x2="0" y2="15.118110236220472" stroke="black" />
        <circle cx="0" cy="18.89763779527559" r="3.779527559055118" stroke="black" fill="none" />
      </g>
      <g transform="rotate(274.5) translate(0 -302.3622047244094)">
        <line x1="0" y1="0" x2="0" y2="15.118110236220472" stroke="black" />
        <circle cx="0" cy="18.89763779527559" r="3.779527559055118" stroke="black" fill="none" />
      </g>
      <g transform="rotate(279.0) translate(0 -302.3622047244094)">
        <line x1="0" y1="0" x2="0" y2="15.118110236220472" stroke="black" />
        <circle cx="0" cy="18.89763779527559" r="3.779527559055118" stroke="black" fill="none" />
      </g>
      <g transform="rotate(283.5) translate(0 -302.3622047244094)">
        <line x1="0" y1="0" x2="0" y2="15.118110236220472" stroke="black" />
        <circle cx="0" cy="18.89763779527559" r="3.779527559055118" stroke="black" fill="none" />
      </g>
      <g transform="rotate(288.0) translate(0 -302.3622047244094)">
        <line x1="0" y1="0" x2="0" y2="15.118110236220472" stroke="black" />
        <circle cx="0" cy="18.89763779527559" r="3.779527559055118" stroke="black" fill="none" />
      </g>
      <g transform="rotate(292.5) translate(0 -302.3622047244094)">
        <line x1="0" y1="0" x2="0" y2="15.118110236220472" stroke="black" />
        <circle cx="0" cy="18.89763779527559" r="3.779527559055118" stroke="black" fill="none" />
      </g>
      <g transform="rotate(297.0) translate(0 -302.3622047244094)">
        <line x1="0" y1="0" x2="0" y2="15.118110236220472" stroke="black" />
        <circle cx="0" cy="18.89763779527559" r="3.779527559055118" stroke="black" fill="none" />
      </g>
      <g transform="rotate(301.5) translate(0 -302.3622047244094)">
        <line x1="0" y1="0" x2="0" y2="15.118110236220472" stroke="black" />
        <circle cx="0" cy="18.89763779527559" r="3.779527559055118" stroke="black" fill="none" />
      </g>
      <g transform="rotate(306.0) translate(0 -302.3622047244094)">
        <line x1="0" y1="0" x2="0" y2="15.118110236220472" stroke="black" />
        <circle cx="0" cy="18.89763779527559" r="3.779527559055118" stroke="black" fill="none" />
      </g>
      <g transform="rotate(310.5) translate(0 -302.3622047244094)">
        <line x1="0" y1="0" x2="0" y2="15.118110236220472" stroke="black" />
        <circle cx="0" cy="18.89763779527559" r="3.779527559055118" stroke="black" fill="none" />
      </g>
      <g transform="rotate(315.0) translate(0 -302.3622047244094)">
        <line x1="0" y1="0" x2="0" y2="15.118110236220472" stroke="black" />
        <circle cx="0" cy="18.89763779527559" r="3.779527559055118" stroke="black" fill="none" />
      </g>
      <g transform="rotate(319.5) translate(0 -302.3622047244094)">
        <line x1="0" y1="0" x2="0" y2="15.118110236220472" stroke="black" />
        <circle cx="0" cy="18.89763779527559" r="3.779527559055118" stroke="black" fill="none" />
      </g>
      <g transform="rotate(324.0) translate(0 -302.3622047244094)">
        <line x1="0" y1="0" x2="0" y2="15.118110236220472" stroke="black" />
        <circle cx="0" cy="18.89763779527559" r="3.779527559055118" stroke="black" fill="none" />
      </g>
      <g transform="rotate(328.5) translate(0 -302.3622047244094)">
        <line x1="0" y1="0" x2="0" y2="15.118110236220472" stroke="black" />
        <circle cx="0" cy="18.89763779527559" r="3.779527559055118" stroke="black" fill="none" />
      </g>
      <g transform="rotate(333.0) translate(0 -302.3622047244094)">
        <line x1="0" y1="0" x2="0" y2="15.118110236220472" stroke="black" />
        <circle cx="0" cy="18.89763779527559" r="3.779527559055118" stroke="black" fill="none" />
      </g>
      <g transform="rotate(337.5) translate(0 -302.3622047244094)">
        <line x1="0" y1="0" x2="0" y2="15.118110236220472" stroke="black" />
        <circle cx="0" cy="18.89763779527559" r="3.779527559055118" stroke="black" fill="none" />
      </g>
      <g transform="rotate(342.0) translate(0 -302.3622047244094)">
        <line x1="0" y1="0" x2="0" y2="15.118110236220472" stroke="black" />
        <circle cx="0" cy="18.89763779527559" r="3.779527559055118" stroke="black" fill="none" />
      </g>
      <g transform="rotate(346.5) translate(0 -302.3622047244094)">
        <line x1="0" y1="0" x2="0" y2="15.118110236220472" stroke="black" />
        <circle cx="0" cy="18.89763779527559" r="3.779527559055118" stroke="black" fill="none" />
      </g>
      <g transform="rotate(351.0) translate(0 -302.3622047244094)">
        <line x1="0" y1="0" x2="0" y2="15.118110236220472" stroke="black" />
        <circle cx="0" cy="18.89763779527559" r="3.779527559055118" stroke="black" fill="none" />
      </g>
      <g transform="rotate(355.5) translate(0 -302.3622047244094)">
        <line x1="0" y1="0" x2="0" y2="15.118110236220472" stroke="black" />
        <circle cx="0" cy="18.89763779527559" r="3.779527559055118" stroke="black" fill="none" />
      </g>
    </g>
  </g>
</g>
</svg>
