<svg width="300" height="300" viewBox="-150 -150 300 300" fill="none" stroke="black" xmlns="http://www.w3.org/2000/svg" xmlns:xlink="http://www.w3.org/1999/xlink">
<g transform="scale(1 -1)">
  <g transform="scale(1 -1)">
    <circle cx="0" cy="0" r="170.07874015748033" stroke="red" fill="none" />
    <g>
      <circle cx="152.50393700787401" cy="0" r="2.456692913385827" stroke="black" fill="none" transform="rotate(0.0)" />
      <circle cx="152.50393700787401" cy="0" r="2.456692913385827" stroke="black" fill="none" transform="rotate(5.0)" />
      <circle cx="152.50393700787401" cy="0" r="2.456692913385827" stroke="black" fill="none" transform="rotate(10.0)" />
      <circle cx="152.50393700787401" cy="0" r="2.456692913385827" stroke="black" fill="none" transform="rotate(15.0)" />
      <circle cx="152.50393700787401" cy="0" r="2.456692913385827" stroke="black" fill="none" transform="rotate(20.0)" />
      <circle cx="152.50393700787401" cy="0" r="2.456692913385827" stroke="black" fill="none" transform="rotate(25.0)" />
      <circle cx="152.50393700787401" cy="0" r="2.456692913385827" stroke="black" fill="none" transform="rotate(30.0)" />
      <circle cx="152.50393700787401" cy="0" r="2.456692913385827" stroke="black" fill="none" transform="rotate(35.0)" />
      <circle cx="152.50393700787401" cy="0" r="2.456692913385827" stroke="black" fill="none" transform="rotate(40.0)" />
      <circle cx="152.50393700787401" cy="0" r="2.456692913385827" stroke="black" fill="none" transform="rotate(45.0)" />
      <circle cx="152.50393700787401" cy="0" r="2.456692913385827" stroke="black" fill="none" transform="rotate(50.0)" />
      <circle cx="152.50393700787401" cy="0" r="2.456692913385827" stroke="black" fill="none" transform="rotate(55.0)" />
      <circle cx="152.50393700787401" cy="0" r="2.456692913385827" stroke="black" fill="none" transform="rotate(60.0)" />
      <circle cx="152.50393700787401" cy="0" r="2.456692913385827" stroke="black" fill="none" transform="rotate(65.0)" />
      <circle cx="152.50393700787401" cy="0" r="2.456692913385827" stroke="black" fill="none" transform="rotate(70.0)" />
      <circle cx="152.50393700787401" cy="0" r="2.456692913385827" stroke="black" fill="none" transform="rotate(75.0)" />
      <circle cx="152.50393700787401" cy="0" r="2.456692913385827" stroke="black" fill="none" transform="rotate(80.0)" />
      <circle cx="152.50393700787401" cy="0" r="2.456692913385827" stroke="black" fill="none" transform="rotate(85.0)" />
      <circle cx="152.50393700787401" cy="0" r="2.456692913385827" stroke="black" fill="none" transform="rotate(90.0)" />
      <circle cx="152.50393700787401" cy="0" r="2.456692913385827" stroke="black" fill="none" transform="rotate(95.0)" />
      <circle cx="152.50393700787401" cy="0" r="2.456692913385827" stroke="black" fill="none" transform="rotate(100.0)" />
      <circle cx="152.50393700787401" cy="0" r="2.456692913385827" stroke="black" fill="none" transform="rotate(105.0)" />
      <circle cx="152.50393700787401" cy="0" r="2.456692913385827" stroke="black" fill="none" transform="rotate(110.0)" />
      <circle cx="152.50393700787401" cy="0" r="2.456692913385827" stroke="black" fill="none" transform="rotate(115.0)" />
      <circle cx="152.50393700787401" cy="0" r="2.456692913385827" stroke="black" fill="none" transform="rotate(120.0)" />
      <circle cx="152.50393700787401" cy="0" r="2.456692913385827" stroke="black" fill="none" transform="rotate(125.0)" />
      <circle cx="152.50393700787401" cy="0" r="2.456692913385827" stroke="black" fill="none" transform="rotate(130.0)" />
      <circle cx="152.50393700787401" cy="0" r="2.456692913385827" stroke="black" fill="none" transform="rotate(135.0)" />
      <circle cx="152.50393700787401" cy="0" r="2.456692913385827" stroke="black" fill="none" transform="rotate(140.0)" />
      <circle cx="152.50393700787401" cy="0" r="2.456692913385827" stroke="black" fill="none" transform="rotate(145.0)" />
      <circle cx="152.50393700787401" cy="0" r="2.456692913385827" stroke="black" fill="none" transform="rotate(150.0)" />
      <circle cx="152.50393700787401" cy="0" r="2.456692913385827" stroke="black" fill="none" transform="rotate(155.0)" />
      <circle cx="152.50393700787401" cy="0" r="2.456692913385827" stroke="black" fill="none" transform="rotate(160.0)" />
      <circle cx="152.50393700787401" cy="0" r="2.456692913385827" stroke="black" fill="none" transform="rotate(165.0)" />
      <circle cx="152.50393700787401" cy="0" r="2.456692913385827" stroke="black" fill="none" transform="rotate(170.0)" />
      <circle cx="152.50393700787401" cy="0" r="2.456692913385827" stroke="black" fill="none" transform="rotate(175.0)" />
      <circle cx="152.50393700787401" cy="0" r="2.456692913385827" stroke="black" fill="none" transform="rotate(180.0)" />
      <circle cx="152.50393700787401" cy="0" r="2.456692913385827" stroke="black" fill="none" transform="rotate(185.0)" />
      <circle cx="152.50393700787401" cy="0" r="2.456692913385827" stroke="black" fill="none" transform="rotate(190.0)" />
      <circle cx="152.50393700787401" cy="0" r="2.456692913385827" stroke="black" fill="none" transform="rotate(195.0)" />
      <circle cx="152.50393700787401" cy="0" r="2.456692913385827" stroke="black" fill="none" transform="rotate(200.0)" />
      <circle cx="152.50393700787401" cy="0" r="2.456692913385827" stroke="black" fill="none" transform="rotate(205.0)" />
      <circle cx="152.50393700787401" cy="0" r="2.456692913385827" stroke="black" fill="none" transform="rotate(210.0)" />
      <circle cx="152.50393700787401" cy="0" r="2.456692913385827" stroke="black" fill="none" transform="rotate(215.0)" />
      <circle cx="152.50393700787401" cy="0" r="2.456692913385827" stroke="black" fill="none" transform="rotate(220.0)" />
      <circle cx="152.50393700787401" cy="0" r="2.456692913385827" stroke="black" fill="none" transform="rotate(225.0)" />
      <circle cx="152.50393700787401" cy="0" r="2.456692913385827" stroke="black" fill="none" transform="rotate(230.0)" />
      <circle cx="152.50393700787401" cy="0" r="2.456692913385827" stroke="black" fill="none" transform="rotate(235.0)" />
      <circle cx="152.50393700787401" cy="0" r="2.456692913385827" stroke="black" fill="none" transform="rotate(240.0)" />
      <circle cx="152.50393700787401" cy="0" r="2.456692913385827" stroke="black" fill="none" transform="rotate(245.0)" />
      <circle cx="152.50393700787401" cy="0" r="2.456692913385827" stroke="black" fill="none" transform="rotate(250.0)" />
      <circle cx="152.50393700787401" cy="0" r="2.456692913385827" stroke="black" fill="none" transform="rotate(255.0)" />
      <circle cx="152.50393700787401" cy="0" r="2.456692913385827" stroke="black" fill="none" transform="rotate(260.0)" />
      <circle cx="152.50393700787401" cy="0" r="2.456692913385827" stroke="black" fill="none" transform="rotate(265.0)" />
      <circle cx="152.50393700787401" cy="0" r="2.456692913385827" stroke="black" fill="none" transform="rotate(270.0)" />
      <circle cx="152.50393700787401" cy="0" r="2.456692913385827" stroke="black" fill="none" transform="rotate(275.0)" />
      <circle cx="152.50393700787401" cy="0" r="2.456692913385827" stroke="black" fill="none" transform="rotate(280.0)" />
      <circle cx="152.50393700787401" cy="0" r="2.456692913385827" stroke="black" fill="none" transform="rotate(285.0)" />
      <circle cx="152.50393700787401" cy="0" r="2.456692913385827" stroke="black" fill="none" transform="rotate(290.0)" />
      <circle cx="152.50393700787401" cy="0" r="2.456692913385827" stroke="black" fill="none" transform="rotate(295.0)" />
      <circle cx="152.50393700787401" cy="0" r="2.456692913385827" stroke="black" fill="none" transform="rotate(300.0)" />
      <circle cx="152.50393700787401" cy="0" r="2.456692913385827" stroke="black" fill="none" transform="rotate(305.0)" />
      <circle cx="152.50393700787401" cy="0" r="2.456692913385827" stroke="black" fill="none" transform="rotate(310.0)" />
      <circle cx="152.50393700787401" cy="0" r="2.456692913385827" stroke="black" fill="none" transform="rotate(315.0)" />
      <circle cx="152.50393700787401" cy="0" r="2.456692913385827" stroke="black" fill="none" transform="rotate(320.0)" />
      <circle cx="152.50393700787401" cy="0" r="2.456692913385827" stroke="black" fill="none" transform="rotate(325.0)" />
      <circle cx="152.50393700787401" cy="0" r="2.456692913385827" stroke="black" fill="none" transform="rotate(330.0)" />
      <circle cx="152.50393700787401" cy="0" r="2.456692913385827" stroke="black" fill="none" transform="rotate(335.0)" />
      <circle cx="152.50393700787401" cy="0" r="2.456692913385827" stroke="black" fill="none" transform="rotate(340.0)" />
      <circle cx="152.50393700787401" cy="0" r="2.456692913385827" stroke="black" fill="none" transform="rotate(345.0)" />
      <circle cx="152.50393700787401" cy="0" r="2.456692913385827" stroke="black" fill="none" transform="rotate(350.0)" />
      <circle cx="152.50393700787401" cy="0" r="2.456692913385827" stroke="black" fill="none" transform="rotate(355.0)" />
    </g>
    <g>
      <circle cx="75.0236220472441" cy="0" r="2.456692913385827" stroke="black" fill="none" transform="rotate(0.0)" />
      <circle cx="75.0236220472441" cy="0" r="2.456692913385827" stroke="black" fill="none" transform="rotate(10.0)" />
      <circle cx="75.0236220472441" cy="0" r="2.456692913385827" stroke="black" fill="none" transform="rotate(20.0)" />
      <circle cx="75.0236220472441" cy="0" r="2.456692913385827" stroke="black" fill="none" transform="rotate(30.0)" />
      <circle cx="75.0236220472441" cy="0" r="2.456692913385827" stroke="black" fill="none" transform="rotate(40.0)" />
      <circle cx="75.0236220472441" cy="0" r="2.456692913385827" stroke="black" fill="none" transform="rotate(50.0)" />
      <circle cx="75.0236220472441" cy="0" r="2.456692913385827" stroke="black" fill="none" transform="rotate(60.0)" />
      <circle cx="75.0236220472441" cy="0" r="2.456692913385827" stroke="black" fill="none" transform="rotate(70.0)" />
      <circle cx="75.0236220472441" cy="0" r="2.456692913385827" stroke="black" fill="none" transform="rotate(80.0)" />
      <circle cx="75.0236220472441" cy="0" r="2.456692913385827" stroke="black" fill="none" transform="rotate(90.0)" />
      <circle cx="75.0236220472441" cy="0" r="2.456692913385827" stroke="black" fill="none" transform="rotate(100.0)" />
      <circle cx="75.0236220472441" cy="0" r="2.456692913385827" stroke="black" fill="none" transform="rotate(110.0)" />
      <circle cx="75.0236220472441" cy="0" r="2.456692913385827" stroke="black" fill="none" transform="rotate(120.0)" />
      <circle cx="75.0236220472441" cy="0" r="2.456692913385827" stroke="black" fill="none" transform="rotate(130.0)" />
      <circle cx="75.0236220472441" cy="0" r="2.456692913385827" stroke="black" fill="none" transform="rotate(140.0)" />
      <circle cx="75.0236220472441" cy="0" r="2.456692913385827" stroke="black" fill="none" transform="rotate(150.0)" />
      <circle cx="75.0236220472441" cy="0" r="2.456692913385827" stroke="black" fill="none" transform="rotate(160.0)" />
      <circle cx="75.0236220472441" cy="0" r="2.456692913385827" stroke="black" fill="none" transform="rotate(170.0)" />
      <circle cx="75.0236220472441" cy="0" r="2.456692913385827" stroke="black" fill="none" transform="rotate(180.0)" />
      <circle cx="75.0236220472441" cy="0" r="2.456692913385827" stroke="black" fill="none" transform="rotate(190.0)" />
      <circle cx="75.0236220472441" cy="0" r="2.456692913385827" stroke="black" fill="none" transform="rotate(200.0)" />
      <circle cx="75.0236220472441" cy="0" r="2.456692913385827" stroke="black" fill="none" transform="rotate(210.0)" />
      <circle cx="75.0236220472441" cy="0" r="2.456692913385827" stroke="black" fill="none" transform="rotate(220.0)" />
      <circle cx="75.0236220472441" cy="0" r="2.456692913385827" stroke="black" fill="none" transform="rotate(230.0)" />
      <circle cx="75.0236220472441" cy="0" r="2.456692913385827" stroke="black" fill="none" transform="rotate(240.0)" />
      <circle cx="75.0236220472441" cy="0" r="2.456692913385827" stroke="black" fill="none" transform="rotate(250.0)" />
      <circle cx="75.0236220472441" cy="0" r="2.456692913385827" stroke="black" fill="none" transform="rotate(260.0)" />
      <circle cx="75.0236220472441" cy="0" r="2.456692913385827" stroke="black" fill="none" transform="rotate(270.0)" />
      <circle cx="75.0236220472441" cy="0" r="2.456692913385827" stroke="black" fill="none" transform="rotate(280.0)" />
      <circle cx="75.0236220472441" cy="0" r="2.456692913385827" stroke="black" fill="none" transform="rotate(290.0)" />
      <circle cx="75.0236220472441" cy="0" r="2.456692913385827" stroke="black" fill="none" transform="rotate(300.0)" />
      <circle cx="75.0236220472441" cy="0" r="2.456692913385827" stroke="black" fill="none" transform="rotate(310.0)" />
      <circle cx="75.0236220472441" cy="0" r="2.456692913385827" stroke="black" fill="none" transform="rotate(320.0)" />
      <circle cx="75.0236220472441" cy="0" r="2.456692913385827" stroke="black" fill="none" transform="rotate(330.0)" />
      <circle cx="75.0236220472441" cy="0" r="2.456692913385827" stroke="black" fill="none" transform="rotate(340.0)" />
      <circle cx="75.0236220472441" cy="0" r="2.456692913385827" stroke="black" fill="none" transform="rotate(350.0)" />
    </g>
  </g>
</g>
</svg>
