<svg width="300" height="300" viewBox="-150 -150 300 300" fill="none" stroke="black" xmlns="http://www.w3.org/2000/svg" xmlns:xlink="http://www.w3.org/1999/xlink">
<g transform="scale(1 -1)">
  <g transform="scale(1 -1)">
    <g>
      <circle cx="0" cy="0" r="170.07874015748033" stroke="red" fill="none" />
      <g>
        <g transform="rotate(0.0) translate(15.461703650680029 0)">
          <circle cx="0" cy="0" r="2.267716535433071" stroke="black" fill="none" transform="translate(0.0 0)" />
          <circle cx="0" cy="0" r="2.267716535433071" stroke="black" fill="none" transform="translate(15.461703650680029 0)" />
          <circle cx="0" cy="0" r="2.267716535433071" stroke="black" fill="none" transform="translate(30.923407301360058 0)" />
          <circle cx="0" cy="0" r="2.267716535433071" stroke="black" fill="none" transform="translate(46.38511095204009 0)" />
          <circle cx="0" cy="0" r="2.267716535433071" stroke="black" fill="none" transform="translate(61.846814602720116 0)" />
          <circle cx="0" cy="0" r="2.267716535433071" stroke="black" fill="none" transform="translate(77.30851825340014 0)" />
          <circle cx="0" cy="0" r="2.267716535433071" stroke="black" fill="none" transform="translate(92.77022190408017 0)" />
          <circle cx="0" cy="0" r="2.267716535433071" stroke="black" fill="none" transform="translate(108.23192555476021 0)" />
          <circle cx="0" cy="0" r="2.267716535433071" stroke="black" fill="none" transform="translate(123.69362920544023 0)" />
        </g>
        <g transform="rotate(72.0) translate(15.461703650680029 0)">
          <circle cx="0" cy="0" r="2.267716535433071" stroke="black" fill="none" transform="translate(0.0 0)" />
          <circle cx="0" cy="0" r="2.267716535433071" stroke="black" fill="none" transform="translate(15.461703650680029 0)" />
          <circle cx="0" cy="0" r="2.267716535433071" stroke="black" fill="none" transform="translate(30.923407301360058 0)" />
          <circle cx="0" cy="0" r="2.267716535433071" stroke="black" fill="none" transform="translate(46.38511095204009 0)" />
          <circle cx="0" cy="0" r="2.267716535433071" stroke="black" fill="none" transform="translate(61.846814602720116 0)" />
          <circle cx="0" cy="0" r="2.267716535433071" stroke="black" fill="none" transform="translate(77.30851825340014 0)" />
          <circle cx="0" cy="0" r="2.267716535433071" stroke="black" fill="none" transform="translate(92.77022190408017 0)" />
          <circle cx="0" cy="0" r="2.267716535433071" stroke="black" fill="none" transform="translate(108.23192555476021 0)" />
          <circle cx="0" cy="0" r="2.267716535433071" stroke="black" fill="none" transform="translate(123.69362920544023 0)" />
        </g>
        <g transform="rotate(144.0) translate(15.461703650680029 0)">
          <circle cx="0" cy="0" r="2.267716535433071" stroke="black" fill="none" transform="translate(0.0 0)" />
          <circle cx="0" cy="0" r="2.267716535433071" stroke="black" fill="none" transform="translate(15.461703650680029 0)" />
          <circle cx="0" cy="0" r="2.267716535433071" stroke="black" fill="none" transform="translate(30.923407301360058 0)" />
          <circle cx="0" cy="0" r="2.267716535433071" stroke="black" fill="none" transform="translate(46.38511095204009 0)" />
          <circle cx="0" cy="0" r="2.267716535433071" stroke="black" fill="none" transform="translate(61.846814602720116 0)" />
          <circle cx="0" cy="0" r="2.267716535433071" stroke="black" fill="none" transform="translate(77.30851825340014 0)" />
          <circle cx="0" cy="0" r="2.267716535433071" stroke="black" fill="none" transform="translate(92.77022190408017 0)" />
          <circle cx="0" cy="0" r="2.267716535433071" stroke="black" fill="none" transform="translate(108.23192555476021 0)" />
          <circle cx="0" cy="0" r="2.267716535433071" stroke="black" fill="none" transform="translate(123.69362920544023 0)" />
        </g>
        <g transform="rotate(216.0) translate(15.461703650680029 0)">
          <circle cx="0" cy="0" r="2.267716535433071" stroke="black" fill="none" transform="translate(0.0 0)" />
          <circle cx="0" cy="0" r="2.267716535433071" stroke="black" fill="none" transform="translate(15.461703650680029 0)" />
          <circle cx="0" cy="0" r="2.267716535433071" stroke="black" fill="none" transform="translate(30.923407301360058 0)" />
          <circle cx="0" cy="0" r="2.267716535433071" stroke="black" fill="none" transform="translate(46.38511095204009 0)" />
          <circle cx="0" cy="0" r="2.267716535433071" stroke="black" fill="none" transform="translate(61.846814602720116 0)" />
          <circle cx="0" cy="0" r="2.267716535433071" stroke="black" fill="none" transform="translate(77.30851825340014 0)" />
          <circle cx="0" cy="0" r="2.267716535433071" stroke="black" fill="none" transform="translate(92.77022190408017 0)" />
          <circle cx="0" cy="0" r="2.267716535433071" stroke="black" fill="none" transform="translate(108.23192555476021 0)" />
          <circle cx="0" cy="0" r="2.267716535433071" stroke="black" fill="none" transform="translate(123.69362920544023 0)" />
        </g>
        <g transform="rotate(288.0) translate(15.461703650680029 0)">
          <circle cx="0" cy="0" r="2.267716535433071" stroke="black" fill="none" transform="translate(0.0 0)" />
          <circle cx="0" cy="0" r="2.267716535433071" stroke="black" fill="none" transform="translate(15.461703650680029 0)" />
          <circle cx="0" cy="0" r="2.267716535433071" stroke="black" fill="none" transform="translate(30.923407301360058 0)" />
          <circle cx="0" cy="0" r="2.267716535433071" stroke="black" fill="none" transform="translate(46.38511095204009 0)" />
          <circle cx="0" cy="0" r="2.267716535433071" stroke="black" fill="none" transform="translate(61.846814602720116 0)" />
          <circle cx="0" cy="0" r="2.267716535433071" stroke="black" fill="none" transform="translate(77.30851825340014 0)" />
          <circle cx="0" cy="0" r="2.267716535433071" stroke="black" fill="none" transform="translate(92.77022190408017 0)" />
          <circle cx="0" cy="0" r="2.267716535433071" stroke="black" fill="none" transform="translate(108.23192555476021 0)" />
          <circle cx="0" cy="0" r="2.267716535433071" stroke="black" fill="none" transform="translate(123.69362920544023 0)" />
        </g>
      </g>
    </g>
    <g>
      <circle cx="154.6170365068003" cy="0" r="2.456692913385827" stroke="black" fill="none" transform="rotate(0.0)" />
      <circle cx="154.6170365068003" cy="0" r="2.456692913385827" stroke="black" fill="none" transform="rotate(6.545454545454546)" />
      <circle cx="154.6170365068003" cy="0" r="2.456692913385827" stroke="black" fill="none" transform="rotate(13.090909090909092)" />
      <circle cx="154.6170365068003" cy="0" r="2.456692913385827" stroke="black" fill="none" transform="rotate(19.636363636363637)" />
      <circle cx="154.6170365068003" cy="0" r="2.456692913385827" stroke="black" fill="none" transform="rotate(26.181818181818183)" />
      <circle cx="154.6170365068003" cy="0" r="2.456692913385827" stroke="black" fill="none" transform="rotate(32.72727272727273)" />
      <circle cx="154.6170365068003" cy="0" r="2.456692913385827" stroke="black" fill="none" transform="rotate(39.27272727272727)" />
      <circle cx="154.6170365068003" cy="0" r="2.456692913385827" stroke="black" fill="none" transform="rotate(45.81818181818182)" />
      <circle cx="154.6170365068003" cy="0" r="2.456692913385827" stroke="black" fill="none" transform="rotate(52.36363636363637)" />
      <circle cx="154.6170365068003" cy="0" r="2.456692913385827" stroke="black" fill="none" transform="rotate(58.909090909090914)" />
      <circle cx="154.6170365068003" cy="0" r="2.456692913385827" stroke="black" fill="none" transform="rotate(65.45454545454545)" />
      <circle cx="154.6170365068003" cy="0" r="2.456692913385827" stroke="black" fill="none" transform="rotate(72.0)" />
      <circle cx="154.6170365068003" cy="0" r="2.456692913385827" stroke="black" fill="none" transform="rotate(78.54545454545455)" />
      <circle cx="154.6170365068003" cy="0" r="2.456692913385827" stroke="black" fill="none" transform="rotate(85.0909090909091)" />
      <circle cx="154.6170365068003" cy="0" r="2.456692913385827" stroke="black" fill="none" transform="rotate(91.63636363636364)" />
      <circle cx="154.6170365068003" cy="0" r="2.456692913385827" stroke="black" fill="none" transform="rotate(98.18181818181819)" />
      <circle cx="154.6170365068003" cy="0" r="2.456692913385827" stroke="black" fill="none" transform="rotate(104.72727272727273)" />
      <circle cx="154.6170365068003" cy="0" r="2.456692913385827" stroke="black" fill="none" transform="rotate(111.27272727272728)" />
      <circle cx="154.6170365068003" cy="0" r="2.456692913385827" stroke="black" fill="none" transform="rotate(117.81818181818183)" />
      <circle cx="154.6170365068003" cy="0" r="2.456692913385827" stroke="black" fill="none" transform="rotate(124.36363636363637)" />
      <circle cx="154.6170365068003" cy="0" r="2.456692913385827" stroke="black" fill="none" transform="rotate(130.9090909090909)" />
      <circle cx="154.6170365068003" cy="0" r="2.456692913385827" stroke="black" fill="none" transform="rotate(137.45454545454547)" />
      <circle cx="154.6170365068003" cy="0" r="2.456692913385827" stroke="black" fill="none" transform="rotate(144.0)" />
      <circle cx="154.6170365068003" cy="0" r="2.456692913385827" stroke="black" fill="none" transform="rotate(150.54545454545456)" />
      <circle cx="154.6170365068003" cy="0" r="2.456692913385827" stroke="black" fill="none" transform="rotate(157.0909090909091)" />
      <circle cx="154.6170365068003" cy="0" r="2.456692913385827" stroke="black" fill="none" transform="rotate(163.63636363636365)" />
      <circle cx="154.6170365068003" cy="0" r="2.456692913385827" stroke="black" fill="none" transform="rotate(170.1818181818182)" />
      <circle cx="154.6170365068003" cy="0" r="2.456692913385827" stroke="black" fill="none" transform="rotate(176.72727272727275)" />
      <circle cx="154.6170365068003" cy="0" r="2.456692913385827" stroke="black" fill="none" transform="rotate(183.27272727272728)" />
      <circle cx="154.6170365068003" cy="0" r="2.456692913385827" stroke="black" fill="none" transform="rotate(189.81818181818184)" />
      <circle cx="154.6170365068003" cy="0" r="2.456692913385827" stroke="black" fill="none" transform="rotate(196.36363636363637)" />
      <circle cx="154.6170365068003" cy="0" r="2.456692913385827" stroke="black" fill="none" transform="rotate(202.90909090909093)" />
      <circle cx="154.6170365068003" cy="0" r="2.456692913385827" stroke="black" fill="none" transform="rotate(209.45454545454547)" />
      <circle cx="154.6170365068003" cy="0" r="2.456692913385827" stroke="black" fill="none" transform="rotate(216.0)" />
      <circle cx="154.6170365068003" cy="0" r="2.456692913385827" stroke="black" fill="none" transform="rotate(222.54545454545456)" />
      <circle cx="154.6170365068003" cy="0" r="2.456692913385827" stroke="black" fill="none" transform="rotate(229.0909090909091)" />
      <circle cx="154.6170365068003" cy="0" r="2.456692913385827" stroke="black" fill="none" transform="rotate(235.63636363636365)" />
      <circle cx="154.6170365068003" cy="0" r="2.456692913385827" stroke="black" fill="none" transform="rotate(242.1818181818182)" />
      <circle cx="154.6170365068003" cy="0" r="2.456692913385827" stroke="black" fill="none" transform="rotate(248.72727272727275)" />
      <circle cx="154.6170365068003" cy="0" r="2.456692913385827" stroke="black" fill="none" transform="rotate(255.27272727272728)" />
      <circle cx="154.6170365068003" cy="0" r="2.456692913385827" stroke="black" fill="none" transform="rotate(261.8181818181818)" />
      <circle cx="154.6170365068003" cy="0" r="2.456692913385827" stroke="black" fill="none" transform="rotate(268.3636363636364)" />
      <circle cx="154.6170365068003" cy="0" r="2.456692913385827" stroke="black" fill="none" transform="rotate(274.90909090909093)" />
      <circle cx="154.6170365068003" cy="0" r="2.456692913385827" stroke="black" fill="none" transform="rotate(281.4545454545455)" />
      <circle cx="154.6170365068003" cy="0" r="2.456692913385827" stroke="black" fill="none" transform="rotate(288.0)" />
      <circle cx="154.6170365068003" cy="0" r="2.456692913385827" stroke="black" fill="none" transform="rotate(294.54545454545456)" />
      <circle cx="154.6170365068003" cy="0" r="2.456692913385827" stroke="black" fill="none" transform="rotate(301.0909090909091)" />
      <circle cx="154.6170365068003" cy="0" r="2.456692913385827" stroke="black" fill="none" transform="rotate(307.6363636363637)" />
      <circle cx="154.6170365068003" cy="0" r="2.456692913385827" stroke="black" fill="none" transform="rotate(314.1818181818182)" />
      <circle cx="154.6170365068003" cy="0" r="2.456692913385827" stroke="black" fill="none" transform="rotate(320.72727272727275)" />
      <circle cx="154.6170365068003" cy="0" r="2.456692913385827" stroke="black" fill="none" transform="rotate(327.2727272727273)" />
      <circle cx="154.6170365068003" cy="0" r="2.456692913385827" stroke="black" fill="none" transform="rotate(333.8181818181818)" />
      <circle cx="154.6170365068003" cy="0" r="2.456692913385827" stroke="black" fill="none" transform="rotate(340.3636363636364)" />
      <circle cx="154.6170365068003" cy="0" r="2.456692913385827" stroke="black" fill="none" transform="rotate(346.90909090909093)" />
      <circle cx="154.6170365068003" cy="0" r="2.456692913385827" stroke="black" fill="none" transform="rotate(353.4545454545455)" />
    </g>
  </g>
</g>
</svg>
