<svg width="300" height="300" viewBox="-150 -150 300 300" fill="none" stroke="black" xmlns="http://www.w3.org/2000/svg" xmlns:xlink="http://www.w3.org/1999/xlink">
<g transform="scale(1 -1)">
  <g transform="scale(1 -1)">
    <g>
      <circle cx="0" cy="0" r="170.07874015748033" stroke="red" fill="none" />
      <g>
        <g transform="rotate(0.0) translate(15.461703650680029 0)">
          <circle cx="0" cy="0" r="2.267716535433071" stroke="black" fill="none" transform="translate(0.0 0)" />
          <circle cx="0" cy="0" r="2.267716535433071" stroke="black" fill="none" transform="translate(15.461703650680029 0)" />
          <circle cx="0" cy="0" r="2.267716535433071" stroke="black" fill="none" transform="translate(30.923407301360058 0)" />
          <circle cx="0" cy="0" r="2.267716535433071" stroke="black" fill="none" transform="translate(46.38511095204009 0)" />
          <circle cx="0" cy="0" r="2.267716535433071" stroke="black" fill="none" transform="translate(61.846814602720116 0)" />
          <circle cx="0" cy="0" r="2.267716535433071" stroke="black" fill="none" transform="translate(77.30851825340014 0)" />
          <circle cx="0" cy="0" r="2.267716535433071" stroke="black" fill="none" transform="translate(92.77022190408017 0)" />
          <circle cx="0" cy="0" r="2.267716535433071" stroke="black" fill="none" transform="translate(108.23192555476021 0)" />
          <circle cx="0" cy="0" r="2.267716535433071" stroke="black" fill="none" transform="translate(123.69362920544023 0)" />
        </g>
        <g transform="rotate(60.0) translate(15.461703650680029 0)">
          <circle cx="0" cy="0" r="2.267716535433071" stroke="black" fill="none" transform="translate(0.0 0)" />
          <circle cx="0" cy="0" r="2.267716535433071" stroke="black" fill="none" transform="translate(15.461703650680029 0)" />
          <circle cx="0" cy="0" r="2.267716535433071" stroke="black" fill="none" transform="translate(30.923407301360058 0)" />
          <circle cx="0" cy="0" r="2.267716535433071" stroke="black" fill="none" transform="translate(46.38511095204009 0)" />
          <circle cx="0" cy="0" r="2.267716535433071" stroke="black" fill="none" transform="translate(61.846814602720116 0)" />
          <circle cx="0" cy="0" r="2.267716535433071" stroke="black" fill="none" transform="translate(77.30851825340014 0)" />
          <circle cx="0" cy="0" r="2.267716535433071" stroke="black" fill="none" transform="translate(92.77022190408017 0)" />
          <circle cx="0" cy="0" r="2.267716535433071" stroke="black" fill="none" transform="translate(108.23192555476021 0)" />
          <circle cx="0" cy="0" r="2.267716535433071" stroke="black" fill="none" transform="translate(123.69362920544023 0)" />
        </g>
        <g transform="rotate(120.0) translate(15.461703650680029 0)">
          <circle cx="0" cy="0" r="2.267716535433071" stroke="black" fill="none" transform="translate(0.0 0)" />
          <circle cx="0" cy="0" r="2.267716535433071" stroke="black" fill="none" transform="translate(15.461703650680029 0)" />
          <circle cx="0" cy="0" r="2.267716535433071" stroke="black" fill="none" transform="translate(30.923407301360058 0)" />
          <circle cx="0" cy="0" r="2.267716535433071" stroke="black" fill="none" transform="translate(46.38511095204009 0)" />
          <circle cx="0" cy="0" r="2.267716535433071" stroke="black" fill="none" transform="translate(61.846814602720116 0)" />
          <circle cx="0" cy="0" r="2.267716535433071" stroke="black" fill="none" transform="translate(77.30851825340014 0)" />
          <circle cx="0" cy="0" r="2.267716535433071" stroke="black" fill="none" transform="translate(92.77022190408017 0)" />
          <circle cx="0" cy="0" r="2.267716535433071" stroke="black" fill="none" transform="translate(108.23192555476021 0)" />
          <circle cx="0" cy="0" r="2.267716535433071" stroke="black" fill="none" transform="translate(123.69362920544023 0)" />
        </g>
        <g transform="rotate(180.0) translate(15.461703650680029 0)">
          <circle cx="0" cy="0" r="2.267716535433071" stroke="black" fill="none" transform="translate(0.0 0)" />
          <circle cx="0" cy="0" r="2.267716535433071" stroke="black" fill="none" transform="translate(15.461703650680029 0)" />
          <circle cx="0" cy="0" r="2.267716535433071" stroke="black" fill="none" transform="translate(30.923407301360058 0)" />
          <circle cx="0" cy="0" r="2.267716535433071" stroke="black" fill="none" transform="translate(46.38511095204009 0)" />
          <circle cx="0" cy="0" r="2.267716535433071" stroke="black" fill="none" transform="translate(61.846814602720116 0)" />
          <circle cx="0" cy="0" r="2.267716535433071" stroke="black" fill="none" transform="translate(77.30851825340014 0)" />
          <circle cx="0" cy="0" r="2.267716535433071" stroke="black" fill="none" transform="translate(92.77022190408017 0)" />
          <circle cx="0" cy="0" r="2.267716535433071" stroke="black" fill="none" transform="translate(108.23192555476021 0)" />
          <circle cx="0" cy="0" r="2.267716535433071" stroke="black" fill="none" transform="translate(123.69362920544023 0)" />
        </g>
        <g transform="rotate(240.0) translate(15.461703650680029 0)">
          <circle cx="0" cy="0" r="2.267716535433071" stroke="black" fill="none" transform="translate(0.0 0)" />
          <circle cx="0" cy="0" r="2.267716535433071" stroke="black" fill="none" transform="translate(15.461703650680029 0)" />
          <circle cx="0" cy="0" r="2.267716535433071" stroke="black" fill="none" transform="translate(30.923407301360058 0)" />
          <circle cx="0" cy="0" r="2.267716535433071" stroke="black" fill="none" transform="translate(46.38511095204009 0)" />
          <circle cx="0" cy="0" r="2.267716535433071" stroke="black" fill="none" transform="translate(61.846814602720116 0)" />
          <circle cx="0" cy="0" r="2.267716535433071" stroke="black" fill="none" transform="translate(77.30851825340014 0)" />
          <circle cx="0" cy="0" r="2.267716535433071" stroke="black" fill="none" transform="translate(92.77022190408017 0)" />
          <circle cx="0" cy="0" r="2.267716535433071" stroke="black" fill="none" transform="translate(108.23192555476021 0)" />
          <circle cx="0" cy="0" r="2.267716535433071" stroke="black" fill="none" transform="translate(123.69362920544023 0)" />
        </g>
        <g transform="rotate(300.0) translate(15.461703650680029 0)">
          <circle cx="0" cy="0" r="2.267716535433071" stroke="black" fill="none" transform="translate(0.0 0)" />
          <circle cx="0" cy="0" r="2.267716535433071" stroke="black" fill="none" transform="translate(15.461703650680029 0)" />
          <circle cx="0" cy="0" r="2.267716535433071" stroke="black" fill="none" transform="translate(30.923407301360058 0)" />
          <circle cx="0" cy="0" r="2.267716535433071" stroke="black" fill="none" transform="translate(46.38511095204009 0)" />
          <circle cx="0" cy="0" r="2.267716535433071" stroke="black" fill="none" transform="translate(61.846814602720116 0)" />
          <circle cx="0" cy="0" r="2.267716535433071" stroke="black" fill="none" transform="translate(77.30851825340014 0)" />
          <circle cx="0" cy="0" r="2.267716535433071" stroke="black" fill="none" transform="translate(92.77022190408017 0)" />
          <circle cx="0" cy="0" r="2.267716535433071" stroke="black" fill="none" transform="translate(108.23192555476021 0)" />
          <circle cx="0" cy="0" r="2.267716535433071" stroke="black" fill="none" transform="translate(123.69362920544023 0)" />
        </g>
      </g>
    </g>
    <g>
      <circle cx="154.6170365068003" cy="0" r="2.456692913385827" stroke="black" fill="none" transform="rotate(0.0)" />
      <circle cx="154.6170365068003" cy="0" r="2.456692913385827" stroke="black" fill="none" transform="rotate(5.454545454545454)" />
      <circle cx="154.6170365068003" cy="0" r="2.456692913385827" stroke="black" fill="none" transform="rotate(10.909090909090908)" />
      <circle cx="154.6170365068003" cy="0" r="2.456692913385827" stroke="black" fill="none" transform="rotate(16.363636363636363)" />
      <circle cx="154.6170365068003" cy="0" r="2.456692913385827" stroke="black" fill="none" transform="rotate(21.818181818181817)" />
      <circle cx="154.6170365068003" cy="0" r="2.456692913385827" stroke="black" fill="none" transform="rotate(27.27272727272727)" />
      <circle cx="154.6170365068003" cy="0" r="2.456692913385827" stroke="black" fill="none" transform="rotate(32.72727272727273)" />
      <circle cx="154.6170365068003" cy="0" r="2.456692913385827" stroke="black" fill="none" transform="rotate(38.18181818181818)" />
      <circle cx="154.6170365068003" cy="0" r="2.456692913385827" stroke="black" fill="none" transform="rotate(43.63636363636363)" />
      <circle cx="154.6170365068003" cy="0" r="2.456692913385827" stroke="black" fill="none" transform="rotate(49.090909090909086)" />
      <circle cx="154.6170365068003" cy="0" r="2.456692913385827" stroke="black" fill="none" transform="rotate(54.54545454545454)" />
      <circle cx="154.6170365068003" cy="0" r="2.456692913385827" stroke="black" fill="none" transform="rotate(59.99999999999999)" />
      <circle cx="154.6170365068003" cy="0" r="2.456692913385827" stroke="black" fill="none" transform="rotate(65.45454545454545)" />
      <circle cx="154.6170365068003" cy="0" r="2.456692913385827" stroke="black" fill="none" transform="rotate(70.9090909090909)" />
      <circle cx="154.6170365068003" cy="0" r="2.456692913385827" stroke="black" fill="none" transform="rotate(76.36363636363636)" />
      <circle cx="154.6170365068003" cy="0" r="2.456692913385827" stroke="black" fill="none" transform="rotate(81.81818181818181)" />
      <circle cx="154.6170365068003" cy="0" r="2.456692913385827" stroke="black" fill="none" transform="rotate(87.27272727272727)" />
      <circle cx="154.6170365068003" cy="0" r="2.456692913385827" stroke="black" fill="none" transform="rotate(92.72727272727272)" />
      <circle cx="154.6170365068003" cy="0" r="2.456692913385827" stroke="black" fill="none" transform="rotate(98.18181818181817)" />
      <circle cx="154.6170365068003" cy="0" r="2.456692913385827" stroke="black" fill="none" transform="rotate(103.63636363636363)" />
      <circle cx="154.6170365068003" cy="0" r="2.456692913385827" stroke="black" fill="none" transform="rotate(109.09090909090908)" />
      <circle cx="154.6170365068003" cy="0" r="2.456692913385827" stroke="black" fill="none" transform="rotate(114.54545454545453)" />
      <circle cx="154.6170365068003" cy="0" r="2.456692913385827" stroke="black" fill="none" transform="rotate(119.99999999999999)" />
      <circle cx="154.6170365068003" cy="0" r="2.456692913385827" stroke="black" fill="none" transform="rotate(125.45454545454544)" />
      <circle cx="154.6170365068003" cy="0" r="2.456692913385827" stroke="black" fill="none" transform="rotate(130.9090909090909)" />
      <circle cx="154.6170365068003" cy="0" r="2.456692913385827" stroke="black" fill="none" transform="rotate(136.36363636363635)" />
      <circle cx="154.6170365068003" cy="0" r="2.456692913385827" stroke="black" fill="none" transform="rotate(141.8181818181818)" />
      <circle cx="154.6170365068003" cy="0" r="2.456692913385827" stroke="black" fill="none" transform="rotate(147.27272727272725)" />
      <circle cx="154.6170365068003" cy="0" r="2.456692913385827" stroke="black" fill="none" transform="rotate(152.72727272727272)" />
      <circle cx="154.6170365068003" cy="0" r="2.456692913385827" stroke="black" fill="none" transform="rotate(158.18181818181816)" />
      <circle cx="154.6170365068003" cy="0" r="2.456692913385827" stroke="black" fill="none" transform="rotate(163.63636363636363)" />
      <circle cx="154.6170365068003" cy="0" r="2.456692913385827" stroke="black" fill="none" transform="rotate(169.09090909090907)" />
      <circle cx="154.6170365068003" cy="0" r="2.456692913385827" stroke="black" fill="none" transform="rotate(174.54545454545453)" />
      <circle cx="154.6170365068003" cy="0" r="2.456692913385827" stroke="black" fill="none" transform="rotate(180.0)" />
      <circle cx="154.6170365068003" cy="0" r="2.456692913385827" stroke="black" fill="none" transform="rotate(185.45454545454544)" />
      <circle cx="154.6170365068003" cy="0" r="2.456692913385827" stroke="black" fill="none" transform="rotate(190.9090909090909)" />
      <circle cx="154.6170365068003" cy="0" r="2.456692913385827" stroke="black" fill="none" transform="rotate(196.36363636363635)" />
      <circle cx="154.6170365068003" cy="0" r="2.456692913385827" stroke="black" fill="none" transform="rotate(201.8181818181818)" />
      <circle cx="154.6170365068003" cy="0" r="2.456692913385827" stroke="black" fill="none" transform="rotate(207.27272727272725)" />
      <circle cx="154.6170365068003" cy="0" r="2.456692913385827" stroke="black" fill="none" transform="rotate(212.72727272727272)" />
      <circle cx="154.6170365068003" cy="0" r="2.456692913385827" stroke="black" fill="none" transform="rotate(218.18181818181816)" />
      <circle cx="154.6170365068003" cy="0" r="2.456692913385827" stroke="black" fill="none" transform="rotate(223.63636363636363)" />
      <circle cx="154.6170365068003" cy="0" r="2.456692913385827" stroke="black" fill="none" transform="rotate(229.09090909090907)" />
      <circle cx="154.6170365068003" cy="0" r="2.456692913385827" stroke="black" fill="none" transform="rotate(234.54545454545453)" />
      <circle cx="154.6170365068003" cy="0" r="2.456692913385827" stroke="black" fill="none" transform="rotate(239.99999999999997)" />
      <circle cx="154.6170365068003" cy="0" r="2.456692913385827" stroke="black" fill="none" transform="rotate(245.45454545454544)" />
      <circle cx="154.6170365068003" cy="0" r="2.456692913385827" stroke="black" fill="none" transform="rotate(250.90909090909088)" />
      <circle cx="154.6170365068003" cy="0" r="2.456692913385827" stroke="black" fill="none" transform="rotate(256.3636363636363)" />
      <circle cx="154.6170365068003" cy="0" r="2.456692913385827" stroke="black" fill="none" transform="rotate(261.8181818181818)" />
      <circle cx="154.6170365068003" cy="0" r="2.456692913385827" stroke="black" fill="none" transform="rotate(267.27272727272725)" />
      <circle cx="154.6170365068003" cy="0" r="2.456692913385827" stroke="black" fill="none" transform="rotate(272.7272727272727)" />
      <circle cx="154.6170365068003" cy="0" r="2.456692913385827" stroke="black" fill="none" transform="rotate(278.1818181818182)" />
      <circle cx="154.6170365068003" cy="0" r="2.456692913385827" stroke="black" fill="none" transform="rotate(283.6363636363636)" />
      <circle cx="154.6170365068003" cy="0" r="2.456692913385827" stroke="black" fill="none" transform="rotate(289.09090909090907)" />
      <circle cx="154.6170365068003" cy="0" r="2.456692913385827" stroke="black" fill="none" transform="rotate(294.5454545454545)" />
      <circle cx="154.6170365068003" cy="0" r="2.456692913385827" stroke="black" fill="none" transform="rotate(300.0)" />
      <circle cx="154.6170365068003" cy="0" r="2.456692913385827" stroke="black" fill="none" transform="rotate(305.45454545454544)" />
      <circle cx="154.6170365068003" cy="0" r="2.456692913385827" stroke="black" fill="none" transform="rotate(310.9090909090909)" />
      <circle cx="154.6170365068003" cy="0" r="2.456692913385827" stroke="black" fill="none" transform="rotate(316.3636363636363)" />
      <circle cx="154.6170365068003" cy="0" r="2.456692913385827" stroke="black" fill="none" transform="rotate(321.8181818181818)" />
      <circle cx="154.6170365068003" cy="0" r="2.456692913385827" stroke="black" fill="none" transform="rotate(327.27272727272725)" />
      <circle cx="154.6170365068003" cy="0" r="2.456692913385827" stroke="black" fill="none" transform="rotate(332.7272727272727)" />
      <circle cx="154.6170365068003" cy="0" r="2.456692913385827" stroke="black" fill="none" transform="rotate(338.18181818181813)" />
      <circle cx="154.6170365068003" cy="0" r="2.456692913385827" stroke="black" fill="none" transform="rotate(343.6363636363636)" />
      <circle cx="154.6170365068003" cy="0" r="2.456692913385827" stroke="black" fill="none" transform="rotate(349.09090909090907)" />
      <circle cx="154.6170365068003" cy="0" r="2.456692913385827" stroke="black" fill="none" transform="rotate(354.5454545454545)" />
    </g>
  </g>
</g>
</svg>
