<svg width="300" height="300" viewBox="-150 -150 300 300" fill="none" stroke="black" xmlns="http://www.w3.org/2000/svg" xmlns:xlink="http://www.w3.org/1999/xlink">
<g transform="scale(1 -1)">
  <g transform="scale(1 -1)">
    <g transform="rotate(0.0) translate(0 -98.19500641335371)">
      <line x1="-170.07874015748033" y1="0" x2="170.07874015748033" y2="0" stroke="red" />
      <g transform="translate(-124.7244094488189 0)">
        <g transform="translate(0.0 0)">
          <line x1="0" y1="0" x2="0" y2="11.338582677165354" stroke="black" />
          <circle cx="0" cy="13.795275590551181" r="2.456692913385827" stroke="black" fill="none" />
        </g>
        <g transform="translate(22.67716535433071 0)">
          <line x1="0" y1="0" x2="0" y2="11.338582677165354" stroke="black" />
          <circle cx="0" cy="13.795275590551181" r="2.456692913385827" stroke="black" fill="none" />
        </g>
        <g transform="translate(45.35433070866142 0)">
          <line x1="0" y1="0" x2="0" y2="11.338582677165354" stroke="black" />
          <circle cx="0" cy="13.795275590551181" r="2.456692913385827" stroke="black" fill="none" />
        </g>
        <g transform="translate(68.03149606299213 0)">
          <line x1="0" y1="0" x2="0" y2="11.338582677165354" stroke="black" />
          <circle cx="0" cy="13.795275590551181" r="2.456692913385827" stroke="black" fill="none" />
        </g>
        <g transform="translate(90.70866141732284 0)">
          <line x1="0" y1="0" x2="0" y2="11.338582677165354" stroke="black" />
          <circle cx="0" cy="13.795275590551181" r="2.456692913385827" stroke="black" fill="none" />
        </g>
        <g transform="translate(113.38582677165356 0)">
          <line x1="0" y1="0" x2="0" y2="11.338582677165354" stroke="black" />
          <circle cx="0" cy="13.795275590551181" r="2.456692913385827" stroke="black" fill="none" />
        </g>
        <g transform="translate(136.06299212598427 0)">
          <line x1="0" y1="0" x2="0" y2="11.338582677165354" stroke="black" />
          <circle cx="0" cy="13.795275590551181" r="2.456692913385827" stroke="black" fill="none" />
        </g>
        <g transform="translate(158.74015748031496 0)">
          <line x1="0" y1="0" x2="0" y2="11.338582677165354" stroke="black" />
          <circle cx="0" cy="13.795275590551181" r="2.456692913385827" stroke="black" fill="none" />
        </g>
        <g transform="translate(181.4173228346457 0)">
          <line x1="0" y1="0" x2="0" y2="11.338582677165354" stroke="black" />
          <circle cx="0" cy="13.795275590551181" r="2.456692913385827" stroke="black" fill="none" />
        </g>
        <g transform="translate(204.0944881889764 0)">
          <line x1="0" y1="0" x2="0" y2="11.338582677165354" stroke="black" />
          <circle cx="0" cy="13.795275590551181" r="2.456692913385827" stroke="black" fill="none" />
        </g>
        <g transform="translate(226.7716535433071 0)">
          <line x1="0" y1="0" x2="0" y2="11.338582677165354" stroke="black" />
          <circle cx="0" cy="13.795275590551181" r="2.456692913385827" stroke="black" fill="none" />
        </g>
        <g transform="translate(249.4488188976378 0)">
          <line x1="0" y1="0" x2="0" y2="11.338582677165354" stroke="black" />
          <circle cx="0" cy="13.795275590551181" r="2.456692913385827" stroke="black" fill="none" />
        </g>
      </g>
    </g>
    <g transform="rotate(120.0) translate(0 -98.19500641335371)">
      <line x1="-170.07874015748033" y1="0" x2="170.07874015748033" y2="0" stroke="red" />
      <g transform="translate(-124.7244094488189 0)">
        <g transform="translate(0.0 0)">
          <line x1="0" y1="0" x2="0" y2="11.338582677165354" stroke="black" />
          <circle cx="0" cy="13.795275590551181" r="2.456692913385827" stroke="black" fill="none" />
        </g>
        <g transform="translate(22.67716535433071 0)">
          <line x1="0" y1="0" x2="0" y2="11.338582677165354" stroke="black" />
          <circle cx="0" cy="13.795275590551181" r="2.456692913385827" stroke="black" fill="none" />
        </g>
        <g transform="translate(45.35433070866142 0)">
          <line x1="0" y1="0" x2="0" y2="11.338582677165354" stroke="black" />
          <circle cx="0" cy="13.795275590551181" r="2.456692913385827" stroke="black" fill="none" />
        </g>
        <g transform="translate(68.03149606299213 0)">
          <line x1="0" y1="0" x2="0" y2="11.338582677165354" stroke="black" />
          <circle cx="0" cy="13.795275590551181" r="2.456692913385827" stroke="black" fill="none" />
        </g>
        <g transform="translate(90.70866141732284 0)">
          <line x1="0" y1="0" x2="0" y2="11.338582677165354" stroke="black" />
          <circle cx="0" cy="13.795275590551181" r="2.456692913385827" stroke="black" fill="none" />
        </g>
        <g transform="translate(113.38582677165356 0)">
          <line x1="0" y1="0" x2="0" y2="11.338582677165354" stroke="black" />
          <circle cx="0" cy="13.795275590551181" r="2.456692913385827" stroke="black" fill="none" />
        </g>
        <g transform="translate(136.06299212598427 0)">
          <line x1="0" y1="0" x2="0" y2="11.338582677165354" stroke="black" />
          <circle cx="0" cy="13.795275590551181" r="2.456692913385827" stroke="black" fill="none" />
        </g>
        <g transform="translate(158.74015748031496 0)">
          <line x1="0" y1="0" x2="0" y2="11.338582677165354" stroke="black" />
          <circle cx="0" cy="13.795275590551181" r="2.456692913385827" stroke="black" fill="none" />
        </g>
        <g transform="translate(181.4173228346457 0)">
          <line x1="0" y1="0" x2="0" y2="11.338582677165354" stroke="black" />
          <circle cx="0" cy="13.795275590551181" r="2.456692913385827" stroke="black" fill="none" />
        </g>
        <g transform="translate(204.0944881889764 0)">
          <line x1="0" y1="0" x2="0" y2="11.338582677165354" stroke="black" />
          <circle cx="0" cy="13.795275590551181" r="2.456692913385827" stroke="black" fill="none" />
        </g>
        <g transform="translate(226.7716535433071 0)">
          <line x1="0" y1="0" x2="0" y2="11.338582677165354" stroke="black" />
          <circle cx="0" cy="13.795275590551181" r="2.456692913385827" stroke="black" fill="none" />
        </g>
        <g transform="translate(249.4488188976378 0)">
          <line x1="0" y1="0" x2="0" y2="11.338582677165354" stroke="black" />
          <circle cx="0" cy="13.795275590551181" r="2.456692913385827" stroke="black" fill="none" />
        </g>
      </g>
    </g>
    <g transform="rotate(240.0) translate(0 -98.19500641335371)">
      <line x1="-170.07874015748033" y1="0" x2="170.07874015748033" y2="0" stroke="red" />
      <g transform="translate(-124.7244094488189 0)">
        <g transform="translate(0.0 0)">
          <line x1="0" y1="0" x2="0" y2="11.338582677165354" stroke="black" />
          <circle cx="0" cy="13.795275590551181" r="2.456692913385827" stroke="black" fill="none" />
        </g>
        <g transform="translate(22.67716535433071 0)">
          <line x1="0" y1="0" x2="0" y2="11.338582677165354" stroke="black" />
          <circle cx="0" cy="13.795275590551181" r="2.456692913385827" stroke="black" fill="none" />
        </g>
        <g transform="translate(45.35433070866142 0)">
          <line x1="0" y1="0" x2="0" y2="11.338582677165354" stroke="black" />
          <circle cx="0" cy="13.795275590551181" r="2.456692913385827" stroke="black" fill="none" />
        </g>
        <g transform="translate(68.03149606299213 0)">
          <line x1="0" y1="0" x2="0" y2="11.338582677165354" stroke="black" />
          <circle cx="0" cy="13.795275590551181" r="2.456692913385827" stroke="black" fill="none" />
        </g>
        <g transform="translate(90.70866141732284 0)">
          <line x1="0" y1="0" x2="0" y2="11.338582677165354" stroke="black" />
          <circle cx="0" cy="13.795275590551181" r="2.456692913385827" stroke="black" fill="none" />
        </g>
        <g transform="translate(113.38582677165356 0)">
          <line x1="0" y1="0" x2="0" y2="11.338582677165354" stroke="black" />
          <circle cx="0" cy="13.795275590551181" r="2.456692913385827" stroke="black" fill="none" />
        </g>
        <g transform="translate(136.06299212598427 0)">
          <line x1="0" y1="0" x2="0" y2="11.338582677165354" stroke="black" />
          <circle cx="0" cy="13.795275590551181" r="2.456692913385827" stroke="black" fill="none" />
        </g>
        <g transform="translate(158.74015748031496 0)">
          <line x1="0" y1="0" x2="0" y2="11.338582677165354" stroke="black" />
          <circle cx="0" cy="13.795275590551181" r="2.456692913385827" stroke="black" fill="none" />
        </g>
        <g transform="translate(181.4173228346457 0)">
          <line x1="0" y1="0" x2="0" y2="11.338582677165354" stroke="black" />
          <circle cx="0" cy="13.795275590551181" r="2.456692913385827" stroke="black" fill="none" />
        </g>
        <g transform="translate(204.0944881889764 0)">
          <line x1="0" y1="0" x2="0" y2="11.338582677165354" stroke="black" />
          <circle cx="0" cy="13.795275590551181" r="2.456692913385827" stroke="black" fill="none" />
        </g>
        <g transform="translate(226.7716535433071 0)">
          <line x1="0" y1="0" x2="0" y2="11.338582677165354" stroke="black" />
          <circle cx="0" cy="13.795275590551181" r="2.456692913385827" stroke="black" fill="none" />
        </g>
        <g transform="translate(249.4488188976378 0)">
          <line x1="0" y1="0" x2="0" y2="11.338582677165354" stroke="black" />
          <circle cx="0" cy="13.795275590551181" r="2.456692913385827" stroke="black" fill="none" />
        </g>
      </g>
    </g>
  </g>
</g>
</svg>
