<svg width="300" height="300" viewBox="-150 -150 300 300" fill="none" stroke="black" xmlns="http://www.w3.org/2000/svg" xmlns:xlink="http://www.w3.org/1999/xlink">
<g transform="scale(1 -1)">
  <g transform="scale(1 -1)">
    <g transform="rotate(0.0) translate(0 -113.38582677165356)">
      <line x1="-113.38582677165354" y1="0" x2="113.38582677165354" y2="0" stroke="red" />
      <g transform="translate(-83.14960629921259 0)">
        <g transform="translate(0.0 0)">
          <line x1="0" y1="0" x2="0" y2="11.338582677165354" stroke="black" />
          <circle cx="0" cy="13.795275590551181" r="2.456692913385827" stroke="black" fill="none" />
        </g>
        <g transform="translate(15.118110236220472 0)">
          <line x1="0" y1="0" x2="0" y2="11.338582677165354" stroke="black" />
          <circle cx="0" cy="13.795275590551181" r="2.456692913385827" stroke="black" fill="none" />
        </g>
        <g transform="translate(30.236220472440944 0)">
          <line x1="0" y1="0" x2="0" y2="11.338582677165354" stroke="black" />
          <circle cx="0" cy="13.795275590551181" r="2.456692913385827" stroke="black" fill="none" />
        </g>
        <g transform="translate(45.354330708661415 0)">
          <line x1="0" y1="0" x2="0" y2="11.338582677165354" stroke="black" />
          <circle cx="0" cy="13.795275590551181" r="2.456692913385827" stroke="black" fill="none" />
        </g>
        <g transform="translate(60.47244094488189 0)">
          <line x1="0" y1="0" x2="0" y2="11.338582677165354" stroke="black" />
          <circle cx="0" cy="13.795275590551181" r="2.456692913385827" stroke="black" fill="none" />
        </g>
        <g transform="translate(75.59055118110236 0)">
          <line x1="0" y1="0" x2="0" y2="11.338582677165354" stroke="black" />
          <circle cx="0" cy="13.795275590551181" r="2.456692913385827" stroke="black" fill="none" />
        </g>
        <g transform="translate(90.70866141732283 0)">
          <line x1="0" y1="0" x2="0" y2="11.338582677165354" stroke="black" />
          <circle cx="0" cy="13.795275590551181" r="2.456692913385827" stroke="black" fill="none" />
        </g>
        <g transform="translate(105.8267716535433 0)">
          <line x1="0" y1="0" x2="0" y2="11.338582677165354" stroke="black" />
          <circle cx="0" cy="13.795275590551181" r="2.456692913385827" stroke="black" fill="none" />
        </g>
        <g transform="translate(120.94488188976378 0)">
          <line x1="0" y1="0" x2="0" y2="11.338582677165354" stroke="black" />
          <circle cx="0" cy="13.795275590551181" r="2.456692913385827" stroke="black" fill="none" />
        </g>
        <g transform="translate(136.06299212598424 0)">
          <line x1="0" y1="0" x2="0" y2="11.338582677165354" stroke="black" />
          <circle cx="0" cy="13.795275590551181" r="2.456692913385827" stroke="black" fill="none" />
        </g>
        <g transform="translate(151.1811023622047 0)">
          <line x1="0" y1="0" x2="0" y2="11.338582677165354" stroke="black" />
          <circle cx="0" cy="13.795275590551181" r="2.456692913385827" stroke="black" fill="none" />
        </g>
        <g transform="translate(166.29921259842519 0)">
          <line x1="0" y1="0" x2="0" y2="11.338582677165354" stroke="black" />
          <circle cx="0" cy="13.795275590551181" r="2.456692913385827" stroke="black" fill="none" />
        </g>
      </g>
    </g>
    <g transform="rotate(90.0) translate(0 -113.38582677165356)">
      <line x1="-113.38582677165354" y1="0" x2="113.38582677165354" y2="0" stroke="red" />
      <g transform="translate(-83.14960629921259 0)">
        <g transform="translate(0.0 0)">
          <line x1="0" y1="0" x2="0" y2="11.338582677165354" stroke="black" />
          <circle cx="0" cy="13.795275590551181" r="2.456692913385827" stroke="black" fill="none" />
        </g>
        <g transform="translate(15.118110236220472 0)">
          <line x1="0" y1="0" x2="0" y2="11.338582677165354" stroke="black" />
          <circle cx="0" cy="13.795275590551181" r="2.456692913385827" stroke="black" fill="none" />
        </g>
        <g transform="translate(30.236220472440944 0)">
          <line x1="0" y1="0" x2="0" y2="11.338582677165354" stroke="black" />
          <circle cx="0" cy="13.795275590551181" r="2.456692913385827" stroke="black" fill="none" />
        </g>
        <g transform="translate(45.354330708661415 0)">
          <line x1="0" y1="0" x2="0" y2="11.338582677165354" stroke="black" />
          <circle cx="0" cy="13.795275590551181" r="2.456692913385827" stroke="black" fill="none" />
        </g>
        <g transform="translate(60.47244094488189 0)">
          <line x1="0" y1="0" x2="0" y2="11.338582677165354" stroke="black" />
          <circle cx="0" cy="13.795275590551181" r="2.456692913385827" stroke="black" fill="none" />
        </g>
        <g transform="translate(75.59055118110236 0)">
          <line x1="0" y1="0" x2="0" y2="11.338582677165354" stroke="black" />
          <circle cx="0" cy="13.795275590551181" r="2.456692913385827" stroke="black" fill="none" />
        </g>
        <g transform="translate(90.70866141732283 0)">
          <line x1="0" y1="0" x2="0" y2="11.338582677165354" stroke="black" />
          <circle cx="0" cy="13.795275590551181" r="2.456692913385827" stroke="black" fill="none" />
        </g>
        <g transform="translate(105.8267716535433 0)">
          <line x1="0" y1="0" x2="0" y2="11.338582677165354" stroke="black" />
          <circle cx="0" cy="13.795275590551181" r="2.456692913385827" stroke="black" fill="none" />
        </g>
        <g transform="translate(120.94488188976378 0)">
          <line x1="0" y1="0" x2="0" y2="11.338582677165354" stroke="black" />
          <circle cx="0" cy="13.795275590551181" r="2.456692913385827" stroke="black" fill="none" />
        </g>
        <g transform="translate(136.06299212598424 0)">
          <line x1="0" y1="0" x2="0" y2="11.338582677165354" stroke="black" />
          <circle cx="0" cy="13.795275590551181" r="2.456692913385827" stroke="black" fill="none" />
        </g>
        <g transform="translate(151.1811023622047 0)">
          <line x1="0" y1="0" x2="0" y2="11.338582677165354" stroke="black" />
          <circle cx="0" cy="13.795275590551181" r="2.456692913385827" stroke="black" fill="none" />
        </g>
        <g transform="translate(166.29921259842519 0)">
          <line x1="0" y1="0" x2="0" y2="11.338582677165354" stroke="black" />
          <circle cx="0" cy="13.795275590551181" r="2.456692913385827" stroke="black" fill="none" />
        </g>
      </g>
    </g>
    <g transform="rotate(180.0) translate(0 -113.38582677165356)">
      <line x1="-113.38582677165354" y1="0" x2="113.38582677165354" y2="0" stroke="red" />
      <g transform="translate(-83.14960629921259 0)">
        <g transform="translate(0.0 0)">
          <line x1="0" y1="0" x2="0" y2="11.338582677165354" stroke="black" />
          <circle cx="0" cy="13.795275590551181" r="2.456692913385827" stroke="black" fill="none" />
        </g>
        <g transform="translate(15.118110236220472 0)">
          <line x1="0" y1="0" x2="0" y2="11.338582677165354" stroke="black" />
          <circle cx="0" cy="13.795275590551181" r="2.456692913385827" stroke="black" fill="none" />
        </g>
        <g transform="translate(30.236220472440944 0)">
          <line x1="0" y1="0" x2="0" y2="11.338582677165354" stroke="black" />
          <circle cx="0" cy="13.795275590551181" r="2.456692913385827" stroke="black" fill="none" />
        </g>
        <g transform="translate(45.354330708661415 0)">
          <line x1="0" y1="0" x2="0" y2="11.338582677165354" stroke="black" />
          <circle cx="0" cy="13.795275590551181" r="2.456692913385827" stroke="black" fill="none" />
        </g>
        <g transform="translate(60.47244094488189 0)">
          <line x1="0" y1="0" x2="0" y2="11.338582677165354" stroke="black" />
          <circle cx="0" cy="13.795275590551181" r="2.456692913385827" stroke="black" fill="none" />
        </g>
        <g transform="translate(75.59055118110236 0)">
          <line x1="0" y1="0" x2="0" y2="11.338582677165354" stroke="black" />
          <circle cx="0" cy="13.795275590551181" r="2.456692913385827" stroke="black" fill="none" />
        </g>
        <g transform="translate(90.70866141732283 0)">
          <line x1="0" y1="0" x2="0" y2="11.338582677165354" stroke="black" />
          <circle cx="0" cy="13.795275590551181" r="2.456692913385827" stroke="black" fill="none" />
        </g>
        <g transform="translate(105.8267716535433 0)">
          <line x1="0" y1="0" x2="0" y2="11.338582677165354" stroke="black" />
          <circle cx="0" cy="13.795275590551181" r="2.456692913385827" stroke="black" fill="none" />
        </g>
        <g transform="translate(120.94488188976378 0)">
          <line x1="0" y1="0" x2="0" y2="11.338582677165354" stroke="black" />
          <circle cx="0" cy="13.795275590551181" r="2.456692913385827" stroke="black" fill="none" />
        </g>
        <g transform="translate(136.06299212598424 0)">
          <line x1="0" y1="0" x2="0" y2="11.338582677165354" stroke="black" />
          <circle cx="0" cy="13.795275590551181" r="2.456692913385827" stroke="black" fill="none" />
        </g>
        <g transform="translate(151.1811023622047 0)">
          <line x1="0" y1="0" x2="0" y2="11.338582677165354" stroke="black" />
          <circle cx="0" cy="13.795275590551181" r="2.456692913385827" stroke="black" fill="none" />
        </g>
        <g transform="translate(166.29921259842519 0)">
          <line x1="0" y1="0" x2="0" y2="11.338582677165354" stroke="black" />
          <circle cx="0" cy="13.795275590551181" r="2.456692913385827" stroke="black" fill="none" />
        </g>
      </g>
    </g>
    <g transform="rotate(270.0) translate(0 -113.38582677165356)">
      <line x1="-113.38582677165354" y1="0" x2="113.38582677165354" y2="0" stroke="red" />
      <g transform="translate(-83.14960629921259 0)">
        <g transform="translate(0.0 0)">
          <line x1="0" y1="0" x2="0" y2="11.338582677165354" stroke="black" />
          <circle cx="0" cy="13.795275590551181" r="2.456692913385827" stroke="black" fill="none" />
        </g>
        <g transform="translate(15.118110236220472 0)">
          <line x1="0" y1="0" x2="0" y2="11.338582677165354" stroke="black" />
          <circle cx="0" cy="13.795275590551181" r="2.456692913385827" stroke="black" fill="none" />
        </g>
        <g transform="translate(30.236220472440944 0)">
          <line x1="0" y1="0" x2="0" y2="11.338582677165354" stroke="black" />
          <circle cx="0" cy="13.795275590551181" r="2.456692913385827" stroke="black" fill="none" />
        </g>
        <g transform="translate(45.354330708661415 0)">
          <line x1="0" y1="0" x2="0" y2="11.338582677165354" stroke="black" />
          <circle cx="0" cy="13.795275590551181" r="2.456692913385827" stroke="black" fill="none" />
        </g>
        <g transform="translate(60.47244094488189 0)">
          <line x1="0" y1="0" x2="0" y2="11.338582677165354" stroke="black" />
          <circle cx="0" cy="13.795275590551181" r="2.456692913385827" stroke="black" fill="none" />
        </g>
        <g transform="translate(75.59055118110236 0)">
          <line x1="0" y1="0" x2="0" y2="11.338582677165354" stroke="black" />
          <circle cx="0" cy="13.795275590551181" r="2.456692913385827" stroke="black" fill="none" />
        </g>
        <g transform="translate(90.70866141732283 0)">
          <line x1="0" y1="0" x2="0" y2="11.338582677165354" stroke="black" />
          <circle cx="0" cy="13.795275590551181" r="2.456692913385827" stroke="black" fill="none" />
        </g>
        <g transform="translate(105.8267716535433 0)">
          <line x1="0" y1="0" x2="0" y2="11.338582677165354" stroke="black" />
          <circle cx="0" cy="13.795275590551181" r="2.456692913385827" stroke="black" fill="none" />
        </g>
        <g transform="translate(120.94488188976378 0)">
          <line x1="0" y1="0" x2="0" y2="11.338582677165354" stroke="black" />
          <circle cx="0" cy="13.795275590551181" r="2.456692913385827" stroke="black" fill="none" />
        </g>
        <g transform="translate(136.06299212598424 0)">
          <line x1="0" y1="0" x2="0" y2="11.338582677165354" stroke="black" />
          <circle cx="0" cy="13.795275590551181" r="2.456692913385827" stroke="black" fill="none" />
        </g>
        <g transform="translate(151.1811023622047 0)">
          <line x1="0" y1="0" x2="0" y2="11.338582677165354" stroke="black" />
          <circle cx="0" cy="13.795275590551181" r="2.456692913385827" stroke="black" fill="none" />
        </g>
        <g transform="translate(166.29921259842519 0)">
          <line x1="0" y1="0" x2="0" y2="11.338582677165354" stroke="black" />
          <circle cx="0" cy="13.795275590551181" r="2.456692913385827" stroke="black" fill="none" />
        </g>
      </g>
    </g>
  </g>
</g>
</svg>
