<svg width="300" height="300" viewBox="-150 -150 300 300" fill="none" stroke="black" xmlns="http://www.w3.org/2000/svg" xmlns:xlink="http://www.w3.org/1999/xlink">
<g transform="scale(1 -1)">
  <g transform="scale(1 -1)">
    <g transform="rotate(0.0) translate(0 -122.83464566929135)">
      <line x1="-122.83464566929133" y1="0" x2="122.83464566929133" y2="0" stroke="red" />
      <g transform="translate(-90.07874015748031 0)">
        <g transform="translate(0.0 0)">
          <line x1="0" y1="0" x2="0" y2="11.338582677165354" stroke="black" />
          <circle cx="0" cy="13.795275590551181" r="2.456692913385827" stroke="black" fill="none" />
        </g>
        <g transform="translate(16.37795275590551 0)">
          <line x1="0" y1="0" x2="0" y2="11.338582677165354" stroke="black" />
          <circle cx="0" cy="13.795275590551181" r="2.456692913385827" stroke="black" fill="none" />
        </g>
        <g transform="translate(32.75590551181102 0)">
          <line x1="0" y1="0" x2="0" y2="11.338582677165354" stroke="black" />
          <circle cx="0" cy="13.795275590551181" r="2.456692913385827" stroke="black" fill="none" />
        </g>
        <g transform="translate(49.13385826771653 0)">
          <line x1="0" y1="0" x2="0" y2="11.338582677165354" stroke="black" />
          <circle cx="0" cy="13.795275590551181" r="2.456692913385827" stroke="black" fill="none" />
        </g>
        <g transform="translate(65.51181102362204 0)">
          <line x1="0" y1="0" x2="0" y2="11.338582677165354" stroke="black" />
          <circle cx="0" cy="13.795275590551181" r="2.456692913385827" stroke="black" fill="none" />
        </g>
        <g transform="translate(81.88976377952756 0)">
          <line x1="0" y1="0" x2="0" y2="11.338582677165354" stroke="black" />
          <circle cx="0" cy="13.795275590551181" r="2.456692913385827" stroke="black" fill="none" />
        </g>
        <g transform="translate(98.26771653543307 0)">
          <line x1="0" y1="0" x2="0" y2="11.338582677165354" stroke="black" />
          <circle cx="0" cy="13.795275590551181" r="2.456692913385827" stroke="black" fill="none" />
        </g>
        <g transform="translate(114.64566929133858 0)">
          <line x1="0" y1="0" x2="0" y2="11.338582677165354" stroke="black" />
          <circle cx="0" cy="13.795275590551181" r="2.456692913385827" stroke="black" fill="none" />
        </g>
        <g transform="translate(131.0236220472441 0)">
          <line x1="0" y1="0" x2="0" y2="11.338582677165354" stroke="black" />
          <circle cx="0" cy="13.795275590551181" r="2.456692913385827" stroke="black" fill="none" />
        </g>
        <g transform="translate(147.4015748031496 0)">
          <line x1="0" y1="0" x2="0" y2="11.338582677165354" stroke="black" />
          <circle cx="0" cy="13.795275590551181" r="2.456692913385827" stroke="black" fill="none" />
        </g>
        <g transform="translate(163.7795275590551 0)">
          <line x1="0" y1="0" x2="0" y2="11.338582677165354" stroke="black" />
          <circle cx="0" cy="13.795275590551181" r="2.456692913385827" stroke="black" fill="none" />
        </g>
        <g transform="translate(180.15748031496062 0)">
          <line x1="0" y1="0" x2="0" y2="11.338582677165354" stroke="black" />
          <circle cx="0" cy="13.795275590551181" r="2.456692913385827" stroke="black" fill="none" />
        </g>
      </g>
    </g>
    <g transform="rotate(90.0) translate(0 -122.83464566929135)">
      <line x1="-122.83464566929133" y1="0" x2="122.83464566929133" y2="0" stroke="red" />
      <g transform="translate(-90.07874015748031 0)">
        <g transform="translate(0.0 0)">
          <line x1="0" y1="0" x2="0" y2="11.338582677165354" stroke="black" />
          <circle cx="0" cy="13.795275590551181" r="2.456692913385827" stroke="black" fill="none" />
        </g>
        <g transform="translate(16.37795275590551 0)">
          <line x1="0" y1="0" x2="0" y2="11.338582677165354" stroke="black" />
          <circle cx="0" cy="13.795275590551181" r="2.456692913385827" stroke="black" fill="none" />
        </g>
        <g transform="translate(32.75590551181102 0)">
          <line x1="0" y1="0" x2="0" y2="11.338582677165354" stroke="black" />
          <circle cx="0" cy="13.795275590551181" r="2.456692913385827" stroke="black" fill="none" />
        </g>
        <g transform="translate(49.13385826771653 0)">
          <line x1="0" y1="0" x2="0" y2="11.338582677165354" stroke="black" />
          <circle cx="0" cy="13.795275590551181" r="2.456692913385827" stroke="black" fill="none" />
        </g>
        <g transform="translate(65.51181102362204 0)">
          <line x1="0" y1="0" x2="0" y2="11.338582677165354" stroke="black" />
          <circle cx="0" cy="13.795275590551181" r="2.456692913385827" stroke="black" fill="none" />
        </g>
        <g transform="translate(81.88976377952756 0)">
          <line x1="0" y1="0" x2="0" y2="11.338582677165354" stroke="black" />
          <circle cx="0" cy="13.795275590551181" r="2.456692913385827" stroke="black" fill="none" />
        </g>
        <g transform="translate(98.26771653543307 0)">
          <line x1="0" y1="0" x2="0" y2="11.338582677165354" stroke="black" />
          <circle cx="0" cy="13.795275590551181" r="2.456692913385827" stroke="black" fill="none" />
        </g>
        <g transform="translate(114.64566929133858 0)">
          <line x1="0" y1="0" x2="0" y2="11.338582677165354" stroke="black" />
          <circle cx="0" cy="13.795275590551181" r="2.456692913385827" stroke="black" fill="none" />
        </g>
        <g transform="translate(131.0236220472441 0)">
          <line x1="0" y1="0" x2="0" y2="11.338582677165354" stroke="black" />
          <circle cx="0" cy="13.795275590551181" r="2.456692913385827" stroke="black" fill="none" />
        </g>
        <g transform="translate(147.4015748031496 0)">
          <line x1="0" y1="0" x2="0" y2="11.338582677165354" stroke="black" />
          <circle cx="0" cy="13.795275590551181" r="2.456692913385827" stroke="black" fill="none" />
        </g>
        <g transform="translate(163.7795275590551 0)">
          <line x1="0" y1="0" x2="0" y2="11.338582677165354" stroke="black" />
          <circle cx="0" cy="13.795275590551181" r="2.456692913385827" stroke="black" fill="none" />
        </g>
        <g transform="translate(180.15748031496062 0)">
          <line x1="0" y1="0" x2="0" y2="11.338582677165354" stroke="black" />
          <circle cx="0" cy="13.795275590551181" r="2.456692913385827" stroke="black" fill="none" />
        </g>
      </g>
    </g>
    <g transform="rotate(180.0) translate(0 -122.83464566929135)">
      <line x1="-122.83464566929133" y1="0" x2="122.83464566929133" y2="0" stroke="red" />
      <g transform="translate(-90.07874015748031 0)">
        <g transform="translate(0.0 0)">
          <line x1="0" y1="0" x2="0" y2="11.338582677165354" stroke="black" />
          <circle cx="0" cy="13.795275590551181" r="2.456692913385827" stroke="black" fill="none" />
        </g>
        <g transform="translate(16.37795275590551 0)">
          <line x1="0" y1="0" x2="0" y2="11.338582677165354" stroke="black" />
          <circle cx="0" cy="13.795275590551181" r="2.456692913385827" stroke="black" fill="none" />
        </g>
        <g transform="translate(32.75590551181102 0)">
          <line x1="0" y1="0" x2="0" y2="11.338582677165354" stroke="black" />
          <circle cx="0" cy="13.795275590551181" r="2.456692913385827" stroke="black" fill="none" />
        </g>
        <g transform="translate(49.13385826771653 0)">
          <line x1="0" y1="0" x2="0" y2="11.338582677165354" stroke="black" />
          <circle cx="0" cy="13.795275590551181" r="2.456692913385827" stroke="black" fill="none" />
        </g>
        <g transform="translate(65.51181102362204 0)">
          <line x1="0" y1="0" x2="0" y2="11.338582677165354" stroke="black" />
          <circle cx="0" cy="13.795275590551181" r="2.456692913385827" stroke="black" fill="none" />
        </g>
        <g transform="translate(81.88976377952756 0)">
          <line x1="0" y1="0" x2="0" y2="11.338582677165354" stroke="black" />
          <circle cx="0" cy="13.795275590551181" r="2.456692913385827" stroke="black" fill="none" />
        </g>
        <g transform="translate(98.26771653543307 0)">
          <line x1="0" y1="0" x2="0" y2="11.338582677165354" stroke="black" />
          <circle cx="0" cy="13.795275590551181" r="2.456692913385827" stroke="black" fill="none" />
        </g>
        <g transform="translate(114.64566929133858 0)">
          <line x1="0" y1="0" x2="0" y2="11.338582677165354" stroke="black" />
          <circle cx="0" cy="13.795275590551181" r="2.456692913385827" stroke="black" fill="none" />
        </g>
        <g transform="translate(131.0236220472441 0)">
          <line x1="0" y1="0" x2="0" y2="11.338582677165354" stroke="black" />
          <circle cx="0" cy="13.795275590551181" r="2.456692913385827" stroke="black" fill="none" />
        </g>
        <g transform="translate(147.4015748031496 0)">
          <line x1="0" y1="0" x2="0" y2="11.338582677165354" stroke="black" />
          <circle cx="0" cy="13.795275590551181" r="2.456692913385827" stroke="black" fill="none" />
        </g>
        <g transform="translate(163.7795275590551 0)">
          <line x1="0" y1="0" x2="0" y2="11.338582677165354" stroke="black" />
          <circle cx="0" cy="13.795275590551181" r="2.456692913385827" stroke="black" fill="none" />
        </g>
        <g transform="translate(180.15748031496062 0)">
          <line x1="0" y1="0" x2="0" y2="11.338582677165354" stroke="black" />
          <circle cx="0" cy="13.795275590551181" r="2.456692913385827" stroke="black" fill="none" />
        </g>
      </g>
    </g>
    <g transform="rotate(270.0) translate(0 -122.83464566929135)">
      <line x1="-122.83464566929133" y1="0" x2="122.83464566929133" y2="0" stroke="red" />
      <g transform="translate(-90.07874015748031 0)">
        <g transform="translate(0.0 0)">
          <line x1="0" y1="0" x2="0" y2="11.338582677165354" stroke="black" />
          <circle cx="0" cy="13.795275590551181" r="2.456692913385827" stroke="black" fill="none" />
        </g>
        <g transform="translate(16.37795275590551 0)">
          <line x1="0" y1="0" x2="0" y2="11.338582677165354" stroke="black" />
          <circle cx="0" cy="13.795275590551181" r="2.456692913385827" stroke="black" fill="none" />
        </g>
        <g transform="translate(32.75590551181102 0)">
          <line x1="0" y1="0" x2="0" y2="11.338582677165354" stroke="black" />
          <circle cx="0" cy="13.795275590551181" r="2.456692913385827" stroke="black" fill="none" />
        </g>
        <g transform="translate(49.13385826771653 0)">
          <line x1="0" y1="0" x2="0" y2="11.338582677165354" stroke="black" />
          <circle cx="0" cy="13.795275590551181" r="2.456692913385827" stroke="black" fill="none" />
        </g>
        <g transform="translate(65.51181102362204 0)">
          <line x1="0" y1="0" x2="0" y2="11.338582677165354" stroke="black" />
          <circle cx="0" cy="13.795275590551181" r="2.456692913385827" stroke="black" fill="none" />
        </g>
        <g transform="translate(81.88976377952756 0)">
          <line x1="0" y1="0" x2="0" y2="11.338582677165354" stroke="black" />
          <circle cx="0" cy="13.795275590551181" r="2.456692913385827" stroke="black" fill="none" />
        </g>
        <g transform="translate(98.26771653543307 0)">
          <line x1="0" y1="0" x2="0" y2="11.338582677165354" stroke="black" />
          <circle cx="0" cy="13.795275590551181" r="2.456692913385827" stroke="black" fill="none" />
        </g>
        <g transform="translate(114.64566929133858 0)">
          <line x1="0" y1="0" x2="0" y2="11.338582677165354" stroke="black" />
          <circle cx="0" cy="13.795275590551181" r="2.456692913385827" stroke="black" fill="none" />
        </g>
        <g transform="translate(131.0236220472441 0)">
          <line x1="0" y1="0" x2="0" y2="11.338582677165354" stroke="black" />
          <circle cx="0" cy="13.795275590551181" r="2.456692913385827" stroke="black" fill="none" />
        </g>
        <g transform="translate(147.4015748031496 0)">
          <line x1="0" y1="0" x2="0" y2="11.338582677165354" stroke="black" />
          <circle cx="0" cy="13.795275590551181" r="2.456692913385827" stroke="black" fill="none" />
        </g>
        <g transform="translate(163.7795275590551 0)">
          <line x1="0" y1="0" x2="0" y2="11.338582677165354" stroke="black" />
          <circle cx="0" cy="13.795275590551181" r="2.456692913385827" stroke="black" fill="none" />
        </g>
        <g transform="translate(180.15748031496062 0)">
          <line x1="0" y1="0" x2="0" y2="11.338582677165354" stroke="black" />
          <circle cx="0" cy="13.795275590551181" r="2.456692913385827" stroke="black" fill="none" />
        </g>
      </g>
    </g>
  </g>
</g>
</svg>
