<svg width="300" height="300" viewBox="-150 -150 300 300" fill="none" stroke="black" xmlns="http://www.w3.org/2000/svg" xmlns:xlink="http://www.w3.org/1999/xlink">
<g transform="scale(1 -1)">
  <g transform="scale(1 -1)">
    <g transform="rotate(0.0) translate(0 -147.29250962003053)">
      <line x1="-85.03937007874016" y1="0" x2="85.03937007874016" y2="0" stroke="red" />
      <g transform="translate(-66.55255049640535 0)">
        <g transform="translate(0.0 0)">
          <line x1="0" y1="0" x2="0" y2="11.338582677165354" stroke="black" />
          <circle cx="0" cy="13.795275590551181" r="2.456692913385827" stroke="black" fill="none" />
        </g>
        <g transform="translate(14.789455665867854 0)">
          <line x1="0" y1="0" x2="0" y2="11.338582677165354" stroke="black" />
          <circle cx="0" cy="13.795275590551181" r="2.456692913385827" stroke="black" fill="none" />
        </g>
        <g transform="translate(29.578911331735707 0)">
          <line x1="0" y1="0" x2="0" y2="11.338582677165354" stroke="black" />
          <circle cx="0" cy="13.795275590551181" r="2.456692913385827" stroke="black" fill="none" />
        </g>
        <g transform="translate(44.36836699760356 0)">
          <line x1="0" y1="0" x2="0" y2="11.338582677165354" stroke="black" />
          <circle cx="0" cy="13.795275590551181" r="2.456692913385827" stroke="black" fill="none" />
        </g>
        <g transform="translate(59.157822663471414 0)">
          <line x1="0" y1="0" x2="0" y2="11.338582677165354" stroke="black" />
          <circle cx="0" cy="13.795275590551181" r="2.456692913385827" stroke="black" fill="none" />
        </g>
        <g transform="translate(73.94727832933927 0)">
          <line x1="0" y1="0" x2="0" y2="11.338582677165354" stroke="black" />
          <circle cx="0" cy="13.795275590551181" r="2.456692913385827" stroke="black" fill="none" />
        </g>
        <g transform="translate(88.73673399520712 0)">
          <line x1="0" y1="0" x2="0" y2="11.338582677165354" stroke="black" />
          <circle cx="0" cy="13.795275590551181" r="2.456692913385827" stroke="black" fill="none" />
        </g>
        <g transform="translate(103.52618966107498 0)">
          <line x1="0" y1="0" x2="0" y2="11.338582677165354" stroke="black" />
          <circle cx="0" cy="13.795275590551181" r="2.456692913385827" stroke="black" fill="none" />
        </g>
        <g transform="translate(118.31564532694283 0)">
          <line x1="0" y1="0" x2="0" y2="11.338582677165354" stroke="black" />
          <circle cx="0" cy="13.795275590551181" r="2.456692913385827" stroke="black" fill="none" />
        </g>
        <g transform="translate(133.1051009928107 0)">
          <line x1="0" y1="0" x2="0" y2="11.338582677165354" stroke="black" />
          <circle cx="0" cy="13.795275590551181" r="2.456692913385827" stroke="black" fill="none" />
        </g>
      </g>
    </g>
    <g transform="rotate(60.0) translate(0 -147.29250962003053)">
      <line x1="-85.03937007874016" y1="0" x2="85.03937007874016" y2="0" stroke="red" />
      <g transform="translate(-66.55255049640535 0)">
        <g transform="translate(0.0 0)">
          <line x1="0" y1="0" x2="0" y2="11.338582677165354" stroke="black" />
          <circle cx="0" cy="13.795275590551181" r="2.456692913385827" stroke="black" fill="none" />
        </g>
        <g transform="translate(14.789455665867854 0)">
          <line x1="0" y1="0" x2="0" y2="11.338582677165354" stroke="black" />
          <circle cx="0" cy="13.795275590551181" r="2.456692913385827" stroke="black" fill="none" />
        </g>
        <g transform="translate(29.578911331735707 0)">
          <line x1="0" y1="0" x2="0" y2="11.338582677165354" stroke="black" />
          <circle cx="0" cy="13.795275590551181" r="2.456692913385827" stroke="black" fill="none" />
        </g>
        <g transform="translate(44.36836699760356 0)">
          <line x1="0" y1="0" x2="0" y2="11.338582677165354" stroke="black" />
          <circle cx="0" cy="13.795275590551181" r="2.456692913385827" stroke="black" fill="none" />
        </g>
        <g transform="translate(59.157822663471414 0)">
          <line x1="0" y1="0" x2="0" y2="11.338582677165354" stroke="black" />
          <circle cx="0" cy="13.795275590551181" r="2.456692913385827" stroke="black" fill="none" />
        </g>
        <g transform="translate(73.94727832933927 0)">
          <line x1="0" y1="0" x2="0" y2="11.338582677165354" stroke="black" />
          <circle cx="0" cy="13.795275590551181" r="2.456692913385827" stroke="black" fill="none" />
        </g>
        <g transform="translate(88.73673399520712 0)">
          <line x1="0" y1="0" x2="0" y2="11.338582677165354" stroke="black" />
          <circle cx="0" cy="13.795275590551181" r="2.456692913385827" stroke="black" fill="none" />
        </g>
        <g transform="translate(103.52618966107498 0)">
          <line x1="0" y1="0" x2="0" y2="11.338582677165354" stroke="black" />
          <circle cx="0" cy="13.795275590551181" r="2.456692913385827" stroke="black" fill="none" />
        </g>
        <g transform="translate(118.31564532694283 0)">
          <line x1="0" y1="0" x2="0" y2="11.338582677165354" stroke="black" />
          <circle cx="0" cy="13.795275590551181" r="2.456692913385827" stroke="black" fill="none" />
        </g>
        <g transform="translate(133.1051009928107 0)">
          <line x1="0" y1="0" x2="0" y2="11.338582677165354" stroke="black" />
          <circle cx="0" cy="13.795275590551181" r="2.456692913385827" stroke="black" fill="none" />
        </g>
      </g>
    </g>
    <g transform="rotate(120.0) translate(0 -147.29250962003053)">
      <line x1="-85.03937007874016" y1="0" x2="85.03937007874016" y2="0" stroke="red" />
      <g transform="translate(-66.55255049640535 0)">
        <g transform="translate(0.0 0)">
          <line x1="0" y1="0" x2="0" y2="11.338582677165354" stroke="black" />
          <circle cx="0" cy="13.795275590551181" r="2.456692913385827" stroke="black" fill="none" />
        </g>
        <g transform="translate(14.789455665867854 0)">
          <line x1="0" y1="0" x2="0" y2="11.338582677165354" stroke="black" />
          <circle cx="0" cy="13.795275590551181" r="2.456692913385827" stroke="black" fill="none" />
        </g>
        <g transform="translate(29.578911331735707 0)">
          <line x1="0" y1="0" x2="0" y2="11.338582677165354" stroke="black" />
          <circle cx="0" cy="13.795275590551181" r="2.456692913385827" stroke="black" fill="none" />
        </g>
        <g transform="translate(44.36836699760356 0)">
          <line x1="0" y1="0" x2="0" y2="11.338582677165354" stroke="black" />
          <circle cx="0" cy="13.795275590551181" r="2.456692913385827" stroke="black" fill="none" />
        </g>
        <g transform="translate(59.157822663471414 0)">
          <line x1="0" y1="0" x2="0" y2="11.338582677165354" stroke="black" />
          <circle cx="0" cy="13.795275590551181" r="2.456692913385827" stroke="black" fill="none" />
        </g>
        <g transform="translate(73.94727832933927 0)">
          <line x1="0" y1="0" x2="0" y2="11.338582677165354" stroke="black" />
          <circle cx="0" cy="13.795275590551181" r="2.456692913385827" stroke="black" fill="none" />
        </g>
        <g transform="translate(88.73673399520712 0)">
          <line x1="0" y1="0" x2="0" y2="11.338582677165354" stroke="black" />
          <circle cx="0" cy="13.795275590551181" r="2.456692913385827" stroke="black" fill="none" />
        </g>
        <g transform="translate(103.52618966107498 0)">
          <line x1="0" y1="0" x2="0" y2="11.338582677165354" stroke="black" />
          <circle cx="0" cy="13.795275590551181" r="2.456692913385827" stroke="black" fill="none" />
        </g>
        <g transform="translate(118.31564532694283 0)">
          <line x1="0" y1="0" x2="0" y2="11.338582677165354" stroke="black" />
          <circle cx="0" cy="13.795275590551181" r="2.456692913385827" stroke="black" fill="none" />
        </g>
        <g transform="translate(133.1051009928107 0)">
          <line x1="0" y1="0" x2="0" y2="11.338582677165354" stroke="black" />
          <circle cx="0" cy="13.795275590551181" r="2.456692913385827" stroke="black" fill="none" />
        </g>
      </g>
    </g>
    <g transform="rotate(180.0) translate(0 -147.29250962003053)">
      <line x1="-85.03937007874016" y1="0" x2="85.03937007874016" y2="0" stroke="red" />
      <g transform="translate(-66.55255049640535 0)">
        <g transform="translate(0.0 0)">
          <line x1="0" y1="0" x2="0" y2="11.338582677165354" stroke="black" />
          <circle cx="0" cy="13.795275590551181" r="2.456692913385827" stroke="black" fill="none" />
        </g>
        <g transform="translate(14.789455665867854 0)">
          <line x1="0" y1="0" x2="0" y2="11.338582677165354" stroke="black" />
          <circle cx="0" cy="13.795275590551181" r="2.456692913385827" stroke="black" fill="none" />
        </g>
        <g transform="translate(29.578911331735707 0)">
          <line x1="0" y1="0" x2="0" y2="11.338582677165354" stroke="black" />
          <circle cx="0" cy="13.795275590551181" r="2.456692913385827" stroke="black" fill="none" />
        </g>
        <g transform="translate(44.36836699760356 0)">
          <line x1="0" y1="0" x2="0" y2="11.338582677165354" stroke="black" />
          <circle cx="0" cy="13.795275590551181" r="2.456692913385827" stroke="black" fill="none" />
        </g>
        <g transform="translate(59.157822663471414 0)">
          <line x1="0" y1="0" x2="0" y2="11.338582677165354" stroke="black" />
          <circle cx="0" cy="13.795275590551181" r="2.456692913385827" stroke="black" fill="none" />
        </g>
        <g transform="translate(73.94727832933927 0)">
          <line x1="0" y1="0" x2="0" y2="11.338582677165354" stroke="black" />
          <circle cx="0" cy="13.795275590551181" r="2.456692913385827" stroke="black" fill="none" />
        </g>
        <g transform="translate(88.73673399520712 0)">
          <line x1="0" y1="0" x2="0" y2="11.338582677165354" stroke="black" />
          <circle cx="0" cy="13.795275590551181" r="2.456692913385827" stroke="black" fill="none" />
        </g>
        <g transform="translate(103.52618966107498 0)">
          <line x1="0" y1="0" x2="0" y2="11.338582677165354" stroke="black" />
          <circle cx="0" cy="13.795275590551181" r="2.456692913385827" stroke="black" fill="none" />
        </g>
        <g transform="translate(118.31564532694283 0)">
          <line x1="0" y1="0" x2="0" y2="11.338582677165354" stroke="black" />
          <circle cx="0" cy="13.795275590551181" r="2.456692913385827" stroke="black" fill="none" />
        </g>
        <g transform="translate(133.1051009928107 0)">
          <line x1="0" y1="0" x2="0" y2="11.338582677165354" stroke="black" />
          <circle cx="0" cy="13.795275590551181" r="2.456692913385827" stroke="black" fill="none" />
        </g>
      </g>
    </g>
    <g transform="rotate(240.0) translate(0 -147.29250962003053)">
      <line x1="-85.03937007874016" y1="0" x2="85.03937007874016" y2="0" stroke="red" />
      <g transform="translate(-66.55255049640535 0)">
        <g transform="translate(0.0 0)">
          <line x1="0" y1="0" x2="0" y2="11.338582677165354" stroke="black" />
          <circle cx="0" cy="13.795275590551181" r="2.456692913385827" stroke="black" fill="none" />
        </g>
        <g transform="translate(14.789455665867854 0)">
          <line x1="0" y1="0" x2="0" y2="11.338582677165354" stroke="black" />
          <circle cx="0" cy="13.795275590551181" r="2.456692913385827" stroke="black" fill="none" />
        </g>
        <g transform="translate(29.578911331735707 0)">
          <line x1="0" y1="0" x2="0" y2="11.338582677165354" stroke="black" />
          <circle cx="0" cy="13.795275590551181" r="2.456692913385827" stroke="black" fill="none" />
        </g>
        <g transform="translate(44.36836699760356 0)">
          <line x1="0" y1="0" x2="0" y2="11.338582677165354" stroke="black" />
          <circle cx="0" cy="13.795275590551181" r="2.456692913385827" stroke="black" fill="none" />
        </g>
        <g transform="translate(59.157822663471414 0)">
          <line x1="0" y1="0" x2="0" y2="11.338582677165354" stroke="black" />
          <circle cx="0" cy="13.795275590551181" r="2.456692913385827" stroke="black" fill="none" />
        </g>
        <g transform="translate(73.94727832933927 0)">
          <line x1="0" y1="0" x2="0" y2="11.338582677165354" stroke="black" />
          <circle cx="0" cy="13.795275590551181" r="2.456692913385827" stroke="black" fill="none" />
        </g>
        <g transform="translate(88.73673399520712 0)">
          <line x1="0" y1="0" x2="0" y2="11.338582677165354" stroke="black" />
          <circle cx="0" cy="13.795275590551181" r="2.456692913385827" stroke="black" fill="none" />
        </g>
        <g transform="translate(103.52618966107498 0)">
          <line x1="0" y1="0" x2="0" y2="11.338582677165354" stroke="black" />
          <circle cx="0" cy="13.795275590551181" r="2.456692913385827" stroke="black" fill="none" />
        </g>
        <g transform="translate(118.31564532694283 0)">
          <line x1="0" y1="0" x2="0" y2="11.338582677165354" stroke="black" />
          <circle cx="0" cy="13.795275590551181" r="2.456692913385827" stroke="black" fill="none" />
        </g>
        <g transform="translate(133.1051009928107 0)">
          <line x1="0" y1="0" x2="0" y2="11.338582677165354" stroke="black" />
          <circle cx="0" cy="13.795275590551181" r="2.456692913385827" stroke="black" fill="none" />
        </g>
      </g>
    </g>
    <g transform="rotate(300.0) translate(0 -147.29250962003053)">
      <line x1="-85.03937007874016" y1="0" x2="85.03937007874016" y2="0" stroke="red" />
      <g transform="translate(-66.55255049640535 0)">
        <g transform="translate(0.0 0)">
          <line x1="0" y1="0" x2="0" y2="11.338582677165354" stroke="black" />
          <circle cx="0" cy="13.795275590551181" r="2.456692913385827" stroke="black" fill="none" />
        </g>
        <g transform="translate(14.789455665867854 0)">
          <line x1="0" y1="0" x2="0" y2="11.338582677165354" stroke="black" />
          <circle cx="0" cy="13.795275590551181" r="2.456692913385827" stroke="black" fill="none" />
        </g>
        <g transform="translate(29.578911331735707 0)">
          <line x1="0" y1="0" x2="0" y2="11.338582677165354" stroke="black" />
          <circle cx="0" cy="13.795275590551181" r="2.456692913385827" stroke="black" fill="none" />
        </g>
        <g transform="translate(44.36836699760356 0)">
          <line x1="0" y1="0" x2="0" y2="11.338582677165354" stroke="black" />
          <circle cx="0" cy="13.795275590551181" r="2.456692913385827" stroke="black" fill="none" />
        </g>
        <g transform="translate(59.157822663471414 0)">
          <line x1="0" y1="0" x2="0" y2="11.338582677165354" stroke="black" />
          <circle cx="0" cy="13.795275590551181" r="2.456692913385827" stroke="black" fill="none" />
        </g>
        <g transform="translate(73.94727832933927 0)">
          <line x1="0" y1="0" x2="0" y2="11.338582677165354" stroke="black" />
          <circle cx="0" cy="13.795275590551181" r="2.456692913385827" stroke="black" fill="none" />
        </g>
        <g transform="translate(88.73673399520712 0)">
          <line x1="0" y1="0" x2="0" y2="11.338582677165354" stroke="black" />
          <circle cx="0" cy="13.795275590551181" r="2.456692913385827" stroke="black" fill="none" />
        </g>
        <g transform="translate(103.52618966107498 0)">
          <line x1="0" y1="0" x2="0" y2="11.338582677165354" stroke="black" />
          <circle cx="0" cy="13.795275590551181" r="2.456692913385827" stroke="black" fill="none" />
        </g>
        <g transform="translate(118.31564532694283 0)">
          <line x1="0" y1="0" x2="0" y2="11.338582677165354" stroke="black" />
          <circle cx="0" cy="13.795275590551181" r="2.456692913385827" stroke="black" fill="none" />
        </g>
        <g transform="translate(133.1051009928107 0)">
          <line x1="0" y1="0" x2="0" y2="11.338582677165354" stroke="black" />
          <circle cx="0" cy="13.795275590551181" r="2.456692913385827" stroke="black" fill="none" />
        </g>
      </g>
    </g>
  </g>
</g>
</svg>
