<svg width="300" height="300" viewBox="-150 -150 300 300" fill="none" stroke="black" xmlns="http://www.w3.org/2000/svg" xmlns:xlink="http://www.w3.org/1999/xlink">
<g transform="scale(1 -1)">
  <g transform="scale(1 -1)">
    <circle cx="0" cy="0" r="170.07874015748033" stroke="red" fill="none" />
    <g>
      <g transform="rotate(0.0) translate(15.461703650680029 0)">
        <circle cx="0" cy="0" r="2.267716535433071" stroke="black" fill="none" transform="translate(0.0 0)" />
        <circle cx="0" cy="0" r="2.267716535433071" stroke="black" fill="none" transform="translate(15.461703650680029 0)" />
        <circle cx="0" cy="0" r="2.267716535433071" stroke="black" fill="none" transform="translate(30.923407301360058 0)" />
        <circle cx="0" cy="0" r="2.267716535433071" stroke="black" fill="none" transform="translate(46.38511095204009 0)" />
        <circle cx="0" cy="0" r="2.267716535433071" stroke="black" fill="none" transform="translate(61.846814602720116 0)" />
        <circle cx="0" cy="0" r="2.267716535433071" stroke="black" fill="none" transform="translate(77.30851825340014 0)" />
        <circle cx="0" cy="0" r="2.267716535433071" stroke="black" fill="none" transform="translate(92.77022190408017 0)" />
        <circle cx="0" cy="0" r="2.267716535433071" stroke="black" fill="none" transform="translate(108.23192555476021 0)" />
        <circle cx="0" cy="0" r="2.267716535433071" stroke="black" fill="none" transform="translate(123.69362920544023 0)" />
        <circle cx="0" cy="0" r="2.267716535433071" stroke="black" fill="none" transform="translate(139.15533285612025 0)" />
      </g>
      <g transform="rotate(45.0) translate(15.461703650680029 0)">
        <circle cx="0" cy="0" r="2.267716535433071" stroke="black" fill="none" transform="translate(0.0 0)" />
        <circle cx="0" cy="0" r="2.267716535433071" stroke="black" fill="none" transform="translate(15.461703650680029 0)" />
        <circle cx="0" cy="0" r="2.267716535433071" stroke="black" fill="none" transform="translate(30.923407301360058 0)" />
        <circle cx="0" cy="0" r="2.267716535433071" stroke="black" fill="none" transform="translate(46.38511095204009 0)" />
        <circle cx="0" cy="0" r="2.267716535433071" stroke="black" fill="none" transform="translate(61.846814602720116 0)" />
        <circle cx="0" cy="0" r="2.267716535433071" stroke="black" fill="none" transform="translate(77.30851825340014 0)" />
        <circle cx="0" cy="0" r="2.267716535433071" stroke="black" fill="none" transform="translate(92.77022190408017 0)" />
        <circle cx="0" cy="0" r="2.267716535433071" stroke="black" fill="none" transform="translate(108.23192555476021 0)" />
        <circle cx="0" cy="0" r="2.267716535433071" stroke="black" fill="none" transform="translate(123.69362920544023 0)" />
        <circle cx="0" cy="0" r="2.267716535433071" stroke="black" fill="none" transform="translate(139.15533285612025 0)" />
      </g>
      <g transform="rotate(90.0) translate(15.461703650680029 0)">
        <circle cx="0" cy="0" r="2.267716535433071" stroke="black" fill="none" transform="translate(0.0 0)" />
        <circle cx="0" cy="0" r="2.267716535433071" stroke="black" fill="none" transform="translate(15.461703650680029 0)" />
        <circle cx="0" cy="0" r="2.267716535433071" stroke="black" fill="none" transform="translate(30.923407301360058 0)" />
        <circle cx="0" cy="0" r="2.267716535433071" stroke="black" fill="none" transform="translate(46.38511095204009 0)" />
        <circle cx="0" cy="0" r="2.267716535433071" stroke="black" fill="none" transform="translate(61.846814602720116 0)" />
        <circle cx="0" cy="0" r="2.267716535433071" stroke="black" fill="none" transform="translate(77.30851825340014 0)" />
        <circle cx="0" cy="0" r="2.267716535433071" stroke="black" fill="none" transform="translate(92.77022190408017 0)" />
        <circle cx="0" cy="0" r="2.267716535433071" stroke="black" fill="none" transform="translate(108.23192555476021 0)" />
        <circle cx="0" cy="0" r="2.267716535433071" stroke="black" fill="none" transform="translate(123.69362920544023 0)" />
        <circle cx="0" cy="0" r="2.267716535433071" stroke="black" fill="none" transform="translate(139.15533285612025 0)" />
      </g>
      <g transform="rotate(135.0) translate(15.461703650680029 0)">
        <circle cx="0" cy="0" r="2.267716535433071" stroke="black" fill="none" transform="translate(0.0 0)" />
        <circle cx="0" cy="0" r="2.267716535433071" stroke="black" fill="none" transform="translate(15.461703650680029 0)" />
        <circle cx="0" cy="0" r="2.267716535433071" stroke="black" fill="none" transform="translate(30.923407301360058 0)" />
        <circle cx="0" cy="0" r="2.267716535433071" stroke="black" fill="none" transform="translate(46.38511095204009 0)" />
        <circle cx="0" cy="0" r="2.267716535433071" stroke="black" fill="none" transform="translate(61.846814602720116 0)" />
        <circle cx="0" cy="0" r="2.267716535433071" stroke="black" fill="none" transform="translate(77.30851825340014 0)" />
        <circle cx="0" cy="0" r="2.267716535433071" stroke="black" fill="none" transform="translate(92.77022190408017 0)" />
        <circle cx="0" cy="0" r="2.267716535433071" stroke="black" fill="none" transform="translate(108.23192555476021 0)" />
        <circle cx="0" cy="0" r="2.267716535433071" stroke="black" fill="none" transform="translate(123.69362920544023 0)" />
        <circle cx="0" cy="0" r="2.267716535433071" stroke="black" fill="none" transform="translate(139.15533285612025 0)" />
      </g>
      <g transform="rotate(180.0) translate(15.461703650680029 0)">
        <circle cx="0" cy="0" r="2.267716535433071" stroke="black" fill="none" transform="translate(0.0 0)" />
        <circle cx="0" cy="0" r="2.267716535433071" stroke="black" fill="none" transform="translate(15.461703650680029 0)" />
        <circle cx="0" cy="0" r="2.267716535433071" stroke="black" fill="none" transform="translate(30.923407301360058 0)" />
        <circle cx="0" cy="0" r="2.267716535433071" stroke="black" fill="none" transform="translate(46.38511095204009 0)" />
        <circle cx="0" cy="0" r="2.267716535433071" stroke="black" fill="none" transform="translate(61.846814602720116 0)" />
        <circle cx="0" cy="0" r="2.267716535433071" stroke="black" fill="none" transform="translate(77.30851825340014 0)" />
        <circle cx="0" cy="0" r="2.267716535433071" stroke="black" fill="none" transform="translate(92.77022190408017 0)" />
        <circle cx="0" cy="0" r="2.267716535433071" stroke="black" fill="none" transform="translate(108.23192555476021 0)" />
        <circle cx="0" cy="0" r="2.267716535433071" stroke="black" fill="none" transform="translate(123.69362920544023 0)" />
        <circle cx="0" cy="0" r="2.267716535433071" stroke="black" fill="none" transform="translate(139.15533285612025 0)" />
      </g>
      <g transform="rotate(225.0) translate(15.461703650680029 0)">
        <circle cx="0" cy="0" r="2.267716535433071" stroke="black" fill="none" transform="translate(0.0 0)" />
        <circle cx="0" cy="0" r="2.267716535433071" stroke="black" fill="none" transform="translate(15.461703650680029 0)" />
        <circle cx="0" cy="0" r="2.267716535433071" stroke="black" fill="none" transform="translate(30.923407301360058 0)" />
        <circle cx="0" cy="0" r="2.267716535433071" stroke="black" fill="none" transform="translate(46.38511095204009 0)" />
        <circle cx="0" cy="0" r="2.267716535433071" stroke="black" fill="none" transform="translate(61.846814602720116 0)" />
        <circle cx="0" cy="0" r="2.267716535433071" stroke="black" fill="none" transform="translate(77.30851825340014 0)" />
        <circle cx="0" cy="0" r="2.267716535433071" stroke="black" fill="none" transform="translate(92.77022190408017 0)" />
        <circle cx="0" cy="0" r="2.267716535433071" stroke="black" fill="none" transform="translate(108.23192555476021 0)" />
        <circle cx="0" cy="0" r="2.267716535433071" stroke="black" fill="none" transform="translate(123.69362920544023 0)" />
        <circle cx="0" cy="0" r="2.267716535433071" stroke="black" fill="none" transform="translate(139.15533285612025 0)" />
      </g>
      <g transform="rotate(270.0) translate(15.461703650680029 0)">
        <circle cx="0" cy="0" r="2.267716535433071" stroke="black" fill="none" transform="translate(0.0 0)" />
        <circle cx="0" cy="0" r="2.267716535433071" stroke="black" fill="none" transform="translate(15.461703650680029 0)" />
        <circle cx="0" cy="0" r="2.267716535433071" stroke="black" fill="none" transform="translate(30.923407301360058 0)" />
        <circle cx="0" cy="0" r="2.267716535433071" stroke="black" fill="none" transform="translate(46.38511095204009 0)" />
        <circle cx="0" cy="0" r="2.267716535433071" stroke="black" fill="none" transform="translate(61.846814602720116 0)" />
        <circle cx="0" cy="0" r="2.267716535433071" stroke="black" fill="none" transform="translate(77.30851825340014 0)" />
        <circle cx="0" cy="0" r="2.267716535433071" stroke="black" fill="none" transform="translate(92.77022190408017 0)" />
        <circle cx="0" cy="0" r="2.267716535433071" stroke="black" fill="none" transform="translate(108.23192555476021 0)" />
        <circle cx="0" cy="0" r="2.267716535433071" stroke="black" fill="none" transform="translate(123.69362920544023 0)" />
        <circle cx="0" cy="0" r="2.267716535433071" stroke="black" fill="none" transform="translate(139.15533285612025 0)" />
      </g>
      <g transform="rotate(315.0) translate(15.461703650680029 0)">
        <circle cx="0" cy="0" r="2.267716535433071" stroke="black" fill="none" transform="translate(0.0 0)" />
        <circle cx="0" cy="0" r="2.267716535433071" stroke="black" fill="none" transform="translate(15.461703650680029 0)" />
        <circle cx="0" cy="0" r="2.267716535433071" stroke="black" fill="none" transform="translate(30.923407301360058 0)" />
        <circle cx="0" cy="0" r="2.267716535433071" stroke="black" fill="none" transform="translate(46.38511095204009 0)" />
        <circle cx="0" cy="0" r="2.267716535433071" stroke="black" fill="none" transform="translate(61.846814602720116 0)" />
        <circle cx="0" cy="0" r="2.267716535433071" stroke="black" fill="none" transform="translate(77.30851825340014 0)" />
        <circle cx="0" cy="0" r="2.267716535433071" stroke="black" fill="none" transform="translate(92.77022190408017 0)" />
        <circle cx="0" cy="0" r="2.267716535433071" stroke="black" fill="none" transform="translate(108.23192555476021 0)" />
        <circle cx="0" cy="0" r="2.267716535433071" stroke="black" fill="none" transform="translate(123.69362920544023 0)" />
        <circle cx="0" cy="0" r="2.267716535433071" stroke="black" fill="none" transform="translate(139.15533285612025 0)" />
      </g>
    </g>
  </g>
</g>
</svg>
