<svg width="300" height="300" viewBox="-150 -150 300 300" fill="none" stroke="black" xmlns="http://www.w3.org/2000/svg" xmlns:xlink="http://www.w3.org/1999/xlink">
<g transform="scale(1 -1)">
  <g transform="scale(1 -1)">
    <rect x="-113.38582677165354" y="-113.38582677165354" width="226.77165354330708" height="226.77165354330708" stroke="red" fill="none" />
    <g>
      <g transform="rotate(0.0) translate(0 -103.07802433786685)">
        <circle cx="103.07802433786685" cy="0" r="1.889763779527559" stroke="black" fill="none" transform="translate(0 0.0)" />
        <circle cx="103.07802433786685" cy="0" r="1.889763779527559" stroke="black" fill="none" transform="translate(0 10.307802433786685)" />
        <circle cx="103.07802433786685" cy="0" r="1.889763779527559" stroke="black" fill="none" transform="translate(0 20.61560486757337)" />
        <circle cx="103.07802433786685" cy="0" r="1.889763779527559" stroke="black" fill="none" transform="translate(0 30.923407301360058)" />
        <circle cx="103.07802433786685" cy="0" r="1.889763779527559" stroke="black" fill="none" transform="translate(0 41.23120973514674)" />
        <circle cx="103.07802433786685" cy="0" r="1.889763779527559" stroke="black" fill="none" transform="translate(0 51.539012168933425)" />
        <circle cx="103.07802433786685" cy="0" r="1.889763779527559" stroke="black" fill="none" transform="translate(0 61.846814602720116)" />
        <circle cx="103.07802433786685" cy="0" r="1.889763779527559" stroke="black" fill="none" transform="translate(0 72.15461703650679)" />
        <circle cx="103.07802433786685" cy="0" r="1.889763779527559" stroke="black" fill="none" transform="translate(0 82.46241947029348)" />
        <circle cx="103.07802433786685" cy="0" r="1.889763779527559" stroke="black" fill="none" transform="translate(0 92.77022190408017)" />
        <circle cx="103.07802433786685" cy="0" r="1.889763779527559" stroke="black" fill="none" transform="translate(0 103.07802433786685)" />
        <circle cx="103.07802433786685" cy="0" r="1.889763779527559" stroke="black" fill="none" transform="translate(0 113.38582677165354)" />
        <circle cx="103.07802433786685" cy="0" r="1.889763779527559" stroke="black" fill="none" transform="translate(0 123.69362920544023)" />
        <circle cx="103.07802433786685" cy="0" r="1.889763779527559" stroke="black" fill="none" transform="translate(0 134.00143163922692)" />
        <circle cx="103.07802433786685" cy="0" r="1.889763779527559" stroke="black" fill="none" transform="translate(0 144.30923407301358)" />
        <circle cx="103.07802433786685" cy="0" r="1.889763779527559" stroke="black" fill="none" transform="translate(0 154.61703650680028)" />
        <circle cx="103.07802433786685" cy="0" r="1.889763779527559" stroke="black" fill="none" transform="translate(0 164.92483894058697)" />
        <circle cx="103.07802433786685" cy="0" r="1.889763779527559" stroke="black" fill="none" transform="translate(0 175.23264137437366)" />
        <circle cx="103.07802433786685" cy="0" r="1.889763779527559" stroke="black" fill="none" transform="translate(0 185.54044380816035)" />
        <circle cx="103.07802433786685" cy="0" r="1.889763779527559" stroke="black" fill="none" transform="translate(0 195.848246241947)" />
      </g>
      <g transform="rotate(90.0) translate(0 -103.07802433786685)">
        <circle cx="103.07802433786685" cy="0" r="1.889763779527559" stroke="black" fill="none" transform="translate(0 0.0)" />
        <circle cx="103.07802433786685" cy="0" r="1.889763779527559" stroke="black" fill="none" transform="translate(0 10.307802433786685)" />
        <circle cx="103.07802433786685" cy="0" r="1.889763779527559" stroke="black" fill="none" transform="translate(0 20.61560486757337)" />
        <circle cx="103.07802433786685" cy="0" r="1.889763779527559" stroke="black" fill="none" transform="translate(0 30.923407301360058)" />
        <circle cx="103.07802433786685" cy="0" r="1.889763779527559" stroke="black" fill="none" transform="translate(0 41.23120973514674)" />
        <circle cx="103.07802433786685" cy="0" r="1.889763779527559" stroke="black" fill="none" transform="translate(0 51.539012168933425)" />
        <circle cx="103.07802433786685" cy="0" r="1.889763779527559" stroke="black" fill="none" transform="translate(0 61.846814602720116)" />
        <circle cx="103.07802433786685" cy="0" r="1.889763779527559" stroke="black" fill="none" transform="translate(0 72.15461703650679)" />
        <circle cx="103.07802433786685" cy="0" r="1.889763779527559" stroke="black" fill="none" transform="translate(0 82.46241947029348)" />
        <circle cx="103.07802433786685" cy="0" r="1.889763779527559" stroke="black" fill="none" transform="translate(0 92.77022190408017)" />
        <circle cx="103.07802433786685" cy="0" r="1.889763779527559" stroke="black" fill="none" transform="translate(0 103.07802433786685)" />
        <circle cx="103.07802433786685" cy="0" r="1.889763779527559" stroke="black" fill="none" transform="translate(0 113.38582677165354)" />
        <circle cx="103.07802433786685" cy="0" r="1.889763779527559" stroke="black" fill="none" transform="translate(0 123.69362920544023)" />
        <circle cx="103.07802433786685" cy="0" r="1.889763779527559" stroke="black" fill="none" transform="translate(0 134.00143163922692)" />
        <circle cx="103.07802433786685" cy="0" r="1.889763779527559" stroke="black" fill="none" transform="translate(0 144.30923407301358)" />
        <circle cx="103.07802433786685" cy="0" r="1.889763779527559" stroke="black" fill="none" transform="translate(0 154.61703650680028)" />
        <circle cx="103.07802433786685" cy="0" r="1.889763779527559" stroke="black" fill="none" transform="translate(0 164.92483894058697)" />
        <circle cx="103.07802433786685" cy="0" r="1.889763779527559" stroke="black" fill="none" transform="translate(0 175.23264137437366)" />
        <circle cx="103.07802433786685" cy="0" r="1.889763779527559" stroke="black" fill="none" transform="translate(0 185.54044380816035)" />
        <circle cx="103.07802433786685" cy="0" r="1.889763779527559" stroke="black" fill="none" transform="translate(0 195.848246241947)" />
      </g>
      <g transform="rotate(180.0) translate(0 -103.07802433786685)">
        <circle cx="103.07802433786685" cy="0" r="1.889763779527559" stroke="black" fill="none" transform="translate(0 0.0)" />
        <circle cx="103.07802433786685" cy="0" r="1.889763779527559" stroke="black" fill="none" transform="translate(0 10.307802433786685)" />
        <circle cx="103.07802433786685" cy="0" r="1.889763779527559" stroke="black" fill="none" transform="translate(0 20.61560486757337)" />
        <circle cx="103.07802433786685" cy="0" r="1.889763779527559" stroke="black" fill="none" transform="translate(0 30.923407301360058)" />
        <circle cx="103.07802433786685" cy="0" r="1.889763779527559" stroke="black" fill="none" transform="translate(0 41.23120973514674)" />
        <circle cx="103.07802433786685" cy="0" r="1.889763779527559" stroke="black" fill="none" transform="translate(0 51.539012168933425)" />
        <circle cx="103.07802433786685" cy="0" r="1.889763779527559" stroke="black" fill="none" transform="translate(0 61.846814602720116)" />
        <circle cx="103.07802433786685" cy="0" r="1.889763779527559" stroke="black" fill="none" transform="translate(0 72.15461703650679)" />
        <circle cx="103.07802433786685" cy="0" r="1.889763779527559" stroke="black" fill="none" transform="translate(0 82.46241947029348)" />
        <circle cx="103.07802433786685" cy="0" r="1.889763779527559" stroke="black" fill="none" transform="translate(0 92.77022190408017)" />
        <circle cx="103.07802433786685" cy="0" r="1.889763779527559" stroke="black" fill="none" transform="translate(0 103.07802433786685)" />
        <circle cx="103.07802433786685" cy="0" r="1.889763779527559" stroke="black" fill="none" transform="translate(0 113.38582677165354)" />
        <circle cx="103.07802433786685" cy="0" r="1.889763779527559" stroke="black" fill="none" transform="translate(0 123.69362920544023)" />
        <circle cx="103.07802433786685" cy="0" r="1.889763779527559" stroke="black" fill="none" transform="translate(0 134.00143163922692)" />
        <circle cx="103.07802433786685" cy="0" r="1.889763779527559" stroke="black" fill="none" transform="translate(0 144.30923407301358)" />
        <circle cx="103.07802433786685" cy="0" r="1.889763779527559" stroke="black" fill="none" transform="translate(0 154.61703650680028)" />
        <circle cx="103.07802433786685" cy="0" r="1.889763779527559" stroke="black" fill="none" transform="translate(0 164.92483894058697)" />
        <circle cx="103.07802433786685" cy="0" r="1.889763779527559" stroke="black" fill="none" transform="translate(0 175.23264137437366)" />
        <circle cx="103.07802433786685" cy="0" r="1.889763779527559" stroke="black" fill="none" transform="translate(0 185.54044380816035)" />
        <circle cx="103.07802433786685" cy="0" r="1.889763779527559" stroke="black" fill="none" transform="translate(0 195.848246241947)" />
      </g>
      <g transform="rotate(270.0) translate(0 -103.07802433786685)">
        <circle cx="103.07802433786685" cy="0" r="1.889763779527559" stroke="black" fill="none" transform="translate(0 0.0)" />
        <circle cx="103.07802433786685" cy="0" r="1.889763779527559" stroke="black" fill="none" transform="translate(0 10.307802433786685)" />
        <circle cx="103.07802433786685" cy="0" r="1.889763779527559" stroke="black" fill="none" transform="translate(0 20.61560486757337)" />
        <circle cx="103.07802433786685" cy="0" r="1.889763779527559" stroke="black" fill="none" transform="translate(0 30.923407301360058)" />
        <circle cx="103.07802433786685" cy="0" r="1.889763779527559" stroke="black" fill="none" transform="translate(0 41.23120973514674)" />
        <circle cx="103.07802433786685" cy="0" r="1.889763779527559" stroke="black" fill="none" transform="translate(0 51.539012168933425)" />
        <circle cx="103.07802433786685" cy="0" r="1.889763779527559" stroke="black" fill="none" transform="translate(0 61.846814602720116)" />
        <circle cx="103.07802433786685" cy="0" r="1.889763779527559" stroke="black" fill="none" transform="translate(0 72.15461703650679)" />
        <circle cx="103.07802433786685" cy="0" r="1.889763779527559" stroke="black" fill="none" transform="translate(0 82.46241947029348)" />
        <circle cx="103.07802433786685" cy="0" r="1.889763779527559" stroke="black" fill="none" transform="translate(0 92.77022190408017)" />
        <circle cx="103.07802433786685" cy="0" r="1.889763779527559" stroke="black" fill="none" transform="translate(0 103.07802433786685)" />
        <circle cx="103.07802433786685" cy="0" r="1.889763779527559" stroke="black" fill="none" transform="translate(0 113.38582677165354)" />
        <circle cx="103.07802433786685" cy="0" r="1.889763779527559" stroke="black" fill="none" transform="translate(0 123.69362920544023)" />
        <circle cx="103.07802433786685" cy="0" r="1.889763779527559" stroke="black" fill="none" transform="translate(0 134.00143163922692)" />
        <circle cx="103.07802433786685" cy="0" r="1.889763779527559" stroke="black" fill="none" transform="translate(0 144.30923407301358)" />
        <circle cx="103.07802433786685" cy="0" r="1.889763779527559" stroke="black" fill="none" transform="translate(0 154.61703650680028)" />
        <circle cx="103.07802433786685" cy="0" r="1.889763779527559" stroke="black" fill="none" transform="translate(0 164.92483894058697)" />
        <circle cx="103.07802433786685" cy="0" r="1.889763779527559" stroke="black" fill="none" transform="translate(0 175.23264137437366)" />
        <circle cx="103.07802433786685" cy="0" r="1.889763779527559" stroke="black" fill="none" transform="translate(0 185.54044380816035)" />
        <circle cx="103.07802433786685" cy="0" r="1.889763779527559" stroke="black" fill="none" transform="translate(0 195.848246241947)" />
      </g>
    </g>
    <g>
      <g transform="rotate(0.0)">
        <circle cx="0" cy="0" r="1.889763779527559" stroke="black" fill="none" transform="translate(0.0 0) translate(10.307802433786685 0)" />
        <circle cx="0" cy="0" r="1.889763779527559" stroke="black" fill="none" transform="translate(10.307802433786685 0) translate(10.307802433786685 0)" />
        <circle cx="0" cy="0" r="1.889763779527559" stroke="black" fill="none" transform="translate(20.61560486757337 0) translate(10.307802433786685 0)" />
        <circle cx="0" cy="0" r="1.889763779527559" stroke="black" fill="none" transform="translate(30.923407301360058 0) translate(10.307802433786685 0)" />
        <circle cx="0" cy="0" r="1.889763779527559" stroke="black" fill="none" transform="translate(41.23120973514674 0) translate(10.307802433786685 0)" />
        <circle cx="0" cy="0" r="1.889763779527559" stroke="black" fill="none" transform="translate(51.539012168933425 0) translate(10.307802433786685 0)" />
        <circle cx="0" cy="0" r="1.889763779527559" stroke="black" fill="none" transform="translate(61.846814602720116 0) translate(10.307802433786685 0)" />
        <circle cx="0" cy="0" r="1.889763779527559" stroke="black" fill="none" transform="translate(72.15461703650679 0) translate(10.307802433786685 0)" />
        <circle cx="0" cy="0" r="1.889763779527559" stroke="black" fill="none" transform="translate(82.46241947029348 0) translate(10.307802433786685 0)" />
      </g>
      <g transform="rotate(90.0)">
        <circle cx="0" cy="0" r="1.889763779527559" stroke="black" fill="none" transform="translate(0.0 0) translate(10.307802433786685 0)" />
        <circle cx="0" cy="0" r="1.889763779527559" stroke="black" fill="none" transform="translate(10.307802433786685 0) translate(10.307802433786685 0)" />
        <circle cx="0" cy="0" r="1.889763779527559" stroke="black" fill="none" transform="translate(20.61560486757337 0) translate(10.307802433786685 0)" />
        <circle cx="0" cy="0" r="1.889763779527559" stroke="black" fill="none" transform="translate(30.923407301360058 0) translate(10.307802433786685 0)" />
        <circle cx="0" cy="0" r="1.889763779527559" stroke="black" fill="none" transform="translate(41.23120973514674 0) translate(10.307802433786685 0)" />
        <circle cx="0" cy="0" r="1.889763779527559" stroke="black" fill="none" transform="translate(51.539012168933425 0) translate(10.307802433786685 0)" />
        <circle cx="0" cy="0" r="1.889763779527559" stroke="black" fill="none" transform="translate(61.846814602720116 0) translate(10.307802433786685 0)" />
        <circle cx="0" cy="0" r="1.889763779527559" stroke="black" fill="none" transform="translate(72.15461703650679 0) translate(10.307802433786685 0)" />
        <circle cx="0" cy="0" r="1.889763779527559" stroke="black" fill="none" transform="translate(82.46241947029348 0) translate(10.307802433786685 0)" />
      </g>
      <g transform="rotate(180.0)">
        <circle cx="0" cy="0" r="1.889763779527559" stroke="black" fill="none" transform="translate(0.0 0) translate(10.307802433786685 0)" />
        <circle cx="0" cy="0" r="1.889763779527559" stroke="black" fill="none" transform="translate(10.307802433786685 0) translate(10.307802433786685 0)" />
        <circle cx="0" cy="0" r="1.889763779527559" stroke="black" fill="none" transform="translate(20.61560486757337 0) translate(10.307802433786685 0)" />
        <circle cx="0" cy="0" r="1.889763779527559" stroke="black" fill="none" transform="translate(30.923407301360058 0) translate(10.307802433786685 0)" />
        <circle cx="0" cy="0" r="1.889763779527559" stroke="black" fill="none" transform="translate(41.23120973514674 0) translate(10.307802433786685 0)" />
        <circle cx="0" cy="0" r="1.889763779527559" stroke="black" fill="none" transform="translate(51.539012168933425 0) translate(10.307802433786685 0)" />
        <circle cx="0" cy="0" r="1.889763779527559" stroke="black" fill="none" transform="translate(61.846814602720116 0) translate(10.307802433786685 0)" />
        <circle cx="0" cy="0" r="1.889763779527559" stroke="black" fill="none" transform="translate(72.15461703650679 0) translate(10.307802433786685 0)" />
        <circle cx="0" cy="0" r="1.889763779527559" stroke="black" fill="none" transform="translate(82.46241947029348 0) translate(10.307802433786685 0)" />
      </g>
      <g transform="rotate(270.0)">
        <circle cx="0" cy="0" r="1.889763779527559" stroke="black" fill="none" transform="translate(0.0 0) translate(10.307802433786685 0)" />
        <circle cx="0" cy="0" r="1.889763779527559" stroke="black" fill="none" transform="translate(10.307802433786685 0) translate(10.307802433786685 0)" />
        <circle cx="0" cy="0" r="1.889763779527559" stroke="black" fill="none" transform="translate(20.61560486757337 0) translate(10.307802433786685 0)" />
        <circle cx="0" cy="0" r="1.889763779527559" stroke="black" fill="none" transform="translate(30.923407301360058 0) translate(10.307802433786685 0)" />
        <circle cx="0" cy="0" r="1.889763779527559" stroke="black" fill="none" transform="translate(41.23120973514674 0) translate(10.307802433786685 0)" />
        <circle cx="0" cy="0" r="1.889763779527559" stroke="black" fill="none" transform="translate(51.539012168933425 0) translate(10.307802433786685 0)" />
        <circle cx="0" cy="0" r="1.889763779527559" stroke="black" fill="none" transform="translate(61.846814602720116 0) translate(10.307802433786685 0)" />
        <circle cx="0" cy="0" r="1.889763779527559" stroke="black" fill="none" transform="translate(72.15461703650679 0) translate(10.307802433786685 0)" />
        <circle cx="0" cy="0" r="1.889763779527559" stroke="black" fill="none" transform="translate(82.46241947029348 0) translate(10.307802433786685 0)" />
      </g>
    </g>
    <circle cx="0" cy="0" r="1.889763779527559" stroke="black" fill="none" />
  </g>
</g>
</svg>
